Voltaire.ufo
<glyph name="exclam" format="1">
  <advance width="578"/>
  <unicode hex="0021"/>
  <outline>
    <contour>
      <point x="431" y="115" type="curve" smooth="yes"/>
      <point x="431" y="186"/>
      <point x="375" y="249"/>
      <point x="290" y="249" type="curve" smooth="yes"/>
      <point x="204" y="249"/>
      <point x="148" y="186"/>
      <point x="148" y="115" type="curve" smooth="yes"/>
      <point x="148" y="44"/>
      <point x="204" y="-18"/>
      <point x="290" y="-18" type="curve" smooth="yes"/>
      <point x="375" y="-18"/>
      <point x="431" y="44"/>
    </contour>
    <contour>
      <point x="388" y="531" type="line"/>
      <point x="388" y="1593" type="line"/>
      <point x="198" y="1593" type="line"/>
      <point x="198" y="531" type="line"/>
    </contour>
  </outline>
</glyph>
<glyph name="numbersign" format="1">
  <advance width="1290"/>
  <unicode hex="0023"/>
  <outline>
    <contour>
      <point x="217" y="0" type="line"/>
      <point x="365" y="0" type="line"/>
      <point x="659" y="1417" type="line"/>
      <point x="511" y="1417" type="line"/>
    </contour>
    <contour>
      <point x="628" y="0" type="line"/>
      <point x="776" y="0" type="line"/>
      <point x="1070" y="1417" type="line"/>
      <point x="922" y="1417" type="line"/>
    </contour>
    <contour>
      <point x="1205" y="914" type="line"/>
      <point x="1205" y="1062" type="line"/>
      <point x="90" y="1062" type="line"/>
      <point x="90" y="914" type="line"/>
    </contour>
    <contour>
      <point x="1205" y="383" type="line"/>
      <point x="1205" y="531" type="line"/>
      <point x="90" y="531" type="line"/>
      <point x="90" y="383" type="line"/>
    </contour>
  </outline>
</glyph>
<glyph name="dollar" format="1">
  <advance width="905"/>
  <unicode hex="0024"/>
  <outline>
    <contour>
      <point x="355" y="-177" type="line"/>
      <point x="506" y="-177" type="line"/>
      <point x="506" y="134" type="line"/>
      <point x="355" y="134" type="line"/>
    </contour>
    <contour>
      <point x="355" y="1514" type="line"/>
      <point x="506" y="1514" type="line"/>
      <point x="506" y="1772" type="line"/>
      <point x="355" y="1772" type="line"/>
    </contour>
    <component base="S" xOffset="9"/>
  </outline>
</glyph>
<glyph name="percent" format="1">
  <advance width="1625"/>
  <unicode hex="0025"/>
  <outline>
    <contour>
      <point x="1081" y="346" type="curve" smooth="yes"/>
      <point x="1081" y="514"/>
      <point x="1130" y="570"/>
      <point x="1186" y="570" type="curve" smooth="yes"/>
      <point x="1242" y="570"/>
      <point x="1291" y="514"/>
      <point x="1291" y="346" type="curve" smooth="yes"/>
      <point x="1291" y="178"/>
      <point x="1242" y="122"/>
      <point x="1186" y="122" type="curve" smooth="yes"/>
      <point x="1130" y="122"/>
      <point x="1081" y="178"/>
    </contour>
    <contour>
      <point x="1448" y="346" type="curve" smooth="yes"/>
      <point x="1448" y="601"/>
      <point x="1340" y="711"/>
      <point x="1186" y="711" type="curve" smooth="yes"/>
      <point x="1032" y="711"/>
      <point x="924" y="601"/>
      <point x="924" y="346" type="curve" smooth="yes"/>
      <point x="924" y="91"/>
      <point x="1032" y="-19"/>
      <point x="1186" y="-19" type="curve" smooth="yes"/>
      <point x="1340" y="-19"/>
      <point x="1448" y="91"/>
    </contour>
    <contour>
      <point x="333" y="1247" type="curve" smooth="yes"/>
      <point x="333" y="1415"/>
      <point x="381" y="1471"/>
      <point x="438" y="1471" type="curve" smooth="yes"/>
      <point x="494" y="1471"/>
      <point x="543" y="1415"/>
      <point x="543" y="1247" type="curve" smooth="yes"/>
      <point x="543" y="1079"/>
      <point x="494" y="1023"/>
      <point x="438" y="1023" type="curve" smooth="yes"/>
      <point x="381" y="1023"/>
      <point x="333" y="1079"/>
    </contour>
    <contour>
      <point x="700" y="1247" type="curve" smooth="yes"/>
      <point x="700" y="1502"/>
      <point x="592" y="1612"/>
      <point x="438" y="1612" type="curve" smooth="yes"/>
      <point x="284" y="1612"/>
      <point x="175" y="1502"/>
      <point x="175" y="1247" type="curve" smooth="yes"/>
      <point x="175" y="992"/>
      <point x="284" y="882"/>
      <point x="438" y="882" type="curve" smooth="yes"/>
      <point x="592" y="882"/>
      <point x="700" y="992"/>
    </contour>
    <component base="slash" xOffset="373"/>
  </outline>
</glyph>
<glyph name="ampersand" format="1">
  <advance width="1252"/>
  <unicode hex="0026"/>
  <outline>
    <contour>
      <point x="505" y="764" type="line"/>
      <point x="376" y="628"/>
      <point x="349" y="498"/>
      <point x="349" y="407" type="curve" smooth="yes"/>
      <point x="349" y="234"/>
      <point x="448" y="157"/>
      <point x="572" y="157" type="curve" smooth="yes"/>
      <point x="724" y="157"/>
      <point x="814" y="272"/>
      <point x="814" y="529" type="curve" smooth="yes"/>
      <point x="814" y="728" type="line"/>
      <point x="743" y="728" type="line"/>
      <point x="743" y="885" type="line"/>
      <point x="1155" y="885" type="line"/>
      <point x="1155" y="728" type="line"/>
      <point x="990" y="728" type="line"/>
      <point x="991" y="529" type="line" smooth="yes"/>
      <point x="993" y="190"/>
      <point x="829" y="-18"/>
      <point x="565" y="-18" type="curve" smooth="yes"/>
      <point x="317" y="-18"/>
      <point x="163" y="164"/>
      <point x="163" y="395" type="curve" smooth="yes"/>
      <point x="163" y="551"/>
      <point x="234" y="720"/>
      <point x="377" y="889" type="curve"/>
    </contour>
    <contour>
      <point x="732" y="1378" type="line"/>
      <point x="682" y="1416"/>
      <point x="627" y="1437"/>
      <point x="569" y="1437" type="curve" smooth="yes"/>
      <point x="467" y="1437"/>
      <point x="401" y="1374"/>
      <point x="401" y="1250" type="curve" smooth="yes"/>
      <point x="401" y="1149"/>
      <point x="445" y="990"/>
      <point x="644" y="706" type="curve" smooth="yes"/>
      <point x="1077" y="87" type="line"/>
      <point x="942" y="-18" type="line"/>
      <point x="489" y="617" type="line" smooth="yes"/>
      <point x="299" y="883"/>
      <point x="215" y="1084"/>
      <point x="215" y="1252" type="curve" smooth="yes"/>
      <point x="215" y="1461"/>
      <point x="346" y="1612"/>
      <point x="562" y="1612" type="curve" smooth="yes"/>
      <point x="671" y="1612"/>
      <point x="761" y="1573"/>
      <point x="836" y="1510" type="curve"/>
    </contour>
  </outline>
</glyph>
<glyph name="quotesingle" format="1">
  <advance width="530"/>
  <unicode hex="0027"/>
  <outline>
    <contour>
      <point x="350" y="1062" type="line"/>
      <point x="350" y="1594" type="line"/>
      <point x="180" y="1594" type="line"/>
      <point x="180" y="1062" type="line"/>
    </contour>
  </outline>
</glyph>
<glyph name="parenleft" format="1">
  <advance width="831"/>
  <unicode hex="0028"/>
  <outline>
    <contour>
      <point x="359" y="796" type="curve" smooth="yes"/>
      <point x="359" y="1095"/>
      <point x="477" y="1341"/>
      <point x="692" y="1528" type="curve"/>
      <point x="692" y="1736" type="line"/>
      <point x="398" y="1534"/>
      <point x="188" y="1212"/>
      <point x="188" y="796" type="curve" smooth="yes"/>
      <point x="188" y="380"/>
      <point x="398" y="58"/>
      <point x="692" y="-144" type="curve"/>
      <point x="692" y="64" type="line"/>
      <point x="477" y="251"/>
      <point x="359" y="497"/>
    </contour>
  </outline>
</glyph>
<glyph name="parenright" format="1">
  <advance width="809"/>
  <unicode hex="0029"/>
  <outline>
    <contour>
      <point x="520" y="796" type="curve"/>
      <point x="520" y="497"/>
      <point x="402" y="251"/>
      <point x="188" y="64" type="curve"/>
      <point x="188" y="-144" type="line"/>
      <point x="481" y="58"/>
      <point x="692" y="380"/>
      <point x="692" y="796" type="curve" smooth="yes"/>
      <point x="692" y="1212"/>
      <point x="481" y="1534"/>
      <point x="188" y="1736" type="curve"/>
      <point x="188" y="1528" type="line"/>
      <point x="402" y="1341"/>
      <point x="520" y="1095"/>
    </contour>
  </outline>
</glyph>
<glyph name="asterisk" format="1">
  <advance width="997"/>
  <unicode hex="002A"/>
  <outline>
    <contour>
      <point x="150" y="1173" type="line"/>
      <point x="412" y="1179" type="line"/>
      <point x="325" y="932" type="line"/>
      <point x="475" y="883" type="line"/>
      <point x="550" y="1134" type="line"/>
      <point x="754" y="979" type="line"/>
      <point x="847" y="1107" type="line"/>
      <point x="632" y="1253" type="line"/>
      <point x="845" y="1399" type="line"/>
      <point x="752" y="1527" type="line"/>
      <point x="547" y="1370" type="line"/>
      <point x="475" y="1619" type="line"/>
      <point x="324" y="1570" type="line"/>
      <point x="410" y="1324" type="line"/>
      <point x="150" y="1331" type="line"/>
    </contour>
  </outline>
</glyph>
<glyph name="plus" format="1">
  <advance width="1061"/>
  <unicode hex="002B"/>
  <outline>
    <contour>
      <point x="608" y="304" type="line"/>
      <point x="451" y="304" type="line"/>
      <point x="451" y="579" type="line"/>
      <point x="176" y="579" type="line"/>
      <point x="176" y="730" type="line"/>
      <point x="451" y="730" type="line"/>
      <point x="451" y="1006" type="line"/>
      <point x="608" y="1006" type="line"/>
      <point x="608" y="730" type="line"/>
      <point x="883" y="730" type="line"/>
      <point x="883" y="579" type="line"/>
      <point x="608" y="579" type="line"/>
    </contour>
  </outline>
</glyph>
<glyph name="comma" format="1">
  <advance width="475"/>
  <unicode hex="002C"/>
  <outline>
    <contour>
      <point x="390" y="80" type="curve"/>
      <point x="390" y="192"/>
      <point x="321" y="249"/>
      <point x="243" y="249" type="curve" smooth="yes"/>
      <point x="159" y="249"/>
      <point x="104" y="186"/>
      <point x="104" y="115" type="curve" smooth="yes"/>
      <point x="104" y="48"/>
      <point x="153" y="-11"/>
      <point x="229" y="-17" type="curve"/>
      <point x="214" y="-71"/>
      <point x="161" y="-145"/>
      <point x="104" y="-198" type="curve"/>
      <point x="192" y="-283" type="line"/>
      <point x="325" y="-145"/>
      <point x="390" y="-24"/>
    </contour>
  </outline>
</glyph>
<glyph name="hyphen" format="1">
  <advance width="727"/>
  <unicode hex="002D"/>
  <outline>
    <contour>
      <point x="577" y="531" type="line"/>
      <point x="577" y="699" type="line"/>
      <point x="150" y="699" type="line"/>
      <point x="150" y="531" type="line"/>
    </contour>
  </outline>
</glyph>
<glyph name="period" format="1">
  <advance width="578"/>
  <unicode hex="002E"/>
  <outline>
    <contour>
      <point x="428" y="115" type="curve" smooth="yes"/>
      <point x="428" y="186"/>
      <point x="373" y="249"/>
      <point x="289" y="249" type="curve" smooth="yes"/>
      <point x="205" y="249"/>
      <point x="150" y="186"/>
      <point x="150" y="115" type="curve" smooth="yes"/>
      <point x="150" y="44"/>
      <point x="205" y="-18"/>
      <point x="289" y="-18" type="curve" smooth="yes"/>
      <point x="373" y="-18"/>
      <point x="428" y="44"/>
    </contour>
  </outline>
</glyph>
<glyph name="slash" format="1">
  <advance width="881"/>
  <unicode hex="002F"/>
  <outline>
    <contour>
      <point x="251" y="-19" type="line"/>
      <point x="804" y="1559" type="line"/>
      <point x="648" y="1612" type="line"/>
      <point x="96" y="34" type="line"/>
    </contour>
  </outline>
</glyph>
<glyph name="zero" format="1">
  <advance width="1126"/>
  <unicode hex="0030"/>
  <outline>
    <contour>
      <point x="792" y="796" type="curve" smooth="yes"/>
      <point x="792" y="276"/>
      <point x="677" y="156"/>
      <point x="563" y="156" type="curve" smooth="yes"/>
      <point x="449" y="156"/>
      <point x="335" y="276"/>
      <point x="335" y="796" type="curve" smooth="yes"/>
      <point x="335" y="1316"/>
      <point x="449" y="1436"/>
      <point x="563" y="1436" type="curve" smooth="yes"/>
      <point x="677" y="1436"/>
      <point x="792" y="1316"/>
    </contour>
    <contour>
      <point x="988" y="796" type="curve" smooth="yes"/>
      <point x="988" y="1418"/>
      <point x="792" y="1611"/>
      <point x="563" y="1611" type="curve" smooth="yes"/>
      <point x="335" y="1611"/>
      <point x="138" y="1418"/>
      <point x="138" y="796" type="curve" smooth="yes"/>
      <point x="138" y="174"/>
      <point x="335" y="-19"/>
      <point x="563" y="-19" type="curve" smooth="yes"/>
      <point x="792" y="-19"/>
      <point x="988" y="174"/>
    </contour>
  </outline>
</glyph>
<glyph name="two" format="1">
  <advance width="940"/>
  <unicode hex="0032"/>
  <outline>
    <contour>
      <point x="268" y="1" type="line"/>
      <point x="605" y="684" type="line" smooth="yes"/>
      <point x="733" y="945"/>
      <point x="794" y="1072"/>
      <point x="794" y="1221" type="curve" smooth="yes"/>
      <point x="794" y="1449"/>
      <point x="652" y="1613"/>
      <point x="407" y="1613" type="curve" smooth="yes"/>
      <point x="299" y="1613"/>
      <point x="182" y="1581"/>
      <point x="91" y="1503" type="curve"/>
      <point x="182" y="1357" type="line"/>
      <point x="261" y="1416"/>
      <point x="342" y="1438"/>
      <point x="403" y="1438" type="curve" smooth="yes"/>
      <point x="537" y="1438"/>
      <point x="597" y="1333"/>
      <point x="597" y="1231" type="curve" smooth="yes"/>
      <point x="597" y="1143"/>
      <point x="553" y="1010"/>
      <point x="465" y="830" type="curve" smooth="yes"/>
      <point x="60" y="1" type="line"/>
    </contour>
    <contour>
      <point x="184" y="1" type="line"/>
      <point x="812" y="1" type="line"/>
      <point x="812" y="176" type="line"/>
      <point x="188" y="176" type="line"/>
    </contour>
  </outline>
</glyph>
<glyph name="three" format="1">
  <advance width="1007"/>
  <unicode hex="0033"/>
  <outline>
    <contour>
      <point x="162" y="1418" type="line"/>
      <point x="577" y="1418" type="line"/>
      <point x="684" y="1594" type="line"/>
      <point x="161" y="1594" type="line"/>
    </contour>
    <contour>
      <point x="257" y="779" type="line"/>
      <point x="414" y="840" type="line"/>
      <point x="492" y="849" type="line"/>
      <point x="840" y="1594" type="line"/>
      <point x="644" y="1594" type="line"/>
    </contour>
    <contour>
      <point x="236" y="741" type="line"/>
      <point x="292" y="766"/>
      <point x="334" y="774"/>
      <point x="377" y="774" type="curve" smooth="yes"/>
      <point x="542" y="774"/>
      <point x="673" y="663"/>
      <point x="673" y="464" type="curve" smooth="yes"/>
      <point x="673" y="277"/>
      <point x="558" y="156"/>
      <point x="389" y="156" type="curve" smooth="yes"/>
      <point x="323" y="156"/>
      <point x="245" y="174"/>
      <point x="177" y="214" type="curve"/>
      <point x="88" y="61" type="line"/>
      <point x="152" y="19"/>
      <point x="271" y="-19"/>
      <point x="394" y="-19" type="curve" smooth="yes"/>
      <point x="678" y="-19"/>
      <point x="870" y="184"/>
      <point x="870" y="469" type="curve" smooth="yes"/>
      <point x="870" y="728"/>
      <point x="712" y="918"/>
      <point x="386" y="966" type="curve"/>
      <point x="302" y="868" type="line"/>
    </contour>
  </outline>
</glyph>
<glyph name="four" format="1">
  <advance width="1072"/>
  <unicode hex="0034"/>
  <outline>
    <contour>
      <point x="334" y="512" type="line"/>
      <point x="614" y="1593" type="line"/>
      <point x="422" y="1593" type="line"/>
      <point x="102" y="336" type="line"/>
      <point x="955" y="336" type="line"/>
      <point x="955" y="512" type="line"/>
    </contour>
    <contour>
      <point x="806" y="0" type="line"/>
      <point x="806" y="1081" type="line"/>
      <point x="616" y="880" type="line"/>
      <point x="616" y="0" type="line"/>
    </contour>
  </outline>
</glyph>
<glyph name="five" format="1">
  <advance width="971"/>
  <unicode hex="0035"/>
  <outline>
    <contour>
      <point x="780" y="1593" type="line"/>
      <point x="202" y="1593" type="line"/>
      <point x="226" y="1417" type="line"/>
      <point x="783" y="1417" type="line"/>
    </contour>
    <contour>
      <point x="372" y="1593" type="line"/>
      <point x="183" y="1593" type="line"/>
      <point x="183" y="726" type="line"/>
      <point x="372" y="884" type="line"/>
    </contour>
    <contour>
      <point x="183" y="720" type="line"/>
      <point x="264" y="779"/>
      <point x="346" y="796"/>
      <point x="406" y="796" type="curve" smooth="yes"/>
      <point x="565" y="796"/>
      <point x="673" y="679"/>
      <point x="673" y="486" type="curve" smooth="yes"/>
      <point x="673" y="265"/>
      <point x="530" y="156"/>
      <point x="380" y="156" type="curve" smooth="yes"/>
      <point x="314" y="156"/>
      <point x="241" y="177"/>
      <point x="173" y="221" type="curve"/>
      <point x="88" y="61" type="line"/>
      <point x="204" y="0"/>
      <point x="316" y="-19"/>
      <point x="400" y="-19" type="curve" smooth="yes"/>
      <point x="649" y="-19"/>
      <point x="870" y="152"/>
      <point x="870" y="481" type="curve" smooth="yes"/>
      <point x="870" y="772"/>
      <point x="697" y="971"/>
      <point x="416" y="971" type="curve" smooth="yes"/>
      <point x="322" y="971"/>
      <point x="283" y="949"/>
      <point x="226" y="876" type="curve"/>
    </contour>
  </outline>
</glyph>
<glyph name="six" format="1">
  <advance width="1078"/>
  <unicode hex="0036"/>
  <outline>
    <contour>
      <point x="976" y="483" type="curve" smooth="yes"/>
      <point x="976" y="819"/>
      <point x="782" y="985"/>
      <point x="579" y="985" type="curve" smooth="yes"/>
      <point x="493" y="985"/>
      <point x="427" y="955"/>
      <point x="357" y="872" type="curve"/>
      <point x="377" y="1065"/>
      <point x="522" y="1321"/>
      <point x="744" y="1479" type="curve"/>
      <point x="650" y="1632" type="line"/>
      <point x="314" y="1397"/>
      <point x="138" y="1022"/>
      <point x="138" y="602" type="curve" smooth="yes"/>
      <point x="138" y="184"/>
      <point x="312" y="-18"/>
      <point x="559" y="-18" type="curve" smooth="yes"/>
      <point x="783" y="-18"/>
      <point x="976" y="148"/>
    </contour>
    <contour>
      <point x="779" y="484" type="curve" smooth="yes"/>
      <point x="779" y="242"/>
      <point x="669" y="159"/>
      <point x="563" y="159" type="curve" smooth="yes"/>
      <point x="455" y="159"/>
      <point x="352" y="245"/>
      <point x="352" y="484" type="curve" smooth="yes"/>
      <point x="352" y="724"/>
      <point x="455" y="810"/>
      <point x="563" y="810" type="curve" smooth="yes"/>
      <point x="669" y="810"/>
      <point x="779" y="727"/>
    </contour>
  </outline>
</glyph>
<glyph name="seven" format="1">
  <advance width="895"/>
  <unicode hex="0037"/>
  <outline>
    <contour>
      <point x="88" y="1593" type="line"/>
      <point x="829" y="1593" type="line"/>
      <point x="361" y="0" type="line"/>
      <point x="173" y="0" type="line"/>
      <point x="585" y="1418" type="line"/>
      <point x="89" y="1418" type="line"/>
    </contour>
  </outline>
</glyph>
<glyph name="eight" format="1">
  <advance width="1122"/>
  <unicode hex="0038"/>
  <outline>
    <contour>
      <point x="561" y="782" type="curve" smooth="yes"/>
      <point x="761" y="782"/>
      <point x="926" y="980"/>
      <point x="926" y="1224" type="curve" smooth="yes"/>
      <point x="926" y="1475"/>
      <point x="752" y="1630"/>
      <point x="561" y="1630" type="curve" smooth="yes"/>
      <point x="369" y="1630"/>
      <point x="195" y="1474"/>
      <point x="195" y="1223" type="curve" smooth="yes"/>
      <point x="195" y="978"/>
      <point x="362" y="782"/>
    </contour>
    <contour>
      <point x="984" y="455" type="curve" smooth="yes"/>
      <point x="984" y="751"/>
      <point x="784" y="955"/>
      <point x="561" y="955" type="curve" smooth="yes"/>
      <point x="338" y="955"/>
      <point x="138" y="751"/>
      <point x="138" y="455" type="curve" smooth="yes"/>
      <point x="138" y="172"/>
      <point x="320" y="-19"/>
      <point x="561" y="-19" type="curve" smooth="yes"/>
      <point x="802" y="-19"/>
      <point x="984" y="172"/>
    </contour>
    <contour>
      <point x="729" y="1205" type="curve" smooth="yes"/>
      <point x="729" y="1025"/>
      <point x="642" y="956"/>
      <point x="561" y="956" type="curve" smooth="yes"/>
      <point x="480" y="956"/>
      <point x="392" y="1025"/>
      <point x="392" y="1205" type="curve" smooth="yes"/>
      <point x="392" y="1385"/>
      <point x="480" y="1455"/>
      <point x="561" y="1455" type="curve" smooth="yes"/>
      <point x="642" y="1455"/>
      <point x="729" y="1385"/>
    </contour>
    <contour>
      <point x="787" y="469" type="curve" smooth="yes"/>
      <point x="787" y="262"/>
      <point x="691" y="156"/>
      <point x="561" y="156" type="curve" smooth="yes"/>
      <point x="432" y="156"/>
      <point x="335" y="262"/>
      <point x="335" y="469" type="curve" smooth="yes"/>
      <point x="335" y="676"/>
      <point x="432" y="779"/>
      <point x="561" y="779" type="curve" smooth="yes"/>
      <point x="691" y="779"/>
      <point x="787" y="676"/>
    </contour>
  </outline>
</glyph>
<glyph name="nine" format="1">
  <advance width="1088"/>
  <unicode hex="0039"/>
  <outline>
    <contour>
      <point x="106" y="1124" type="curve" smooth="yes"/>
      <point x="106" y="784"/>
      <point x="303" y="615"/>
      <point x="506" y="615" type="curve" smooth="yes"/>
      <point x="593" y="615"/>
      <point x="658" y="646"/>
      <point x="729" y="730" type="curve"/>
      <point x="709" y="535"/>
      <point x="562" y="276"/>
      <point x="338" y="115" type="curve"/>
      <point x="433" y="-39" type="line"/>
      <point x="781" y="211"/>
      <point x="950" y="589"/>
      <point x="950" y="1003" type="curve" smooth="yes"/>
      <point x="950" y="1427"/>
      <point x="773" y="1631"/>
      <point x="525" y="1631" type="curve" smooth="yes"/>
      <point x="301" y="1631"/>
      <point x="106" y="1463"/>
    </contour>
    <contour>
      <point x="735" y="1123" type="curve" smooth="yes"/>
      <point x="735" y="876"/>
      <point x="622" y="790"/>
      <point x="519" y="790" type="curve" smooth="yes"/>
      <point x="415" y="790"/>
      <point x="302" y="876"/>
      <point x="302" y="1123" type="curve" smooth="yes"/>
      <point x="302" y="1370"/>
      <point x="415" y="1456"/>
      <point x="519" y="1456" type="curve" smooth="yes"/>
      <point x="622" y="1456"/>
      <point x="735" y="1370"/>
    </contour>
  </outline>
</glyph>
<glyph name="semicolon" format="1">
  <advance width="571"/>
  <unicode hex="003B"/>
  <outline>
    <contour>
      <point x="427" y="87" type="curve" smooth="yes"/>
      <point x="427" y="194"/>
      <point x="363" y="249"/>
      <point x="285" y="249" type="curve" smooth="yes"/>
      <point x="201" y="249"/>
      <point x="146" y="186"/>
      <point x="146" y="115" type="curve" smooth="yes"/>
      <point x="146" y="48"/>
      <point x="195" y="-11"/>
      <point x="271" y="-17" type="curve"/>
      <point x="253" y="-71"/>
      <point x="202" y="-139"/>
      <point x="145" y="-192" type="curve"/>
      <point x="233" y="-277" type="line"/>
      <point x="375" y="-134"/>
      <point x="427" y="-17"/>
    </contour>
    <contour>
      <point x="423" y="745" type="curve" smooth="yes"/>
      <point x="423" y="816"/>
      <point x="368" y="879"/>
      <point x="284" y="879" type="curve" smooth="yes"/>
      <point x="200" y="879"/>
      <point x="145" y="816"/>
      <point x="145" y="745" type="curve" smooth="yes"/>
      <point x="145" y="674"/>
      <point x="200" y="612"/>
      <point x="284" y="612" type="curve" smooth="yes"/>
      <point x="368" y="612"/>
      <point x="423" y="674"/>
    </contour>
  </outline>
</glyph>
<glyph name="less" format="1">
  <advance width="875"/>
  <unicode hex="003C"/>
  <outline>
    <contour>
      <point x="337" y="759" type="line"/>
      <point x="724" y="1113" type="line"/>
      <point x="616" y="1231" type="line"/>
      <point x="109" y="759" type="line"/>
      <point x="616" y="287" type="line"/>
      <point x="724" y="405" type="line"/>
    </contour>
  </outline>
</glyph>
<glyph name="equal" format="1">
  <advance width="1061"/>
  <unicode hex="003D"/>
  <outline>
    <contour>
      <point x="883" y="758" type="line"/>
      <point x="883" y="909" type="line"/>
      <point x="176" y="909" type="line"/>
      <point x="176" y="758" type="line"/>
    </contour>
    <contour>
      <point x="883" y="456" type="line"/>
      <point x="883" y="607" type="line"/>
      <point x="176" y="607" type="line"/>
      <point x="176" y="456" type="line"/>
    </contour>
  </outline>
</glyph>
<glyph name="question" format="1">
  <advance width="931"/>
  <unicode hex="003F"/>
  <outline>
    <contour>
      <point x="548" y="115" type="curve" smooth="yes"/>
      <point x="548" y="186"/>
      <point x="492" y="249"/>
      <point x="406" y="249" type="curve" smooth="yes"/>
      <point x="320" y="249"/>
      <point x="264" y="186"/>
      <point x="264" y="115" type="curve" smooth="yes"/>
      <point x="264" y="44"/>
      <point x="320" y="-18"/>
      <point x="406" y="-18" type="curve" smooth="yes"/>
      <point x="492" y="-18"/>
      <point x="548" y="44"/>
    </contour>
    <contour>
      <point x="474" y="531" type="line"/>
      <point x="474" y="641" type="line" smooth="yes"/>
      <point x="484" y="1013"/>
      <point x="778" y="988"/>
      <point x="778" y="1286" type="curve" smooth="yes"/>
      <point x="778" y="1484"/>
      <point x="648" y="1611"/>
      <point x="422" y="1611" type="curve" smooth="yes"/>
      <point x="333" y="1611"/>
      <point x="240" y="1588"/>
      <point x="153" y="1538" type="curve"/>
      <point x="235" y="1383" type="line"/>
      <point x="283" y="1411"/>
      <point x="337" y="1435"/>
      <point x="402" y="1435" type="curve" smooth="yes"/>
      <point x="516" y="1435"/>
      <point x="586" y="1363"/>
      <point x="586" y="1266" type="curve" smooth="yes"/>
      <point x="586" y="1081"/>
      <point x="285" y="1027"/>
      <point x="285" y="644" type="curve" smooth="yes"/>
      <point x="285" y="531" type="line"/>
    </contour>
  </outline>
</glyph>
<glyph name="at" format="1">
  <advance width="1468"/>
  <unicode hex="0040"/>
  <outline>
    <contour>
      <point x="1194" y="540" type="curve" smooth="yes"/>
      <point x="1194" y="381"/>
      <point x="1130" y="222"/>
      <point x="1007" y="157" type="curve"/>
      <point x="1007" y="815" type="line"/>
      <point x="647" y="815"/>
      <point x="458" y="633"/>
      <point x="458" y="391" type="curve" smooth="yes"/>
      <point x="458" y="171"/>
      <point x="613" y="-19"/>
      <point x="896" y="-19" type="curve"/>
      <point x="1154" y="-19"/>
      <point x="1376" y="228"/>
      <point x="1376" y="553" type="curve" smooth="yes"/>
      <point x="1376" y="914"/>
      <point x="1101" y="1146"/>
      <point x="780" y="1146" type="curve" smooth="yes"/>
      <point x="427" y="1146"/>
      <point x="152" y="864"/>
      <point x="153" y="438" type="curve" smooth="yes"/>
      <point x="154" y="0" type="line"/>
      <point x="334" y="0" type="line"/>
      <point x="335" y="438" type="line" smooth="yes"/>
      <point x="336" y="752"/>
      <point x="529" y="971"/>
      <point x="792" y="971" type="curve" smooth="yes"/>
      <point x="1025" y="971"/>
      <point x="1194" y="799"/>
    </contour>
    <contour>
      <point x="640" y="397" type="curve" smooth="yes"/>
      <point x="640" y="534"/>
      <point x="712" y="611"/>
      <point x="833" y="636" type="curve"/>
      <point x="833" y="150" type="line"/>
      <point x="706" y="176"/>
      <point x="640" y="265"/>
    </contour>
  </outline>
</glyph>
<glyph name="A" format="1">
  <advance width="954"/>
  <unicode hex="0041"/>
  <outline>
    <contour>
      <point x="459" y="1612" type="line"/>
      <point x="5" y="0" type="line"/>
      <point x="202" y="0" type="line"/>
      <point x="436" y="898" type="line"/>
      <point x="476" y="1118" type="line"/>
      <point x="518" y="898" type="line"/>
      <point x="752" y="0" type="line"/>
      <point x="949" y="0" type="line"/>
      <point x="494" y="1612" type="line"/>
    </contour>
    <contour>
      <point x="209" y="265" type="line"/>
      <point x="754" y="265" type="line"/>
      <point x="754" y="431" type="line"/>
      <point x="209" y="431" type="line"/>
    </contour>
    <contour>
      <point x="477" y="1700" type="move" name="top"/>
    </contour>
    <contour>
      <point x="477" y="-170" type="move" name="btm"/>
    </contour>
  </outline>
</glyph>
<glyph name="B" format="1">
  <advance width="936"/>
  <unicode hex="0042"/>
  <outline>
    <contour>
      <point x="790" y="1122" type="curve" smooth="yes"/>
      <point x="790" y="1009"/>
      <point x="729" y="880"/>
      <point x="622" y="785" type="curve"/>
      <point x="760" y="706"/>
      <point x="837" y="586"/>
      <point x="837" y="431" type="curve" smooth="yes"/>
      <point x="837" y="230"/>
      <point x="722" y="11"/>
      <point x="348" y="-14" type="curve" smooth="yes"/>
      <point x="318" y="-16"/>
      <point x="210" y="-18"/>
      <point x="178" y="-18" type="curve"/>
      <point x="178" y="1612" type="line"/>
      <point x="210" y="1612"/>
      <point x="294" y="1607"/>
      <point x="324" y="1603" type="curve" smooth="yes"/>
      <point x="683" y="1561"/>
      <point x="790" y="1328"/>
    </contour>
    <contour>
      <point x="642" y="431" type="curve" smooth="yes"/>
      <point x="642" y="576"/>
      <point x="536" y="701"/>
      <point x="361" y="681" type="curve"/>
      <point x="361" y="172" type="line"/>
      <point x="516" y="172"/>
      <point x="642" y="267"/>
    </contour>
    <contour>
      <point x="361" y="838" type="line"/>
      <point x="482" y="818"/>
      <point x="610" y="971"/>
      <point x="610" y="1134" type="curve" smooth="yes"/>
      <point x="610" y="1341"/>
      <point x="462" y="1411"/>
      <point x="361" y="1411" type="curve"/>
    </contour>
    <contour>
      <point x="508" y="1700" type="move" name="top"/>
    </contour>
    <contour>
      <point x="508" y="-170" type="move" name="btm"/>
    </contour>
  </outline>
</glyph>
<glyph name="C" format="1">
  <advance width="801"/>
  <unicode hex="0043"/>
  <outline>
    <contour>
      <point x="97" y="796" type="curve" smooth="yes"/>
      <point x="97" y="208"/>
      <point x="321" y="-19"/>
      <point x="583" y="-19" type="curve" smooth="yes"/>
      <point x="658" y="-19"/>
      <point x="718" y="-6"/>
      <point x="784" y="22" type="curve"/>
      <point x="720" y="179" type="line"/>
      <point x="695" y="168"/>
      <point x="645" y="162"/>
      <point x="609" y="162" type="curve" smooth="yes"/>
      <point x="438" y="162"/>
      <point x="289" y="335"/>
      <point x="289" y="796" type="curve" smooth="yes"/>
      <point x="289" y="1257"/>
      <point x="438" y="1431"/>
      <point x="609" y="1431" type="curve" smooth="yes"/>
      <point x="645" y="1431"/>
      <point x="715" y="1425"/>
      <point x="740" y="1414" type="curve"/>
      <point x="784" y="1570" type="line"/>
      <point x="718" y="1598"/>
      <point x="658" y="1611"/>
      <point x="583" y="1611" type="curve" smooth="yes"/>
      <point x="321" y="1611"/>
      <point x="97" y="1394"/>
    </contour>
    <contour>
      <point x="441" y="1700" type="move" name="top"/>
    </contour>
    <contour>
      <point x="441" y="-170" type="move" name="btm"/>
    </contour>
  </outline>
</glyph>
<glyph name="D" format="1">
  <advance width="986"/>
  <unicode hex="0044"/>
  <outline>
    <contour>
      <point x="921" y="806" type="curve" smooth="yes"/>
      <point x="921" y="1229"/>
      <point x="712" y="1526"/>
      <point x="363" y="1590" type="curve" smooth="yes"/>
      <point x="304" y="1601"/>
      <point x="243" y="1608"/>
      <point x="178" y="1611" type="curve"/>
      <point x="178" y="-19" type="line"/>
      <point x="246" y="-15"/>
      <point x="309" y="-2"/>
      <point x="370" y="10" type="curve" smooth="yes"/>
      <point x="740" y="82"/>
      <point x="921" y="386"/>
    </contour>
    <contour>
      <point x="368" y="1405" type="line"/>
      <point x="543" y="1371"/>
      <point x="727" y="1220"/>
      <point x="727" y="806" type="curve" smooth="yes"/>
      <point x="727" y="386"/>
      <point x="543" y="231"/>
      <point x="368" y="187" type="curve"/>
    </contour>
    <contour>
      <point x="550" y="1700" type="move" name="top"/>
    </contour>
    <contour>
      <point x="550" y="-170" type="move" name="btm"/>
    </contour>
  </outline>
</glyph>
<glyph name="E" format="1">
  <advance width="835"/>
  <unicode hex="0045"/>
  <outline>
    <contour>
      <point x="178" y="0" type="line"/>
      <point x="725" y="0" type="line"/>
      <point x="725" y="176" type="line"/>
      <point x="368" y="176" type="line"/>
      <point x="368" y="629" type="line"/>
      <point x="674" y="629" type="line"/>
      <point x="674" y="805" type="line"/>
      <point x="368" y="805" type="line"/>
      <point x="368" y="1417" type="line"/>
      <point x="725" y="1417" type="line"/>
      <point x="725" y="1593" type="line"/>
      <point x="178" y="1593" type="line"/>
    </contour>
    <contour>
      <point x="452" y="1700" type="move" name="top"/>
    </contour>
    <contour>
      <point x="452" y="-170" type="move" name="btm"/>
    </contour>
  </outline>
</glyph>
<glyph name="F" format="1">
  <advance width="772"/>
  <unicode hex="0046"/>
  <outline>
    <contour>
      <point x="368" y="0" type="line"/>
      <point x="368" y="567" type="line"/>
      <point x="682" y="567" type="line"/>
      <point x="682" y="743" type="line"/>
      <point x="368" y="743" type="line"/>
      <point x="368" y="1417" type="line"/>
      <point x="733" y="1417" type="line"/>
      <point x="733" y="1593" type="line"/>
      <point x="178" y="1594" type="line"/>
      <point x="178" y="0" type="line"/>
    </contour>
    <contour>
      <point x="456" y="1700" type="move" name="top"/>
    </contour>
    <contour>
      <point x="456" y="-170" type="move" name="btm"/>
    </contour>
  </outline>
</glyph>
<glyph name="G" format="1">
  <advance width="940"/>
  <unicode hex="0047"/>
  <outline>
    <contour>
      <point x="290" y="824" type="curve" smooth="yes"/>
      <point x="290" y="1217"/>
      <point x="463" y="1429"/>
      <point x="658" y="1429" type="curve" smooth="yes"/>
      <point x="699" y="1429"/>
      <point x="754" y="1423"/>
      <point x="791" y="1412" type="curve"/>
      <point x="876" y="1570" type="line"/>
      <point x="795" y="1598"/>
      <point x="734" y="1611"/>
      <point x="654" y="1611" type="curve" smooth="yes"/>
      <point x="334" y="1611"/>
      <point x="96" y="1327"/>
      <point x="96" y="826" type="curve" smooth="yes"/>
      <point x="96" y="211"/>
      <point x="424" y="-35"/>
      <point x="868" y="-18" type="curve"/>
      <point x="679" y="161" type="line"/>
      <point x="453" y="201"/>
      <point x="290" y="365"/>
    </contour>
    <contour>
      <point x="868" y="-18" type="line"/>
      <point x="868" y="643" type="line"/>
      <point x="869" y="643" type="line"/>
      <point x="869" y="811" type="line"/>
      <point x="592" y="811" type="line"/>
      <point x="592" y="643" type="line"/>
      <point x="679" y="643" type="line"/>
      <point x="679" y="110" type="line"/>
    </contour>
    <contour>
      <point x="575" y="1700" type="move" name="top"/>
    </contour>
    <contour>
      <point x="471" y="-170" type="move" name="btm"/>
    </contour>
  </outline>
</glyph>
<glyph name="H" format="1">
  <advance width="1054"/>
  <unicode hex="0048"/>
  <outline>
    <contour>
      <point x="348" y="0" type="line"/>
      <point x="348" y="533" type="line"/>
      <point x="706" y="533" type="line"/>
      <point x="706" y="0" type="line"/>
      <point x="896" y="0" type="line"/>
      <point x="896" y="1593" type="line"/>
      <point x="706" y="1593" type="line"/>
      <point x="706" y="709" type="line"/>
      <point x="348" y="709" type="line"/>
      <point x="348" y="1593" type="line"/>
      <point x="158" y="1593" type="line"/>
      <point x="158" y="0" type="line"/>
    </contour>
    <contour>
      <point x="527" y="1700" type="move" name="top"/>
    </contour>
    <contour>
      <point x="527" y="-170" type="move" name="btm"/>
    </contour>
  </outline>
</glyph>
<glyph name="I" format="1">
  <advance width="506"/>
  <unicode hex="0049"/>
  <outline>
    <contour>
      <point x="348" y="0" type="line"/>
      <point x="348" y="1593" type="line"/>
      <point x="158" y="1593" type="line"/>
      <point x="158" y="0" type="line"/>
    </contour>
    <contour>
      <point x="253" y="1700" type="move" name="top"/>
    </contour>
    <contour>
      <point x="253" y="-170" type="move" name="btm"/>
    </contour>
  </outline>
</glyph>
<glyph name="J" format="1">
  <advance width="558"/>
  <unicode hex="004A"/>
  <outline>
    <contour>
      <point x="252" y="238" type="line" smooth="yes"/>
      <point x="252" y="89"/>
      <point x="198" y="-58"/>
      <point x="70" y="-145" type="curve"/>
      <point x="172" y="-262" type="line"/>
      <point x="406" y="-142"/>
      <point x="439" y="42"/>
      <point x="439" y="248" type="curve" smooth="yes"/>
      <point x="439" y="1593" type="line"/>
      <point x="252" y="1593" type="line"/>
    </contour>
    <contour>
      <point x="339" y="1700" type="move" name="top"/>
    </contour>
    <contour>
      <point x="194" y="-170" type="move" name="btm"/>
    </contour>
  </outline>
</glyph>
<glyph name="K" format="1">
  <advance width="973"/>
  <unicode hex="004B"/>
  <outline>
    <contour>
      <point x="514" y="833" type="line"/>
      <point x="348" y="739" type="line"/>
      <point x="760" y="0" type="line"/>
      <point x="979" y="0" type="line"/>
    </contour>
    <contour>
      <point x="348" y="0" type="line"/>
      <point x="348" y="1593" type="line"/>
      <point x="158" y="1593" type="line"/>
      <point x="158" y="0" type="line"/>
    </contour>
    <contour>
      <point x="924" y="1593" type="line"/>
      <point x="720" y="1593" type="line"/>
      <point x="348" y="739" type="line"/>
      <point x="492" y="625" type="line"/>
    </contour>
    <contour>
      <point x="568" y="1700" type="move" name="top"/>
    </contour>
    <contour>
      <point x="568" y="-170" type="move" name="btm"/>
    </contour>
  </outline>
</glyph>
<glyph name="L" format="1">
  <advance width="803"/>
  <unicode hex="004C"/>
  <outline>
    <contour>
      <point x="158" y="0" type="line"/>
      <point x="767" y="0" type="line"/>
      <point x="767" y="174" type="line"/>
      <point x="348" y="174" type="line"/>
      <point x="348" y="1593" type="line"/>
      <point x="158" y="1593" type="line"/>
    </contour>
    <contour>
      <point x="462" y="1700" type="move" name="top"/>
    </contour>
    <contour>
      <point x="462" y="-170" type="move" name="btm"/>
    </contour>
  </outline>
</glyph>
<glyph name="M" format="1">
  <advance width="1256"/>
  <unicode hex="004D"/>
  <outline>
    <contour>
      <point x="1098" y="1612" type="line"/>
      <point x="1055" y="1612" type="line"/>
      <point x="628" y="776" type="line"/>
      <point x="201" y="1612" type="line"/>
      <point x="158" y="1612" type="line"/>
      <point x="158" y="0" type="line"/>
      <point x="348" y="0" type="line"/>
      <point x="348" y="750" type="line"/>
      <point x="332" y="997" type="line"/>
      <point x="450" y="747" type="line"/>
      <point x="628" y="431" type="line"/>
      <point x="628" y="429" type="line"/>
      <point x="628" y="430" type="line"/>
      <point x="629" y="429" type="line"/>
      <point x="629" y="431" type="line"/>
      <point x="805" y="746" type="line"/>
      <point x="923" y="997" type="line"/>
      <point x="908" y="748" type="line"/>
      <point x="908" y="0" type="line"/>
      <point x="1098" y="0" type="line"/>
    </contour>
    <contour>
      <point x="628" y="1700" type="move" name="top"/>
    </contour>
    <contour>
      <point x="628" y="-170" type="move" name="btm"/>
    </contour>
  </outline>
</glyph>
<glyph name="N" format="1">
  <advance width="1123"/>
  <unicode hex="004E"/>
  <outline>
    <contour>
      <point x="965" y="0" type="line"/>
      <point x="965" y="1593" type="line"/>
      <point x="777" y="1593" type="line"/>
      <point x="777" y="816" type="line"/>
      <point x="802" y="555" type="line"/>
      <point x="659" y="819" type="line"/>
      <point x="183" y="1612" type="line"/>
      <point x="158" y="1612" type="line"/>
      <point x="158" y="0" type="line"/>
      <point x="348" y="0" type="line"/>
      <point x="348" y="796" type="line"/>
      <point x="322" y="1030" type="line"/>
      <point x="463" y="796" type="line"/>
      <point x="941" y="0" type="line"/>
    </contour>
    <contour>
      <point x="561" y="1700" type="move" name="top"/>
    </contour>
    <contour>
      <point x="561" y="-170" type="move" name="btm"/>
    </contour>
  </outline>
</glyph>
<glyph name="O" format="1">
  <advance width="1080"/>
  <unicode hex="004F"/>
  <outline>
    <contour>
      <point x="97" y="796" type="curve" smooth="yes"/>
      <point x="97" y="135"/>
      <point x="346" y="-19"/>
      <point x="539" y="-19" type="curve" smooth="yes"/>
      <point x="733" y="-19"/>
      <point x="982" y="135"/>
      <point x="982" y="796" type="curve" smooth="yes"/>
      <point x="982" y="1457"/>
      <point x="733" y="1611"/>
      <point x="539" y="1611" type="curve" smooth="yes"/>
      <point x="346" y="1611"/>
      <point x="97" y="1457"/>
    </contour>
    <contour>
      <point x="785" y="796" type="curve" smooth="yes"/>
      <point x="785" y="311"/>
      <point x="654" y="165"/>
      <point x="539" y="165" type="curve" smooth="yes"/>
      <point x="425" y="165"/>
      <point x="294" y="311"/>
      <point x="294" y="796" type="curve" smooth="yes"/>
      <point x="294" y="1281"/>
      <point x="425" y="1427"/>
      <point x="539" y="1427" type="curve" smooth="yes"/>
      <point x="654" y="1427"/>
      <point x="785" y="1281"/>
    </contour>
    <contour>
      <point x="539" y="1700" type="move" name="top"/>
    </contour>
    <contour>
      <point x="539" y="-170" type="move" name="btm"/>
    </contour>
  </outline>
</glyph>
<glyph name="P" format="1">
  <advance width="943"/>
  <unicode hex="0050"/>
  <outline>
    <contour>
      <point x="648" y="1051" type="curve" smooth="yes"/>
      <point x="648" y="812"/>
      <point x="522" y="680"/>
      <point x="348" y="665" type="curve"/>
      <point x="348" y="1417" type="line"/>
      <point x="522" y="1402"/>
      <point x="648" y="1300"/>
    </contour>
    <contour>
      <point x="348" y="476" type="line"/>
      <point x="686" y="521"/>
      <point x="845" y="750"/>
      <point x="845" y="1051" type="curve" smooth="yes"/>
      <point x="845" y="1414"/>
      <point x="625" y="1633"/>
      <point x="158" y="1613" type="curve"/>
      <point x="158" y="0" type="line"/>
      <point x="348" y="0" type="line"/>
    </contour>
    <contour>
      <point x="501" y="1700" type="move" name="top"/>
    </contour>
    <contour>
      <point x="501" y="-170" type="move" name="btm"/>
    </contour>
  </outline>
</glyph>
<glyph name="Q" format="1">
  <advance width="1136"/>
  <unicode hex="0051"/>
  <outline>
    <contour>
      <point x="448" y="384" type="line"/>
      <point x="861" y="-73" type="line"/>
      <point x="993" y="34" type="line"/>
      <point x="580" y="491" type="line"/>
    </contour>
    <contour>
      <point x="545" y="1700" type="move" name="top"/>
    </contour>
    <contour>
      <point x="545" y="-170" type="move" name="btm"/>
    </contour>
    <component base="O"/>
  </outline>
</glyph>
<glyph name="R" format="1">
  <advance width="949"/>
  <unicode hex="0052"/>
  <outline>
    <contour>
      <point x="592" y="669" type="line"/>
      <point x="426" y="609" type="line"/>
      <point x="689" y="0" type="line"/>
      <point x="903" y="0" type="line"/>
    </contour>
    <contour>
      <point x="648" y="1061" type="curve" smooth="yes"/>
      <point x="648" y="834"/>
      <point x="522" y="720"/>
      <point x="348" y="705" type="curve"/>
      <point x="348" y="1417" type="line"/>
      <point x="522" y="1402"/>
      <point x="648" y="1288"/>
    </contour>
    <contour>
      <point x="348" y="516" type="line"/>
      <point x="686" y="559"/>
      <point x="845" y="770"/>
      <point x="845" y="1061" type="curve" smooth="yes"/>
      <point x="845" y="1402"/>
      <point x="625" y="1633"/>
      <point x="158" y="1613" type="curve"/>
      <point x="158" y="0" type="line"/>
      <point x="348" y="0" type="line"/>
    </contour>
    <contour>
      <point x="409" y="1700" type="move" name="top"/>
    </contour>
    <contour>
      <point x="531" y="-170" type="move" name="btm"/>
    </contour>
  </outline>
</glyph>
<glyph name="S" format="1">
  <advance width="883"/>
  <unicode hex="0053"/>
  <outline>
    <contour>
      <point x="600" y="352" type="curve" smooth="yes"/>
      <point x="600" y="221"/>
      <point x="506" y="164"/>
      <point x="399" y="164" type="curve" smooth="yes"/>
      <point x="312" y="164"/>
      <point x="241" y="201"/>
      <point x="174" y="239" type="curve"/>
      <point x="87" y="73" type="line"/>
      <point x="165" y="20"/>
      <point x="279" y="-19"/>
      <point x="399" y="-19" type="curve" smooth="yes"/>
      <point x="630" y="-19"/>
      <point x="797" y="128"/>
      <point x="797" y="367" type="curve" smooth="yes"/>
      <point x="797" y="531"/>
      <point x="719" y="639"/>
      <point x="620" y="767" type="curve" smooth="yes"/>
      <point x="429" y="1013" type="line" smooth="yes"/>
      <point x="339" y="1130"/>
      <point x="316" y="1195"/>
      <point x="316" y="1257" type="curve" smooth="yes"/>
      <point x="316" y="1369"/>
      <point x="389" y="1435"/>
      <point x="500" y="1435" type="curve" smooth="yes"/>
      <point x="566" y="1435"/>
      <point x="620" y="1411"/>
      <point x="668" y="1383" type="curve"/>
      <point x="750" y="1538" type="line"/>
      <point x="663" y="1588"/>
      <point x="570" y="1611"/>
      <point x="480" y="1611" type="curve" smooth="yes"/>
      <point x="255" y="1611"/>
      <point x="119" y="1464"/>
      <point x="119" y="1264" type="curve" smooth="yes"/>
      <point x="119" y="1145"/>
      <point x="167" y="1017"/>
      <point x="299" y="854" type="curve" smooth="yes"/>
      <point x="430" y="691" type="line" smooth="yes"/>
      <point x="558" y="533"/>
      <point x="600" y="440"/>
    </contour>
    <contour>
      <point x="442" y="1700" type="move" name="top"/>
    </contour>
    <contour>
      <point x="442" y="-170" type="move" name="btm"/>
    </contour>
  </outline>
</glyph>
<glyph name="T" format="1">
  <advance width="740"/>
  <unicode hex="0054"/>
  <outline>
    <contour>
      <point x="465" y="0" type="line"/>
      <point x="465" y="1525" type="line"/>
      <point x="275" y="1525" type="line"/>
      <point x="275" y="0" type="line"/>
    </contour>
    <contour>
      <point x="20" y="1417" type="line"/>
      <point x="720" y="1417" type="line"/>
      <point x="720" y="1593" type="line"/>
      <point x="20" y="1593" type="line"/>
    </contour>
    <contour>
      <point x="370" y="1700" type="move" name="top"/>
    </contour>
    <contour>
      <point x="370" y="-170" type="move" name="btm"/>
    </contour>
  </outline>
</glyph>
<glyph name="U" format="1">
  <advance width="1119"/>
  <unicode hex="0055"/>
  <outline>
    <contour>
      <point x="559" y="-19" type="curve" smooth="yes"/>
      <point x="799" y="-19"/>
      <point x="941" y="121"/>
      <point x="941" y="443" type="curve" smooth="yes"/>
      <point x="941" y="1593" type="line"/>
      <point x="752" y="1593" type="line"/>
      <point x="752" y="466" type="line" smooth="yes"/>
      <point x="752" y="245"/>
      <point x="681" y="165"/>
      <point x="559" y="165" type="curve" smooth="yes"/>
      <point x="436" y="165"/>
      <point x="366" y="245"/>
      <point x="366" y="466" type="curve" smooth="yes"/>
      <point x="366" y="1593" type="line"/>
      <point x="176" y="1593" type="line"/>
      <point x="176" y="443" type="line" smooth="yes"/>
      <point x="176" y="121"/>
      <point x="319" y="-19"/>
    </contour>
    <contour>
      <point x="559" y="1700" type="move" name="top"/>
    </contour>
    <contour>
      <point x="559" y="-170" type="move" name="btm"/>
    </contour>
  </outline>
</glyph>
<glyph name="V" format="1">
  <advance width="954"/>
  <unicode hex="0056"/>
  <outline>
    <contour>
      <point x="491" y="-30" type="line"/>
      <point x="949" y="1593" type="line"/>
      <point x="745" y="1593" type="line"/>
      <point x="521" y="741" type="line"/>
      <point x="476" y="500" type="line"/>
      <point x="433" y="741" type="line"/>
      <point x="209" y="1593" type="line"/>
      <point x="5" y="1593" type="line"/>
      <point x="463" y="-30" type="line"/>
    </contour>
    <contour>
      <point x="477" y="1700" type="move" name="top"/>
    </contour>
    <contour>
      <point x="477" y="-170" type="move" name="btm"/>
    </contour>
  </outline>
</glyph>
<glyph name="W" format="1">
  <advance width="1221"/>
  <unicode hex="0057"/>
  <outline>
    <contour>
      <point x="500" y="418" type="line"/>
      <point x="610" y="835" type="line"/>
      <point x="721" y="418" type="line"/>
      <point x="887" y="-49" type="line"/>
      <point x="1236" y="1593" type="line"/>
      <point x="1032" y="1593" type="line"/>
      <point x="886" y="836" type="line"/>
      <point x="846" y="531" type="line"/>
      <point x="725" y="992" type="line"/>
      <point x="610" y="1318" type="line"/>
      <point x="501" y="992" type="line"/>
      <point x="374" y="531" type="line"/>
      <point x="335" y="836" type="line"/>
      <point x="189" y="1593" type="line"/>
      <point x="-15" y="1593" type="line"/>
      <point x="334" y="-49" type="line"/>
    </contour>
    <contour>
      <point x="590" y="1700" type="move" name="top"/>
    </contour>
    <contour>
      <point x="590" y="-170" type="move" name="btm"/>
    </contour>
  </outline>
</glyph>
<glyph name="X" format="1">
  <advance width="858"/>
  <unicode hex="0058"/>
  <outline>
    <contour>
      <point x="848" y="0" type="line"/>
      <point x="487" y="879" type="line"/>
      <point x="464" y="911" type="line"/>
      <point x="231" y="1593" type="line"/>
      <point x="31" y="1593" type="line"/>
      <point x="369" y="726" type="line"/>
      <point x="391" y="694" type="line"/>
      <point x="648" y="0" type="line"/>
    </contour>
    <contour>
      <point x="210" y="0" type="line"/>
      <point x="463" y="758" type="line"/>
      <point x="519" y="773" type="line"/>
      <point x="817" y="1593" type="line"/>
      <point x="617" y="1593" type="line"/>
      <point x="386" y="840" type="line"/>
      <point x="349" y="862" type="line"/>
      <point x="10" y="0" type="line"/>
    </contour>
    <contour>
      <point x="424" y="1700" type="move" name="top"/>
    </contour>
    <contour>
      <point x="424" y="-170" type="move" name="btm"/>
    </contour>
  </outline>
</glyph>
<glyph name="Y" format="1">
  <advance width="875"/>
  <unicode hex="0059"/>
  <outline>
    <contour>
      <point x="531" y="0" type="line"/>
      <point x="531" y="536" type="line"/>
      <point x="870" y="1594" type="line"/>
      <point x="666" y="1594" type="line"/>
      <point x="437" y="808" type="line"/>
      <point x="209" y="1594" type="line"/>
      <point x="5" y="1594" type="line"/>
      <point x="341" y="543" type="line"/>
      <point x="341" y="0" type="line"/>
    </contour>
    <contour>
      <point x="437" y="1700" type="move" name="top"/>
    </contour>
    <contour>
      <point x="437" y="-170" type="move" name="btm"/>
    </contour>
  </outline>
</glyph>
<glyph name="Z" format="1">
  <advance width="879"/>
  <unicode hex="005A"/>
  <outline>
    <contour>
      <point x="154" y="1417" type="line"/>
      <point x="576" y="1417" type="line"/>
      <point x="118" y="0" type="line"/>
      <point x="829" y="0" type="line"/>
      <point x="829" y="176" type="line"/>
      <point x="371" y="176" type="line"/>
      <point x="829" y="1593" type="line"/>
      <point x="154" y="1593" type="line"/>
    </contour>
    <contour>
      <point x="473" y="1700" type="move" name="top"/>
    </contour>
    <contour>
      <point x="473" y="-170" type="move" name="btm"/>
    </contour>
  </outline>
</glyph>
<glyph name="bracketleft" format="1">
  <advance width="692"/>
  <unicode hex="005B"/>
  <outline>
    <contour>
      <point x="538" y="-158" type="line"/>
      <point x="538" y="0" type="line"/>
      <point x="359" y="0" type="line"/>
      <point x="359" y="1593" type="line"/>
      <point x="538" y="1593" type="line"/>
      <point x="538" y="1751" type="line"/>
      <point x="188" y="1751" type="line"/>
      <point x="188" y="-158" type="line"/>
    </contour>
  </outline>
</glyph>
<glyph name="backslash" format="1">
  <advance width="881"/>
  <unicode hex="005C"/>
  <outline>
    <contour>
      <point x="785" y="34" type="line"/>
      <point x="234" y="1612" type="line"/>
      <point x="78" y="1559" type="line"/>
      <point x="630" y="-19" type="line"/>
    </contour>
  </outline>
</glyph>
<glyph name="bracketright" format="1">
  <advance width="692"/>
  <unicode hex="005D"/>
  <outline>
    <contour>
      <point x="503" y="-158" type="line"/>
      <point x="503" y="1751" type="line"/>
      <point x="153" y="1751" type="line"/>
      <point x="153" y="1593" type="line"/>
      <point x="331" y="1593" type="line"/>
      <point x="331" y="0" type="line"/>
      <point x="153" y="0" type="line"/>
      <point x="153" y="-158" type="line"/>
    </contour>
  </outline>
</glyph>
<glyph name="asciicircum" format="1">
  <advance width="1186"/>
  <unicode hex="005E"/>
  <outline>
    <contour>
      <point x="593" y="1092" type="line"/>
      <point x="930" y="516" type="line"/>
      <point x="1061" y="594" type="line"/>
      <point x="593" y="1380" type="line"/>
      <point x="125" y="594" type="line"/>
      <point x="256" y="516" type="line"/>
    </contour>
  </outline>
</glyph>
<glyph name="underscore" format="1">
  <advance width="1050"/>
  <unicode hex="005F"/>
  <outline>
    <contour>
      <point x="1100" y="-353" type="line"/>
      <point x="1100" y="-205" type="line"/>
      <point x="-50" y="-205" type="line"/>
      <point x="-50" y="-353" type="line"/>
    </contour>
  </outline>
</glyph>
<glyph name="grave" format="1">
  <advance width="668"/>
  <unicode hex="0060"/>
  <outline>
    <contour>
      <point x="446" y="1206" type="line"/>
      <point x="545" y="1329" type="line"/>
      <point x="166" y="1631" type="line"/>
      <point x="67" y="1508" type="line"/>
    </contour>
    <contour>
      <point x="333" y="1700" type="move" name="_top"/>
    </contour>
  </outline>
</glyph>
<glyph name="a" format="1">
  <advance width="881"/>
  <unicode hex="0061"/>
  <outline>
    <contour>
      <point x="762" y="-19" type="line"/>
      <point x="762" y="719" type="line" smooth="yes"/>
      <point x="762" y="945"/>
      <point x="632" y="1081"/>
      <point x="435" y="1081" type="curve" smooth="yes"/>
      <point x="360" y="1081"/>
      <point x="238" y="1061"/>
      <point x="153" y="1019" type="curve"/>
      <point x="222" y="859" type="line"/>
      <point x="280" y="891"/>
      <point x="359" y="912"/>
      <point x="413" y="912" type="curve" smooth="yes"/>
      <point x="517" y="912"/>
      <point x="582" y="836"/>
      <point x="582" y="712" type="curve" smooth="yes"/>
      <point x="582" y="95" type="line"/>
      <point x="667" y="-19" type="line"/>
    </contour>
    <contour>
      <point x="608" y="247" type="line"/>
      <point x="603" y="201"/>
      <point x="533" y="156"/>
      <point x="461" y="156" type="curve" smooth="yes"/>
      <point x="369" y="156"/>
      <point x="286" y="230"/>
      <point x="286" y="329" type="curve" smooth="yes"/>
      <point x="286" y="457"/>
      <point x="410" y="534"/>
      <point x="583" y="531" type="curve"/>
      <point x="732" y="531" type="line"/>
      <point x="732" y="690" type="line"/>
      <point x="582" y="691" type="line"/>
      <point x="280" y="676"/>
      <point x="101" y="547"/>
      <point x="101" y="332" type="curve" smooth="yes"/>
      <point x="101" y="136"/>
      <point x="254" y="-19"/>
      <point x="439" y="-19" type="curve" smooth="yes"/>
      <point x="608" y="-19"/>
      <point x="735" y="109"/>
      <point x="735" y="267" type="curve"/>
    </contour>
    <contour>
      <point x="431" y="1700" type="move" name="top"/>
    </contour>
    <contour>
      <point x="431" y="-170" type="move" name="btm"/>
    </contour>
  </outline>
</glyph>
<glyph name="b" format="1">
  <advance width="965"/>
  <unicode hex="0062"/>
  <outline>
    <contour>
      <point x="135" y="-19" type="line"/>
      <point x="234" y="-19" type="line"/>
      <point x="316" y="110" type="line"/>
      <point x="316" y="1593" type="line"/>
      <point x="135" y="1593" type="line"/>
    </contour>
    <contour>
      <point x="290" y="255" type="curve"/>
      <point x="186" y="219" type="line"/>
      <point x="230" y="70"/>
      <point x="343" y="-19"/>
      <point x="480" y="-19" type="curve" smooth="yes"/>
      <point x="690" y="-19"/>
      <point x="869" y="156"/>
      <point x="869" y="541" type="curve" smooth="yes"/>
      <point x="869" y="926"/>
      <point x="690" y="1081"/>
      <point x="480" y="1081" type="curve" smooth="yes"/>
      <point x="343" y="1081"/>
      <point x="230" y="992"/>
      <point x="186" y="843" type="curve"/>
      <point x="290" y="807" type="line"/>
      <point x="328" y="874"/>
      <point x="393" y="913"/>
      <point x="468" y="913" type="curve" smooth="yes"/>
      <point x="579" y="913"/>
      <point x="684" y="839"/>
      <point x="684" y="541" type="curve" smooth="yes"/>
      <point x="684" y="243"/>
      <point x="579" y="149"/>
      <point x="468" y="149" type="curve" smooth="yes"/>
      <point x="393" y="149"/>
      <point x="328" y="188"/>
    </contour>
    <contour>
      <point x="594" y="1700" type="move" name="top"/>
    </contour>
    <contour>
      <point x="501" y="-170" type="move" name="btm"/>
    </contour>
  </outline>
</glyph>
<glyph name="c" format="1">
  <advance width="764"/>
  <unicode hex="0063"/>
  <outline>
    <contour>
      <point x="282" y="531" type="curve"/>
      <point x="282" y="804"/>
      <point x="387" y="906"/>
      <point x="494" y="906" type="curve" smooth="yes"/>
      <point x="547" y="906"/>
      <point x="601" y="885"/>
      <point x="639" y="862" type="curve"/>
      <point x="716" y="1017" type="line"/>
      <point x="657" y="1052"/>
      <point x="576" y="1081"/>
      <point x="494" y="1081" type="curve" smooth="yes"/>
      <point x="268" y="1081"/>
      <point x="97" y="899"/>
      <point x="97" y="531" type="curve" smooth="yes"/>
      <point x="97" y="163"/>
      <point x="268" y="-19"/>
      <point x="494" y="-19" type="curve" smooth="yes"/>
      <point x="576" y="-19"/>
      <point x="657" y="10"/>
      <point x="716" y="45" type="curve"/>
      <point x="639" y="200" type="line"/>
      <point x="601" y="177"/>
      <point x="547" y="156"/>
      <point x="494" y="156" type="curve" smooth="yes"/>
      <point x="387" y="156"/>
      <point x="282" y="258"/>
    </contour>
    <contour>
      <point x="406" y="1700" type="move" name="top"/>
    </contour>
    <contour>
      <point x="406" y="-170" type="move" name="btm"/>
    </contour>
  </outline>
</glyph>
<glyph name="d" format="1">
  <advance width="962"/>
  <unicode hex="0064"/>
  <outline>
    <contour>
      <point x="835" y="1593" type="line"/>
      <point x="653" y="1593" type="line"/>
      <point x="653" y="104" type="line"/>
      <point x="835" y="-23" type="line"/>
    </contour>
    <contour>
      <point x="99" y="521" type="curve" smooth="yes"/>
      <point x="99" y="136"/>
      <point x="277" y="-19"/>
      <point x="488" y="-19" type="curve" smooth="yes"/>
      <point x="625" y="-19"/>
      <point x="738" y="70"/>
      <point x="782" y="219" type="curve"/>
      <point x="678" y="255" type="line"/>
      <point x="640" y="188"/>
      <point x="575" y="149"/>
      <point x="500" y="149" type="curve" smooth="yes"/>
      <point x="389" y="149"/>
      <point x="284" y="223"/>
      <point x="284" y="521" type="curve" smooth="yes"/>
      <point x="284" y="819"/>
      <point x="389" y="913"/>
      <point x="500" y="913" type="curve" smooth="yes"/>
      <point x="575" y="913"/>
      <point x="640" y="874"/>
      <point x="678" y="807" type="curve"/>
      <point x="782" y="843" type="line"/>
      <point x="738" y="992"/>
      <point x="625" y="1081"/>
      <point x="488" y="1081" type="curve" smooth="yes"/>
      <point x="277" y="1081"/>
      <point x="99" y="906"/>
    </contour>
    <contour>
      <point x="352" y="1700" type="move" name="top"/>
    </contour>
    <contour>
      <point x="465" y="-170" type="move" name="btm"/>
    </contour>
  </outline>
</glyph>
<glyph name="e" format="1">
  <advance width="917"/>
  <unicode hex="0065"/>
  <outline>
    <contour>
      <point x="282" y="540" type="curve" smooth="yes"/>
      <point x="282" y="781"/>
      <point x="375" y="906"/>
      <point x="498" y="906" type="curve" smooth="yes"/>
      <point x="587" y="906"/>
      <point x="661" y="847"/>
      <point x="646" y="623" type="curve"/>
      <point x="251" y="623" type="line"/>
      <point x="251" y="456" type="line"/>
      <point x="813" y="455" type="line"/>
      <point x="885" y="833"/>
      <point x="753" y="1081"/>
      <point x="502" y="1081" type="curve" smooth="yes"/>
      <point x="290" y="1081"/>
      <point x="97" y="899"/>
      <point x="97" y="538" type="curve" smooth="yes"/>
      <point x="97" y="187"/>
      <point x="278" y="-19"/>
      <point x="523" y="-19" type="curve" smooth="yes"/>
      <point x="625" y="-19"/>
      <point x="734" y="15"/>
      <point x="798" y="53" type="curve"/>
      <point x="728" y="205" type="line"/>
      <point x="692" y="180"/>
      <point x="615" y="150"/>
      <point x="544" y="150" type="curve" smooth="yes"/>
      <point x="421" y="150"/>
      <point x="282" y="244"/>
    </contour>
    <contour>
      <point x="445" y="1700" type="move" name="top"/>
    </contour>
    <contour>
      <point x="445" y="-170" type="move" name="btm"/>
    </contour>
  </outline>
</glyph>
<glyph name="f" format="1">
  <advance width="560"/>
  <unicode hex="0066"/>
  <outline>
    <contour>
      <point x="345" y="0" type="line"/>
      <point x="345" y="1280" type="line" smooth="yes"/>
      <point x="345" y="1362"/>
      <point x="404" y="1447"/>
      <point x="532" y="1437" type="curve"/>
      <point x="532" y="1612" type="line"/>
      <point x="308" y="1624"/>
      <point x="163" y="1468"/>
      <point x="163" y="1282" type="curve" smooth="yes"/>
      <point x="163" y="0" type="line"/>
    </contour>
    <contour>
      <point x="526" y="894" type="line"/>
      <point x="526" y="1062" type="line"/>
      <point x="80" y="1062" type="line"/>
      <point x="80" y="894" type="line"/>
    </contour>
    <contour>
      <point x="260" y="2020" type="move" name="top"/>
    </contour>
    <contour>
      <point x="306" y="-170" type="move" name="btm"/>
    </contour>
  </outline>
</glyph>
<glyph name="g" format="1">
  <advance width="969"/>
  <unicode hex="0067"/>
  <outline>
    <contour>
      <point x="816" y="1082" type="line"/>
      <point x="696" y="1081" type="line"/>
      <point x="634" y="966" type="line"/>
      <point x="634" y="43" type="line" smooth="yes"/>
      <point x="634" y="-75"/>
      <point x="564" y="-194"/>
      <point x="294" y="-220" type="curve"/>
      <point x="383" y="-364" type="line"/>
      <point x="692" y="-345"/>
      <point x="816" y="-140"/>
      <point x="816" y="43" type="curve" smooth="yes"/>
    </contour>
    <contour>
      <point x="272" y="542" type="curve" smooth="yes"/>
      <point x="272" y="824"/>
      <point x="377" y="916"/>
      <point x="488" y="916" type="curve" smooth="yes"/>
      <point x="563" y="916"/>
      <point x="628" y="877"/>
      <point x="666" y="810" type="curve"/>
      <point x="770" y="846" type="line"/>
      <point x="723" y="998"/>
      <point x="615" y="1084"/>
      <point x="468" y="1084" type="curve" smooth="yes"/>
      <point x="269" y="1084"/>
      <point x="87" y="913"/>
      <point x="87" y="542" type="curve" smooth="yes"/>
      <point x="87" y="171"/>
      <point x="269" y="20"/>
      <point x="468" y="20" type="curve" smooth="yes"/>
      <point x="615" y="20"/>
      <point x="723" y="106"/>
      <point x="770" y="258" type="curve"/>
      <point x="666" y="294" type="line"/>
      <point x="628" y="227"/>
      <point x="563" y="188"/>
      <point x="488" y="188" type="curve" smooth="yes"/>
      <point x="377" y="188"/>
      <point x="272" y="260"/>
    </contour>
    <contour>
      <point x="461" y="1700" type="move" name="top"/>
    </contour>
    <contour>
      <point x="461" y="-170" type="move" name="btm"/>
    </contour>
  </outline>
</glyph>
<glyph name="h" format="1">
  <advance width="1012"/>
  <unicode hex="0068"/>
  <outline>
    <contour>
      <point x="153" y="0" type="line"/>
      <point x="334" y="0" type="line"/>
      <point x="334" y="1593" type="line"/>
      <point x="153" y="1593" type="line"/>
    </contour>
    <contour>
      <point x="296" y="741" type="line"/>
      <point x="351" y="848"/>
      <point x="446" y="897"/>
      <point x="526" y="897" type="curve" smooth="yes"/>
      <point x="636" y="897"/>
      <point x="693" y="822"/>
      <point x="693" y="686" type="curve" smooth="yes"/>
      <point x="693" y="0" type="line"/>
      <point x="875" y="0" type="line"/>
      <point x="875" y="688" type="line" smooth="yes"/>
      <point x="875" y="939"/>
      <point x="763" y="1078"/>
      <point x="547" y="1078" type="curve" smooth="yes"/>
      <point x="434" y="1078"/>
      <point x="308" y="1000"/>
      <point x="261" y="917" type="curve"/>
    </contour>
    <contour>
      <point x="514" y="1700" type="move" name="top"/>
    </contour>
    <contour>
      <point x="514" y="-170" type="move" name="btm"/>
    </contour>
  </outline>
</glyph>
<glyph name="i" format="1">
  <advance width="526"/>
  <unicode hex="0069"/>
  <outline>
    <contour>
      <point x="354" y="0" type="line"/>
      <point x="354" y="1062" type="line"/>
      <point x="172" y="1062" type="line"/>
      <point x="172" y="0" type="line"/>
    </contour>
    <contour>
      <point x="401" y="1368" type="curve" smooth="yes"/>
      <point x="401" y="1434"/>
      <point x="349" y="1492"/>
      <point x="269" y="1492" type="curve" smooth="yes"/>
      <point x="190" y="1492"/>
      <point x="138" y="1434"/>
      <point x="138" y="1368" type="curve" smooth="yes"/>
      <point x="138" y="1302"/>
      <point x="190" y="1244"/>
      <point x="269" y="1244" type="curve" smooth="yes"/>
      <point x="349" y="1244"/>
      <point x="401" y="1302"/>
    </contour>
    <contour>
      <point x="269" y="1700" type="move" name="top"/>
    </contour>
    <contour>
      <point x="269" y="-170" type="move" name="btm"/>
    </contour>
  </outline>
</glyph>
<glyph name="j" format="1">
  <advance width="526"/>
  <unicode hex="006A"/>
  <outline>
    <contour>
      <point x="410" y="1368" type="curve" smooth="yes"/>
      <point x="410" y="1434"/>
      <point x="357" y="1492"/>
      <point x="278" y="1492" type="curve" smooth="yes"/>
      <point x="198" y="1492"/>
      <point x="146" y="1434"/>
      <point x="146" y="1368" type="curve" smooth="yes"/>
      <point x="146" y="1302"/>
      <point x="198" y="1244"/>
      <point x="278" y="1244" type="curve" smooth="yes"/>
      <point x="357" y="1244"/>
      <point x="410" y="1302"/>
    </contour>
    <contour>
      <point x="366" y="1062" type="line"/>
      <point x="184" y="1062" type="line"/>
      <point x="184" y="123" type="line" smooth="yes"/>
      <point x="184" y="-19"/>
      <point x="147" y="-124"/>
      <point x="15" y="-210" type="curve"/>
      <point x="104" y="-354" type="line"/>
      <point x="298" y="-248"/>
      <point x="366" y="-83"/>
      <point x="366" y="123" type="curve" smooth="yes"/>
    </contour>
    <contour>
      <point x="242" y="1700" type="move" name="top"/>
    </contour>
    <contour>
      <point x="242" y="-170" type="move" name="btm"/>
    </contour>
  </outline>
</glyph>
<glyph name="k" format="1">
  <advance width="867"/>
  <unicode hex="006B"/>
  <outline>
    <contour>
      <point x="334" y="0" type="line"/>
      <point x="334" y="1593" type="line"/>
      <point x="153" y="1593" type="line"/>
      <point x="153" y="0" type="line"/>
    </contour>
    <contour>
      <point x="440" y="433" type="line"/>
      <point x="830" y="1062" type="line"/>
      <point x="636" y="1062" type="line"/>
      <point x="316" y="539" type="line"/>
    </contour>
    <contour>
      <point x="884" y="0" type="line"/>
      <point x="470" y="603" type="line"/>
      <point x="282" y="559" type="line"/>
      <point x="660" y="0" type="line"/>
    </contour>
    <contour>
      <point x="518" y="1700" type="move" name="top"/>
    </contour>
    <contour>
      <point x="518" y="-170" type="move" name="btm"/>
    </contour>
  </outline>
</glyph>
<glyph name="l" format="1">
  <advance width="525"/>
  <unicode hex="006C"/>
  <outline>
    <contour>
      <point x="353" y="0" type="line"/>
      <point x="353" y="1593" type="line"/>
      <point x="172" y="1593" type="line"/>
      <point x="172" y="0" type="line"/>
    </contour>
    <contour>
      <point x="263" y="1700" type="move" name="top"/>
    </contour>
    <contour>
      <point x="263" y="-170" type="move" name="btm"/>
    </contour>
  </outline>
</glyph>
<glyph name="m" format="1">
  <advance width="1548"/>
  <unicode hex="006D"/>
  <outline>
    <contour>
      <point x="160" y="0" type="line"/>
      <point x="341" y="0" type="line"/>
      <point x="341" y="954" type="line"/>
      <point x="276" y="1081" type="line"/>
      <point x="160" y="1081" type="line"/>
    </contour>
    <contour>
      <point x="292" y="751" type="line"/>
      <point x="348" y="858"/>
      <point x="442" y="897"/>
      <point x="523" y="897" type="curve" smooth="yes"/>
      <point x="633" y="897"/>
      <point x="690" y="822"/>
      <point x="690" y="686" type="curve" smooth="yes"/>
      <point x="690" y="0" type="line"/>
      <point x="872" y="0" type="line"/>
      <point x="872" y="890" type="line"/>
      <point x="840" y="888" type="line"/>
      <point x="793" y="1012"/>
      <point x="693" y="1078"/>
      <point x="543" y="1078" type="curve" smooth="yes"/>
      <point x="431" y="1078"/>
      <point x="305" y="997"/>
      <point x="258" y="914" type="curve"/>
    </contour>
    <contour>
      <point x="824" y="751" type="line"/>
      <point x="879" y="858"/>
      <point x="974" y="897"/>
      <point x="1054" y="897" type="curve" smooth="yes"/>
      <point x="1165" y="897"/>
      <point x="1222" y="822"/>
      <point x="1222" y="686" type="curve" smooth="yes"/>
      <point x="1222" y="0" type="line"/>
      <point x="1403" y="0" type="line"/>
      <point x="1403" y="688" type="line" smooth="yes"/>
      <point x="1403" y="939"/>
      <point x="1291" y="1078"/>
      <point x="1075" y="1078" type="curve" smooth="yes"/>
      <point x="963" y="1078"/>
      <point x="836" y="997"/>
      <point x="789" y="914" type="curve"/>
    </contour>
    <contour>
      <point x="774" y="1700" type="move" name="top"/>
    </contour>
    <contour>
      <point x="774" y="-170" type="move" name="btm"/>
    </contour>
  </outline>
</glyph>
<glyph name="n" format="1">
  <advance width="1027"/>
  <unicode hex="006E"/>
  <outline>
    <contour>
      <point x="160" y="0" type="line"/>
      <point x="341" y="0" type="line"/>
      <point x="341" y="954" type="line"/>
      <point x="281" y="1081" type="line"/>
      <point x="160" y="1081" type="line"/>
    </contour>
    <contour>
      <point x="303" y="751" type="line"/>
      <point x="358" y="858"/>
      <point x="453" y="897"/>
      <point x="533" y="897" type="curve" smooth="yes"/>
      <point x="643" y="897"/>
      <point x="700" y="822"/>
      <point x="700" y="686" type="curve" smooth="yes"/>
      <point x="700" y="0" type="line"/>
      <point x="882" y="0" type="line"/>
      <point x="882" y="688" type="line" smooth="yes"/>
      <point x="882" y="939"/>
      <point x="770" y="1078"/>
      <point x="554" y="1078" type="curve" smooth="yes"/>
      <point x="441" y="1078"/>
      <point x="315" y="1000"/>
      <point x="268" y="917" type="curve"/>
    </contour>
    <contour>
      <point x="514" y="1700" type="move" name="top"/>
    </contour>
    <contour>
      <point x="514" y="-170" type="move" name="btm"/>
    </contour>
  </outline>
</glyph>
<glyph name="o" format="1">
  <advance width="969"/>
  <unicode hex="006F"/>
  <outline>
    <contour>
      <point x="484" y="156" type="curve" smooth="yes"/>
      <point x="377" y="156"/>
      <point x="282" y="243"/>
      <point x="282" y="531" type="curve" smooth="yes"/>
      <point x="282" y="819"/>
      <point x="377" y="906"/>
      <point x="484" y="906" type="curve" smooth="yes"/>
      <point x="591" y="906"/>
      <point x="686" y="819"/>
      <point x="686" y="531" type="curve" smooth="yes"/>
      <point x="686" y="243"/>
      <point x="591" y="156"/>
    </contour>
    <contour>
      <point x="484" y="-19" type="curve" smooth="yes"/>
      <point x="709" y="-19"/>
      <point x="876" y="163"/>
      <point x="876" y="531" type="curve" smooth="yes"/>
      <point x="876" y="899"/>
      <point x="709" y="1081"/>
      <point x="484" y="1081" type="curve" smooth="yes"/>
      <point x="259" y="1081"/>
      <point x="93" y="899"/>
      <point x="93" y="531" type="curve" smooth="yes"/>
      <point x="93" y="163"/>
      <point x="259" y="-19"/>
    </contour>
    <contour>
      <point x="484" y="1700" type="move" name="top"/>
    </contour>
    <contour>
      <point x="484" y="-170" type="move" name="btm"/>
    </contour>
  </outline>
</glyph>
<glyph name="p" format="1">
  <advance width="975"/>
  <unicode hex="0070"/>
  <outline>
    <contour>
      <point x="153" y="-354" type="line"/>
      <point x="334" y="-354" type="line"/>
      <point x="334" y="925" type="line"/>
      <point x="273" y="1082" type="line"/>
      <point x="153" y="1082" type="line"/>
    </contour>
    <contour>
      <point x="310" y="255" type="curve"/>
      <point x="206" y="219" type="line"/>
      <point x="250" y="70"/>
      <point x="363" y="-19"/>
      <point x="500" y="-19" type="curve" smooth="yes"/>
      <point x="710" y="-19"/>
      <point x="889" y="156"/>
      <point x="889" y="541" type="curve" smooth="yes"/>
      <point x="889" y="926"/>
      <point x="710" y="1081"/>
      <point x="500" y="1081" type="curve" smooth="yes"/>
      <point x="363" y="1081"/>
      <point x="250" y="992"/>
      <point x="206" y="843" type="curve"/>
      <point x="310" y="807" type="line"/>
      <point x="348" y="874"/>
      <point x="413" y="913"/>
      <point x="488" y="913" type="curve" smooth="yes"/>
      <point x="599" y="913"/>
      <point x="704" y="839"/>
      <point x="704" y="541" type="curve" smooth="yes"/>
      <point x="704" y="243"/>
      <point x="599" y="149"/>
      <point x="488" y="149" type="curve" smooth="yes"/>
      <point x="413" y="149"/>
      <point x="348" y="188"/>
    </contour>
    <contour>
      <point x="511" y="1700" type="move" name="top"/>
    </contour>
    <contour>
      <point x="511" y="-170" type="move" name="btm"/>
    </contour>
  </outline>
</glyph>
<glyph name="q" format="1">
  <advance width="969"/>
  <unicode hex="0071"/>
  <outline>
    <contour>
      <point x="816" y="1082" type="line"/>
      <point x="703" y="1081" type="line"/>
      <point x="634" y="985" type="line"/>
      <point x="634" y="-354" type="line"/>
      <point x="816" y="-354" type="line"/>
    </contour>
    <contour>
      <point x="107" y="521" type="curve" smooth="yes"/>
      <point x="107" y="136"/>
      <point x="285" y="-19"/>
      <point x="496" y="-19" type="curve" smooth="yes"/>
      <point x="633" y="-19"/>
      <point x="746" y="70"/>
      <point x="790" y="219" type="curve"/>
      <point x="686" y="255" type="line"/>
      <point x="648" y="188"/>
      <point x="583" y="149"/>
      <point x="508" y="149" type="curve" smooth="yes"/>
      <point x="397" y="149"/>
      <point x="292" y="223"/>
      <point x="292" y="521" type="curve" smooth="yes"/>
      <point x="292" y="819"/>
      <point x="397" y="913"/>
      <point x="508" y="913" type="curve" smooth="yes"/>
      <point x="583" y="913"/>
      <point x="648" y="874"/>
      <point x="686" y="807" type="curve"/>
      <point x="790" y="843" type="line"/>
      <point x="746" y="992"/>
      <point x="633" y="1081"/>
      <point x="496" y="1081" type="curve" smooth="yes"/>
      <point x="285" y="1081"/>
      <point x="107" y="906"/>
    </contour>
    <contour>
      <point x="461" y="1700" type="move" name="top"/>
    </contour>
    <contour>
      <point x="461" y="-170" type="move" name="btm"/>
    </contour>
  </outline>
</glyph>
<glyph name="r" format="1">
  <advance width="654"/>
  <unicode hex="0072"/>
  <outline>
    <contour>
      <point x="153" y="0" type="line"/>
      <point x="340" y="0" type="line"/>
      <point x="340" y="874" type="line"/>
      <point x="270" y="1081" type="line"/>
      <point x="153" y="1081" type="line"/>
    </contour>
    <contour>
      <point x="261" y="739" type="line"/>
      <point x="320" y="826"/>
      <point x="427" y="883"/>
      <point x="593" y="883" type="curve"/>
      <point x="593" y="1079" type="line"/>
      <point x="470" y="1079"/>
      <point x="353" y="1022"/>
      <point x="261" y="937" type="curve"/>
    </contour>
    <contour>
      <point x="372" y="1700" type="move" name="top"/>
    </contour>
    <contour>
      <point x="250" y="-170" type="move" name="btm"/>
    </contour>
  </outline>
</glyph>
<glyph name="s" format="1">
  <advance width="779"/>
  <unicode hex="0073"/>
  <outline>
    <contour>
      <point x="505" y="271" type="curve" smooth="yes"/>
      <point x="505" y="200"/>
      <point x="449" y="153"/>
      <point x="367" y="153" type="curve" smooth="yes"/>
      <point x="304" y="153"/>
      <point x="236" y="176"/>
      <point x="183" y="210" type="curve"/>
      <point x="113" y="53" type="line"/>
      <point x="181" y="12"/>
      <point x="261" y="-18"/>
      <point x="363" y="-18" type="curve" smooth="yes"/>
      <point x="551" y="-18"/>
      <point x="691" y="107"/>
      <point x="691" y="272" type="curve" smooth="yes"/>
      <point x="691" y="393"/>
      <point x="638" y="485"/>
      <point x="496" y="599" type="curve" smooth="yes"/>
      <point x="417" y="663" type="line" smooth="yes"/>
      <point x="342" y="723"/>
      <point x="316" y="763"/>
      <point x="316" y="808" type="curve" smooth="yes"/>
      <point x="316" y="863"/>
      <point x="361" y="912"/>
      <point x="436" y="912" type="curve" smooth="yes"/>
      <point x="489" y="912"/>
      <point x="542" y="897"/>
      <point x="592" y="861" type="curve"/>
      <point x="668" y="1027" type="line"/>
      <point x="591" y="1065"/>
      <point x="519" y="1081"/>
      <point x="440" y="1081" type="curve" smooth="yes"/>
      <point x="259" y="1081"/>
      <point x="132" y="951"/>
      <point x="132" y="802" type="curve" smooth="yes"/>
      <point x="132" y="690"/>
      <point x="187" y="591"/>
      <point x="303" y="504" type="curve" smooth="yes"/>
      <point x="372" y="450" type="line" smooth="yes"/>
      <point x="441" y="396"/>
      <point x="505" y="345"/>
    </contour>
    <contour>
      <point x="392" y="1700" type="move" name="top"/>
    </contour>
    <contour>
      <point x="410" y="-170" type="move" name="btm"/>
    </contour>
  </outline>
</glyph>
<glyph name="t" format="1">
  <advance width="625"/>
  <unicode hex="0074"/>
  <outline>
    <contour>
      <point x="181" y="1416" type="line"/>
      <point x="181" y="322" type="line" smooth="yes"/>
      <point x="181" y="99"/>
      <point x="264" y="-20"/>
      <point x="550" y="-18" type="curve"/>
      <point x="550" y="160" type="line"/>
      <point x="381" y="153"/>
      <point x="362" y="220"/>
      <point x="362" y="320" type="curve" smooth="yes"/>
      <point x="362" y="1416" type="line"/>
    </contour>
    <contour>
      <point x="535" y="894" type="line"/>
      <point x="535" y="1062" type="line"/>
      <point x="100" y="1062" type="line"/>
      <point x="100" y="894" type="line"/>
    </contour>
    <contour>
      <point x="268" y="1941" type="move" name="top"/>
    </contour>
    <contour>
      <point x="396" y="-170" type="move" name="btm"/>
    </contour>
  </outline>
</glyph>
<glyph name="u" format="1">
  <advance width="1011"/>
  <unicode hex="0075"/>
  <outline>
    <contour>
      <point x="858" y="1062" type="line"/>
      <point x="676" y="1062" type="line"/>
      <point x="676" y="127" type="line"/>
      <point x="745" y="-20" type="line"/>
      <point x="858" y="-20" type="line"/>
    </contour>
    <contour>
      <point x="710" y="305" type="line"/>
      <point x="676" y="220"/>
      <point x="601" y="161"/>
      <point x="501" y="161" type="curve" smooth="yes"/>
      <point x="391" y="161"/>
      <point x="334" y="207"/>
      <point x="334" y="347" type="curve" smooth="yes"/>
      <point x="334" y="1062" type="line"/>
      <point x="153" y="1062" type="line"/>
      <point x="153" y="327" type="line" smooth="yes"/>
      <point x="153" y="102"/>
      <point x="289" y="-18"/>
      <point x="458" y="-18" type="curve" smooth="yes"/>
      <point x="591" y="-18"/>
      <point x="701" y="61"/>
      <point x="754" y="146" type="curve"/>
    </contour>
    <contour>
      <point x="505" y="1700" type="move" name="top"/>
    </contour>
    <contour>
      <point x="505" y="-170" type="move" name="btm"/>
    </contour>
  </outline>
</glyph>
<glyph name="v" format="1">
  <advance width="820"/>
  <unicode hex="0076"/>
  <outline>
    <contour>
      <point x="800" y="1062" type="line"/>
      <point x="609" y="1062" type="line"/>
      <point x="459" y="601" type="line"/>
      <point x="413" y="411" type="line"/>
      <point x="366" y="601" type="line"/>
      <point x="213" y="1062" type="line"/>
      <point x="20" y="1062" type="line"/>
      <point x="412" y="-79" type="line"/>
    </contour>
    <contour>
      <point x="409" y="1700" type="move" name="top"/>
    </contour>
    <contour>
      <point x="409" y="-170" type="move" name="btm"/>
    </contour>
  </outline>
</glyph>
<glyph name="w" format="1">
  <advance width="1196"/>
  <unicode hex="0077"/>
  <outline>
    <contour>
      <point x="858" y="-61" type="line"/>
      <point x="1176" y="1062" type="line"/>
      <point x="983" y="1062" type="line"/>
      <point x="860" y="598" type="line"/>
      <point x="822" y="392" type="line"/>
      <point x="741" y="600" type="line"/>
      <point x="598" y="882" type="line"/>
      <point x="471" y="600" type="line"/>
      <point x="382" y="392" type="line"/>
      <point x="339" y="600" type="line"/>
      <point x="213" y="1062" type="line"/>
      <point x="20" y="1062" type="line"/>
      <point x="338" y="-61" type="line"/>
      <point x="509" y="277" type="line"/>
      <point x="601" y="503" type="line"/>
      <point x="702" y="276" type="line"/>
    </contour>
    <contour>
      <point x="548" y="1700" type="move" name="top"/>
    </contour>
    <contour>
      <point x="548" y="-170" type="move" name="btm"/>
    </contour>
  </outline>
</glyph>
<glyph name="x" format="1">
  <advance width="833"/>
  <unicode hex="0078"/>
  <outline>
    <contour>
      <point x="792" y="0" type="line"/>
      <point x="255" y="1062" type="line"/>
      <point x="61" y="1062" type="line"/>
      <point x="599" y="0" type="line"/>
    </contour>
    <contour>
      <point x="234" y="0" type="line"/>
      <point x="477" y="466" type="line"/>
      <point x="498" y="487" type="line"/>
      <point x="772" y="1062" type="line"/>
      <point x="578" y="1062" type="line"/>
      <point x="396" y="648" type="line"/>
      <point x="373" y="630" type="line"/>
      <point x="41" y="0" type="line"/>
    </contour>
    <contour>
      <point x="416" y="1700" type="move" name="top"/>
    </contour>
    <contour>
      <point x="416" y="-170" type="move" name="btm"/>
    </contour>
  </outline>
</glyph>
<glyph name="y" format="1">
  <advance width="842"/>
  <unicode hex="0079"/>
  <outline>
    <contour>
      <point x="822" y="1062" type="line"/>
      <point x="628" y="1062" type="line"/>
      <point x="487" y="521" type="line"/>
      <point x="439" y="247" type="line"/>
      <point x="387" y="522" type="line"/>
      <point x="234" y="1062" type="line"/>
      <point x="41" y="1062" type="line"/>
      <point x="357" y="45" type="line"/>
      <point x="346" y="-61"/>
      <point x="294" y="-129"/>
      <point x="189" y="-210" type="curve"/>
      <point x="277" y="-354" type="line"/>
      <point x="431" y="-244"/>
      <point x="480" y="-164"/>
      <point x="557" y="110" type="curve" smooth="yes"/>
    </contour>
    <contour>
      <point x="431" y="1700" type="move" name="top"/>
    </contour>
    <contour>
      <point x="431" y="-170" type="move" name="btm"/>
    </contour>
  </outline>
</glyph>
<glyph name="z" format="1">
  <advance width="883"/>
  <unicode hex="007A"/>
  <outline>
    <contour>
      <point x="766" y="0" type="line"/>
      <point x="766" y="168" type="line"/>
      <point x="370" y="168" type="line"/>
      <point x="798" y="1062" type="line"/>
      <point x="171" y="1062" type="line"/>
      <point x="171" y="894" type="line"/>
      <point x="523" y="894" type="line"/>
      <point x="97" y="0" type="line"/>
    </contour>
    <contour>
      <point x="447" y="1700" type="move" name="top"/>
    </contour>
    <contour>
      <point x="447" y="-170" type="move" name="btm"/>
    </contour>
  </outline>
</glyph>
<glyph name="braceleft" format="1">
  <advance width="833"/>
  <unicode hex="007B"/>
  <outline>
    <contour>
      <point x="78" y="796" type="curve"/>
      <point x="270" y="652"/>
      <point x="322" y="544"/>
      <point x="322" y="357" type="curve" smooth="yes"/>
      <point x="322" y="115" type="line" smooth="yes"/>
      <point x="322" y="-71"/>
      <point x="406" y="-158"/>
      <point x="601" y="-158" type="curve" smooth="yes"/>
      <point x="682" y="-158" type="line"/>
      <point x="682" y="0" type="line"/>
      <point x="601" y="0" type="line" smooth="yes"/>
      <point x="527" y="0"/>
      <point x="494" y="36"/>
      <point x="494" y="115" type="curve" smooth="yes"/>
      <point x="494" y="357" type="line" smooth="yes"/>
      <point x="494" y="520"/>
      <point x="455" y="672"/>
      <point x="310" y="797" type="curve"/>
      <point x="455" y="920"/>
      <point x="494" y="1072"/>
      <point x="494" y="1235" type="curve" smooth="yes"/>
      <point x="494" y="1478" type="line" smooth="yes"/>
      <point x="494" y="1557"/>
      <point x="527" y="1593"/>
      <point x="601" y="1593" type="curve" smooth="yes"/>
      <point x="682" y="1593" type="line"/>
      <point x="682" y="1751" type="line"/>
      <point x="601" y="1751" type="line" smooth="yes"/>
      <point x="406" y="1751"/>
      <point x="322" y="1664"/>
      <point x="322" y="1478" type="curve" smooth="yes"/>
      <point x="322" y="1235" type="line" smooth="yes"/>
      <point x="322" y="1048"/>
      <point x="270" y="940"/>
    </contour>
  </outline>
</glyph>
<glyph name="bar" format="1">
  <advance width="576"/>
  <unicode hex="007C"/>
  <outline>
    <contour>
      <point x="213" y="-177" type="line"/>
      <point x="364" y="-177" type="line"/>
      <point x="364" y="1771" type="line"/>
      <point x="213" y="1771" type="line"/>
    </contour>
  </outline>
</glyph>
<glyph name="braceright" format="1">
  <advance width="833"/>
  <unicode hex="007D"/>
  <outline>
    <contour>
      <point x="758" y="796" type="curve"/>
      <point x="565" y="940"/>
      <point x="513" y="1048"/>
      <point x="513" y="1235" type="curve" smooth="yes"/>
      <point x="513" y="1478" type="line" smooth="yes"/>
      <point x="513" y="1664"/>
      <point x="429" y="1751"/>
      <point x="235" y="1751" type="curve" smooth="yes"/>
      <point x="153" y="1751" type="line"/>
      <point x="153" y="1593" type="line"/>
      <point x="235" y="1593" type="line" smooth="yes"/>
      <point x="308" y="1593"/>
      <point x="342" y="1557"/>
      <point x="342" y="1478" type="curve" smooth="yes"/>
      <point x="342" y="1235" type="line" smooth="yes"/>
      <point x="342" y="1072"/>
      <point x="380" y="919"/>
      <point x="525" y="796" type="curve"/>
      <point x="380" y="671"/>
      <point x="342" y="520"/>
      <point x="342" y="357" type="curve" smooth="yes"/>
      <point x="342" y="115" type="line" smooth="yes"/>
      <point x="342" y="36"/>
      <point x="308" y="0"/>
      <point x="235" y="0" type="curve" smooth="yes"/>
      <point x="153" y="0" type="line"/>
      <point x="153" y="-158" type="line"/>
      <point x="235" y="-158" type="line" smooth="yes"/>
      <point x="429" y="-158"/>
      <point x="513" y="-71"/>
      <point x="513" y="115" type="curve" smooth="yes"/>
      <point x="513" y="357" type="line" smooth="yes"/>
      <point x="513" y="544"/>
      <point x="565" y="652"/>
    </contour>
  </outline>
</glyph>
<glyph name="asciitilde" format="1">
  <advance width="1110"/>
  <unicode hex="007E"/>
  <outline>
    <contour>
      <point x="139" y="810" type="line"/>
      <point x="194" y="890"/>
      <point x="311" y="975"/>
      <point x="415" y="975" type="curve" smooth="yes"/>
      <point x="517" y="975"/>
      <point x="609" y="869"/>
      <point x="697" y="869" type="curve" smooth="yes"/>
      <point x="745" y="869"/>
      <point x="813" y="901"/>
      <point x="873" y="965" type="curve"/>
      <point x="969" y="845" type="line"/>
      <point x="916" y="765"/>
      <point x="802" y="680"/>
      <point x="704" y="680" type="curve" smooth="yes"/>
      <point x="595" y="680"/>
      <point x="503" y="786"/>
      <point x="411" y="786" type="curve" smooth="yes"/>
      <point x="363" y="786"/>
      <point x="295" y="754"/>
      <point x="235" y="690" type="curve"/>
    </contour>
  </outline>
</glyph>
<glyph name="cent" format="1">
  <advance width="785"/>
  <unicode hex="00A2"/>
  <outline>
    <contour>
      <point x="367" y="927" type="line"/>
      <point x="518" y="927" type="line"/>
      <point x="518" y="1238" type="line"/>
      <point x="367" y="1238" type="line"/>
    </contour>
    <contour>
      <point x="367" y="-176" type="line"/>
      <point x="518" y="-176" type="line"/>
      <point x="518" y="135" type="line"/>
      <point x="367" y="135" type="line"/>
    </contour>
    <component base="c" xOffset="-1"/>
  </outline>
</glyph>
<glyph name="sterling" format="1">
  <advance width="1036"/>
  <unicode hex="00A3"/>
  <outline>
    <contour>
      <point x="221" y="0" type="line"/>
      <point x="883" y="0" type="line"/>
      <point x="883" y="176" type="line"/>
      <point x="353" y="176" type="line"/>
    </contour>
    <contour>
      <point x="800" y="676" type="line"/>
      <point x="800" y="852" type="line"/>
      <point x="143" y="852" type="line"/>
      <point x="143" y="676" type="line"/>
    </contour>
    <contour>
      <point x="341" y="0" type="line"/>
      <point x="459" y="271"/>
      <point x="507" y="454"/>
      <point x="507" y="680" type="curve" smooth="yes"/>
      <point x="507" y="893"/>
      <point x="396" y="1015"/>
      <point x="396" y="1229" type="curve" smooth="yes"/>
      <point x="396" y="1354"/>
      <point x="471" y="1437"/>
      <point x="590" y="1437" type="curve" smooth="yes"/>
      <point x="646" y="1437"/>
      <point x="735" y="1416"/>
      <point x="817" y="1355" type="curve"/>
      <point x="897" y="1502" type="line"/>
      <point x="806" y="1579"/>
      <point x="690" y="1612"/>
      <point x="580" y="1612" type="curve" smooth="yes"/>
      <point x="347" y="1612"/>
      <point x="199" y="1442"/>
      <point x="199" y="1229" type="curve" smooth="yes"/>
      <point x="199" y="1035"/>
      <point x="310" y="849"/>
      <point x="310" y="678" type="curve" smooth="yes"/>
      <point x="310" y="498"/>
      <point x="265" y="271"/>
      <point x="138" y="0" type="curve"/>
    </contour>
  </outline>
</glyph>
<glyph name="currency" format="1">
  <advance width="1082"/>
  <unicode hex="00A4"/>
  <outline>
    <contour>
      <point x="174" y="723" type="curve" smooth="yes"/>
      <point x="174" y="525"/>
      <point x="337" y="366"/>
      <point x="539" y="366" type="curve" smooth="yes"/>
      <point x="741" y="366"/>
      <point x="904" y="525"/>
      <point x="904" y="723" type="curve" smooth="yes"/>
      <point x="904" y="921"/>
      <point x="741" y="1081"/>
      <point x="539" y="1081" type="curve" smooth="yes"/>
      <point x="337" y="1081"/>
      <point x="174" y="921"/>
    </contour>
    <contour>
      <point x="284" y="579" type="line"/>
      <point x="88" y="388" type="line"/>
      <point x="197" y="281" type="line"/>
      <point x="399" y="480" type="line"/>
    </contour>
    <contour>
      <point x="683" y="477" type="line"/>
      <point x="883" y="282" type="line"/>
      <point x="992" y="389" type="line"/>
      <point x="809" y="569" type="line"/>
    </contour>
    <contour>
      <point x="790" y="862" type="line"/>
      <point x="992" y="1060" type="line"/>
      <point x="883" y="1167" type="line"/>
      <point x="690" y="977" type="line"/>
    </contour>
    <contour>
      <point x="408" y="962" type="line"/>
      <point x="199" y="1167" type="line"/>
      <point x="89" y="1060" type="line"/>
      <point x="293" y="861" type="line"/>
    </contour>
    <contour>
      <point x="338" y="723" type="curve" smooth="yes"/>
      <point x="338" y="831"/>
      <point x="428" y="921"/>
      <point x="539" y="921" type="curve" smooth="yes"/>
      <point x="649" y="921"/>
      <point x="741" y="831"/>
      <point x="741" y="723" type="curve" smooth="yes"/>
      <point x="741" y="615"/>
      <point x="649" y="526"/>
      <point x="539" y="526" type="curve" smooth="yes"/>
      <point x="428" y="526"/>
      <point x="338" y="615"/>
    </contour>
  </outline>
</glyph>
<glyph name="yen" format="1">
  <advance width="936"/>
  <unicode hex="00A5"/>
  <outline>
    <contour>
      <point x="826" y="373" type="line"/>
      <point x="826" y="531" type="line"/>
      <point x="80" y="531" type="line"/>
      <point x="80" y="373" type="line"/>
    </contour>
    <contour>
      <point x="364" y="657" type="line"/>
      <point x="364" y="815" type="line"/>
      <point x="80" y="815" type="line"/>
      <point x="80" y="657" type="line"/>
    </contour>
    <contour>
      <point x="826" y="657" type="line"/>
      <point x="826" y="815" type="line"/>
      <point x="542" y="815" type="line"/>
      <point x="542" y="657" type="line"/>
    </contour>
    <component base="Y" xOffset="31"/>
  </outline>
</glyph>
<glyph name="brokenbar" format="1">
  <advance width="576"/>
  <unicode hex="00A6"/>
  <outline>
    <contour>
      <point x="213" y="-177" type="line"/>
      <point x="364" y="-177" type="line"/>
      <point x="364" y="532" type="line"/>
      <point x="213" y="532" type="line"/>
    </contour>
    <contour>
      <point x="213" y="1062" type="line"/>
      <point x="364" y="1062" type="line"/>
      <point x="364" y="1771" type="line"/>
      <point x="213" y="1771" type="line"/>
    </contour>
  </outline>
</glyph>
<glyph name="section" format="1">
  <advance width="1015"/>
  <unicode hex="00A7"/>
  <outline>
    <contour>
      <point x="639" y="223" type="line"/>
      <point x="774" y="280"/>
      <point x="863" y="431"/>
      <point x="863" y="560" type="curve" smooth="yes"/>
      <point x="863" y="713"/>
      <point x="786" y="826"/>
      <point x="655" y="939" type="curve" smooth="yes"/>
      <point x="516" y="1058" type="line" smooth="yes"/>
      <point x="401" y="1157"/>
      <point x="382" y="1221"/>
      <point x="382" y="1271" type="curve" smooth="yes"/>
      <point x="382" y="1368"/>
      <point x="453" y="1440"/>
      <point x="567" y="1440" type="curve" smooth="yes"/>
      <point x="632" y="1440"/>
      <point x="686" y="1416"/>
      <point x="734" y="1388" type="curve"/>
      <point x="816" y="1543" type="line"/>
      <point x="729" y="1593"/>
      <point x="636" y="1616"/>
      <point x="547" y="1616" type="curve" smooth="yes"/>
      <point x="321" y="1616"/>
      <point x="186" y="1468"/>
      <point x="186" y="1270" type="curve" smooth="yes"/>
      <point x="186" y="1140"/>
      <point x="251" y="1036"/>
      <point x="345" y="953" type="curve" smooth="yes"/>
      <point x="477" y="836" type="line" smooth="yes"/>
      <point x="595" y="733"/>
      <point x="666" y="662"/>
      <point x="666" y="560" type="curve" smooth="yes"/>
      <point x="666" y="467"/>
      <point x="618" y="396"/>
      <point x="538" y="370" type="curve"/>
    </contour>
    <contour>
      <point x="390" y="1043" type="line"/>
      <point x="260" y="989"/>
      <point x="186" y="857"/>
      <point x="186" y="730" type="curve" smooth="yes"/>
      <point x="186" y="600"/>
      <point x="251" y="496"/>
      <point x="345" y="413" type="curve" smooth="yes"/>
      <point x="477" y="296" type="line" smooth="yes"/>
      <point x="595" y="193"/>
      <point x="666" y="122"/>
      <point x="666" y="20" type="curve" smooth="yes"/>
      <point x="666" y="-93"/>
      <point x="589" y="-171"/>
      <point x="463" y="-171" type="curve" smooth="yes"/>
      <point x="379" y="-171"/>
      <point x="307" y="-135"/>
      <point x="241" y="-96" type="curve"/>
      <point x="153" y="-262" type="line"/>
      <point x="232" y="-315"/>
      <point x="347" y="-354"/>
      <point x="464" y="-354" type="curve" smooth="yes"/>
      <point x="693" y="-354"/>
      <point x="863" y="-209"/>
      <point x="863" y="20" type="curve" smooth="yes"/>
      <point x="863" y="173"/>
      <point x="786" y="286"/>
      <point x="655" y="399" type="curve" smooth="yes"/>
      <point x="516" y="518" type="line" smooth="yes"/>
      <point x="401" y="617"/>
      <point x="382" y="681"/>
      <point x="382" y="731" type="curve" smooth="yes"/>
      <point x="382" y="833"/>
      <point x="451" y="908"/>
      <point x="562" y="910" type="curve"/>
    </contour>
  </outline>
</glyph>
<glyph name="dieresis" format="1">
  <advance width="813"/>
  <unicode hex="00A8"/>
  <outline>
    <contour>
      <point x="352" y="1397" type="curve" smooth="yes"/>
      <point x="352" y="1463"/>
      <point x="301" y="1521"/>
      <point x="223" y="1521" type="curve" smooth="yes"/>
      <point x="145" y="1521"/>
      <point x="94" y="1463"/>
      <point x="94" y="1397" type="curve" smooth="yes"/>
      <point x="94" y="1331"/>
      <point x="145" y="1273"/>
      <point x="223" y="1273" type="curve" smooth="yes"/>
      <point x="301" y="1273"/>
      <point x="352" y="1331"/>
    </contour>
    <contour>
      <point x="718" y="1397" type="curve" smooth="yes"/>
      <point x="718" y="1463"/>
      <point x="667" y="1521"/>
      <point x="589" y="1521" type="curve" smooth="yes"/>
      <point x="511" y="1521"/>
      <point x="460" y="1463"/>
      <point x="460" y="1397" type="curve" smooth="yes"/>
      <point x="460" y="1331"/>
      <point x="511" y="1273"/>
      <point x="589" y="1273" type="curve" smooth="yes"/>
      <point x="667" y="1273"/>
      <point x="718" y="1331"/>
    </contour>
    <contour>
      <point x="406" y="1700" type="move" name="_top"/>
    </contour>
  </outline>
</glyph>
<glyph name="copyright" format="1">
  <advance width="1395"/>
  <unicode hex="00A9"/>
  <outline>
    <contour>
      <point x="1274" y="796" type="curve" smooth="yes"/>
      <point x="1274" y="1347"/>
      <point x="1010" y="1611"/>
      <point x="699" y="1611" type="curve" smooth="yes"/>
      <point x="388" y="1611"/>
      <point x="123" y="1347"/>
      <point x="123" y="796" type="curve" smooth="yes"/>
      <point x="123" y="245"/>
      <point x="388" y="-19"/>
      <point x="699" y="-19" type="curve" smooth="yes"/>
      <point x="1010" y="-19"/>
      <point x="1274" y="245"/>
    </contour>
    <contour>
      <point x="1128" y="796" type="curve" smooth="yes"/>
      <point x="1128" y="316"/>
      <point x="916" y="119"/>
      <point x="699" y="119" type="curve" smooth="yes"/>
      <point x="481" y="119"/>
      <point x="269" y="316"/>
      <point x="269" y="796" type="curve" smooth="yes"/>
      <point x="269" y="1276"/>
      <point x="481" y="1473"/>
      <point x="699" y="1473" type="curve" smooth="yes"/>
      <point x="916" y="1473"/>
      <point x="1123" y="1281"/>
    </contour>
    <contour>
      <point x="575" y="796" type="curve" smooth="yes"/>
      <point x="575" y="1013"/>
      <point x="657" y="1091"/>
      <point x="738" y="1091" type="curve" smooth="yes"/>
      <point x="784" y="1091"/>
      <point x="823" y="1073"/>
      <point x="855" y="1054" type="curve"/>
      <point x="917" y="1178" type="line"/>
      <point x="870" y="1208"/>
      <point x="810" y="1228"/>
      <point x="738" y="1228" type="curve" smooth="yes"/>
      <point x="563" y="1228"/>
      <point x="428" y="1085"/>
      <point x="428" y="796" type="curve" smooth="yes"/>
      <point x="428" y="507"/>
      <point x="563" y="364"/>
      <point x="738" y="364" type="curve" smooth="yes"/>
      <point x="810" y="364"/>
      <point x="870" y="384"/>
      <point x="917" y="414" type="curve"/>
      <point x="855" y="538" type="line"/>
      <point x="823" y="519"/>
      <point x="784" y="500"/>
      <point x="738" y="500" type="curve" smooth="yes"/>
      <point x="657" y="500"/>
      <point x="575" y="579"/>
    </contour>
  </outline>
</glyph>
<glyph name="ordfeminine" format="1">
  <advance width="651"/>
  <unicode hex="00AA"/>
  <outline>
    <contour>
      <point x="564" y="885" type="line"/>
      <point x="564" y="1373" type="line" smooth="yes"/>
      <point x="564" y="1523"/>
      <point x="472" y="1612"/>
      <point x="333" y="1612" type="curve" smooth="yes"/>
      <point x="280" y="1612"/>
      <point x="216" y="1599"/>
      <point x="159" y="1571" type="curve"/>
      <point x="214" y="1446" type="line"/>
      <point x="251" y="1467"/>
      <point x="291" y="1481"/>
      <point x="326" y="1481" type="curve" smooth="yes"/>
      <point x="393" y="1481"/>
      <point x="428" y="1431"/>
      <point x="428" y="1349" type="curve" smooth="yes"/>
      <point x="428" y="953" type="line"/>
    </contour>
    <contour>
      <point x="444" y="1081" type="line"/>
      <point x="441" y="1051"/>
      <point x="400" y="1021"/>
      <point x="353" y="1021" type="curve" smooth="yes"/>
      <point x="296" y="1021"/>
      <point x="260" y="1066"/>
      <point x="260" y="1121" type="curve" smooth="yes"/>
      <point x="260" y="1191"/>
      <point x="321" y="1231"/>
      <point x="428" y="1229" type="curve"/>
      <point x="525" y="1229" type="line"/>
      <point x="525" y="1354" type="line"/>
      <point x="428" y="1355" type="line"/>
      <point x="221" y="1345"/>
      <point x="117" y="1256"/>
      <point x="117" y="1118" type="curve" smooth="yes"/>
      <point x="117" y="988"/>
      <point x="210" y="885"/>
      <point x="331" y="885" type="curve" smooth="yes"/>
      <point x="446" y="885"/>
      <point x="527" y="978"/>
      <point x="527" y="1094" type="curve"/>
    </contour>
  </outline>
</glyph>
<glyph name="logicalnot" format="1">
  <advance width="1049"/>
  <unicode hex="00AC"/>
  <outline>
    <contour>
      <point x="716" y="285" type="line"/>
      <point x="896" y="285" type="line"/>
      <point x="896" y="699" type="line"/>
      <point x="153" y="699" type="line"/>
      <point x="153" y="531" type="line"/>
      <point x="716" y="531" type="line"/>
    </contour>
  </outline>
</glyph>
<glyph name="registered" format="1">
  <advance width="1395"/>
  <unicode hex="00AE"/>
  <outline>
    <contour>
      <point x="1274" y="796" type="curve" smooth="yes"/>
      <point x="1274" y="1347"/>
      <point x="1010" y="1611"/>
      <point x="699" y="1611" type="curve" smooth="yes"/>
      <point x="388" y="1611"/>
      <point x="123" y="1347"/>
      <point x="123" y="796" type="curve" smooth="yes"/>
      <point x="123" y="245"/>
      <point x="388" y="-19"/>
      <point x="699" y="-19" type="curve" smooth="yes"/>
      <point x="1010" y="-19"/>
      <point x="1274" y="245"/>
    </contour>
    <contour>
      <point x="1128" y="798" type="curve" smooth="yes"/>
      <point x="1128" y="315"/>
      <point x="916" y="119"/>
      <point x="699" y="119" type="curve" smooth="yes"/>
      <point x="481" y="119"/>
      <point x="269" y="316"/>
      <point x="269" y="796" type="curve" smooth="yes"/>
      <point x="269" y="1276"/>
      <point x="481" y="1473"/>
      <point x="700" y="1473" type="curve" smooth="yes"/>
      <point x="916" y="1473"/>
      <point x="1128" y="1280"/>
    </contour>
    <contour>
      <point x="795" y="747" type="line"/>
      <point x="670" y="714" type="line"/>
      <point x="812" y="384" type="line"/>
      <point x="962" y="384" type="line"/>
    </contour>
    <contour>
      <point x="637" y="1126" type="line"/>
      <point x="727" y="1110"/>
      <point x="777" y="1042"/>
      <point x="777" y="955" type="curve" smooth="yes"/>
      <point x="777" y="872"/>
      <point x="732" y="814"/>
      <point x="637" y="786" type="curve"/>
    </contour>
    <contour>
      <point x="637" y="658" type="line"/>
      <point x="815" y="704"/>
      <point x="914" y="808"/>
      <point x="914" y="960" type="curve" smooth="yes"/>
      <point x="914" y="1126"/>
      <point x="797" y="1259"/>
      <point x="505" y="1259" type="curve"/>
      <point x="505" y="384" type="line"/>
      <point x="637" y="384" type="line"/>
    </contour>
  </outline>
</glyph>
<glyph name="macron" format="1">
  <advance width="851"/>
  <unicode hex="00AF"/>
  <outline>
    <contour>
      <point x="649" y="1359" type="line"/>
      <point x="648" y="1517" type="line"/>
      <point x="166" y="1517" type="line"/>
      <point x="165" y="1359" type="line"/>
    </contour>
    <contour>
      <point x="407" y="1700" type="move" name="_top"/>
    </contour>
  </outline>
</glyph>
<glyph name="degree" format="1">
  <advance width="739"/>
  <unicode hex="00B0"/>
  <outline>
    <contour>
      <point x="369" y="1119" type="curve" smooth="yes"/>
      <point x="309" y="1119"/>
      <point x="261" y="1168"/>
      <point x="261" y="1299" type="curve" smooth="yes"/>
      <point x="261" y="1430"/>
      <point x="309" y="1479"/>
      <point x="369" y="1479" type="curve" smooth="yes"/>
      <point x="429" y="1479"/>
      <point x="477" y="1430"/>
      <point x="477" y="1299" type="curve" smooth="yes"/>
      <point x="477" y="1168"/>
      <point x="429" y="1119"/>
    </contour>
    <contour>
      <point x="369" y="1614" type="curve" smooth="yes"/>
      <point x="221" y="1614"/>
      <point x="117" y="1493"/>
      <point x="117" y="1299" type="curve" smooth="yes"/>
      <point x="117" y="1105"/>
      <point x="221" y="984"/>
      <point x="369" y="984" type="curve" smooth="yes"/>
      <point x="517" y="984"/>
      <point x="621" y="1105"/>
      <point x="621" y="1299" type="curve" smooth="yes"/>
      <point x="621" y="1493"/>
      <point x="517" y="1614"/>
    </contour>
  </outline>
</glyph>
<glyph name="plusminus" format="1">
  <advance width="1239"/>
  <unicode hex="00B1"/>
  <outline>
    <contour>
      <point x="971" y="0" type="line"/>
      <point x="971" y="151" type="line"/>
      <point x="264" y="151" type="line"/>
      <point x="264" y="0" type="line"/>
    </contour>
    <component base="plus" xOffset="134"/>
  </outline>
</glyph>
<glyph name="twosuperior" format="1">
  <advance width="782"/>
  <unicode hex="00B2"/>
  <outline>
    <contour>
      <point x="288" y="529" type="line"/>
      <point x="546" y="1064" type="line" smooth="yes"/>
      <point x="615" y="1208"/>
      <point x="644" y="1287"/>
      <point x="644" y="1361" type="curve" smooth="yes"/>
      <point x="644" y="1501"/>
      <point x="541" y="1612"/>
      <point x="374" y="1612" type="curve" smooth="yes"/>
      <point x="297" y="1612"/>
      <point x="218" y="1585"/>
      <point x="152" y="1531" type="curve"/>
      <point x="223" y="1414" type="line"/>
      <point x="275" y="1456"/>
      <point x="316" y="1472"/>
      <point x="359" y="1472" type="curve" smooth="yes"/>
      <point x="442" y="1472"/>
      <point x="486" y="1420"/>
      <point x="486" y="1358" type="curve" smooth="yes"/>
      <point x="486" y="1318"/>
      <point x="467" y="1245"/>
      <point x="419" y="1145" type="curve" smooth="yes"/>
      <point x="125" y="529" type="line"/>
    </contour>
    <contour>
      <point x="193" y="529" type="line"/>
      <point x="657" y="529" type="line"/>
      <point x="657" y="673" type="line"/>
      <point x="266" y="673" type="line"/>
    </contour>
  </outline>
</glyph>
<glyph name="threesuperior" format="1">
  <advance width="780"/>
  <unicode hex="00B3"/>
  <outline>
    <contour>
      <point x="186" y="1449" type="line"/>
      <point x="465" y="1449" type="line"/>
      <point x="524" y="1593" type="line"/>
      <point x="186" y="1593" type="line"/>
    </contour>
    <contour>
      <point x="220" y="1007" type="line"/>
      <point x="264" y="1047" type="line"/>
      <point x="396" y="1052" type="line"/>
      <point x="636" y="1593" type="line"/>
      <point x="482" y="1593" type="line"/>
    </contour>
    <contour>
      <point x="220" y="1007" type="line"/>
      <point x="249" y="1023"/>
      <point x="298" y="1025"/>
      <point x="316" y="1025" type="curve" smooth="yes"/>
      <point x="422" y="1025"/>
      <point x="498" y="951"/>
      <point x="498" y="833" type="curve" smooth="yes"/>
      <point x="498" y="724"/>
      <point x="433" y="651"/>
      <point x="318" y="651" type="curve" smooth="yes"/>
      <point x="276" y="651"/>
      <point x="225" y="661"/>
      <point x="182" y="683" type="curve"/>
      <point x="125" y="560" type="line"/>
      <point x="171" y="533"/>
      <point x="248" y="510"/>
      <point x="330" y="510" type="curve" smooth="yes"/>
      <point x="538" y="510"/>
      <point x="656" y="657"/>
      <point x="656" y="836" type="curve" smooth="yes"/>
      <point x="656" y="1002"/>
      <point x="547" y="1149"/>
      <point x="312" y="1176" type="curve"/>
      <point x="276" y="1088" type="line"/>
    </contour>
  </outline>
</glyph>
<glyph name="acute" format="1">
  <advance width="668"/>
  <unicode hex="00B4"/>
  <outline>
    <contour>
      <point x="582" y="1508" type="line"/>
      <point x="483" y="1631" type="line"/>
      <point x="104" y="1329" type="line"/>
      <point x="203" y="1206" type="line"/>
    </contour>
    <contour>
      <point x="333" y="1700" type="move" name="_top"/>
    </contour>
  </outline>
</glyph>
<glyph name="mu" format="1">
  <advance width="1082"/>
  <unicode hex="00B5"/>
  <unicode hex="03BC"/>
  <outline>
    <contour>
      <point x="900" y="1062" type="line"/>
      <point x="718" y="1062" type="line"/>
      <point x="718" y="266" type="line"/>
      <point x="688" y="215"/>
      <point x="617" y="163"/>
      <point x="544" y="163" type="curve" smooth="yes"/>
      <point x="430" y="163"/>
      <point x="361" y="228"/>
      <point x="361" y="373" type="curve" smooth="yes"/>
      <point x="361" y="1062" type="line"/>
      <point x="180" y="1062" type="line"/>
      <point x="180" y="-354" type="line"/>
      <point x="361" y="-354" type="line"/>
      <point x="361" y="29" type="line"/>
      <point x="402" y="5"/>
      <point x="450" y="-18"/>
      <point x="528" y="-18" type="curve" smooth="yes"/>
      <point x="613" y="-18"/>
      <point x="699" y="26"/>
      <point x="749" y="85" type="curve"/>
      <point x="900" y="-20" type="line"/>
    </contour>
  </outline>
</glyph>
<glyph name="paragraph" format="1">
  <advance width="1347"/>
  <unicode hex="00B6"/>
  <outline>
    <contour>
      <point x="1193" y="1445" type="line"/>
      <point x="1193" y="1593" type="line"/>
      <point x="775" y="1593" type="line" smooth="yes"/>
      <point x="406" y="1593"/>
      <point x="153" y="1343"/>
      <point x="153" y="1016" type="curve" smooth="yes"/>
      <point x="153" y="750"/>
      <point x="309" y="532"/>
      <point x="599" y="450" type="curve"/>
      <point x="599" y="-178" type="line"/>
      <point x="749" y="-178" type="line"/>
      <point x="749" y="1445" type="line"/>
      <point x="905" y="1445" type="line"/>
      <point x="905" y="-177" type="line"/>
      <point x="1056" y="-177" type="line"/>
      <point x="1056" y="1445" type="line"/>
    </contour>
    <contour>
      <point x="600" y="607" type="line"/>
      <point x="441" y="653"/>
      <point x="311" y="796"/>
      <point x="311" y="1016" type="curve" smooth="yes"/>
      <point x="310" y="1236"/>
      <point x="441" y="1379"/>
      <point x="600" y="1425" type="curve"/>
    </contour>
  </outline>
</glyph>
<glyph name="cedilla" format="1">
  <advance width="676"/>
  <unicode hex="00B8"/>
  <outline>
    <contour>
      <point x="164" y="-531" type="line"/>
      <point x="369" y="-510"/>
      <point x="496" y="-399"/>
      <point x="496" y="-269" type="curve" smooth="yes"/>
      <point x="496" y="-161"/>
      <point x="409" y="-100"/>
      <point x="315" y="-83" type="curve"/>
      <point x="387" y="63" type="line"/>
      <point x="250" y="63" type="line"/>
      <point x="125" y="-216" type="line"/>
      <point x="155" y="-205"/>
      <point x="190" y="-199"/>
      <point x="220" y="-199" type="curve" smooth="yes"/>
      <point x="290" y="-199"/>
      <point x="328" y="-231"/>
      <point x="328" y="-274" type="curve" smooth="yes"/>
      <point x="328" y="-337"/>
      <point x="251" y="-384"/>
      <point x="128" y="-395" type="curve"/>
    </contour>
    <contour>
      <point x="310" y="-170" type="move" name="_btm"/>
    </contour>
  </outline>
</glyph>
<glyph name="onesuperior" format="1">
  <advance width="397"/>
  <unicode hex="00B9"/>
  <outline>
    <contour>
      <point x="125" y="530" type="line"/>
      <point x="125" y="1468" type="line"/>
      <point x="273" y="1633" type="line"/>
      <point x="273" y="530" type="line"/>
    </contour>
  </outline>
</glyph>
<glyph name="ordmasculine" format="1">
  <advance width="666"/>
  <unicode hex="00BA"/>
  <outline>
    <contour>
      <point x="442" y="1249" type="curve" smooth="yes"/>
      <point x="442" y="1081"/>
      <point x="386" y="1022"/>
      <point x="334" y="1022" type="curve" smooth="yes"/>
      <point x="283" y="1022"/>
      <point x="227" y="1081"/>
      <point x="227" y="1249" type="curve" smooth="yes"/>
      <point x="227" y="1416"/>
      <point x="283" y="1474"/>
      <point x="334" y="1474" type="curve" smooth="yes"/>
      <point x="386" y="1474"/>
      <point x="442" y="1416"/>
    </contour>
    <contour>
      <point x="582" y="1249" type="curve" smooth="yes"/>
      <point x="582" y="1492"/>
      <point x="464" y="1612"/>
      <point x="334" y="1612" type="curve" smooth="yes"/>
      <point x="203" y="1612"/>
      <point x="86" y="1492"/>
      <point x="86" y="1249" type="curve" smooth="yes"/>
      <point x="86" y="1006"/>
      <point x="203" y="884"/>
      <point x="334" y="884" type="curve" smooth="yes"/>
      <point x="464" y="884"/>
      <point x="582" y="1006"/>
    </contour>
  </outline>
</glyph>
<glyph name="onequarter" format="1">
  <advance width="1675"/>
  <unicode hex="00BC"/>
  <outline>
    <contour>
      <point x="1497" y="394" type="line"/>
      <point x="1497" y="250" type="line"/>
      <point x="856" y="250" type="line"/>
      <point x="1080" y="1062" type="line"/>
      <point x="1233" y="1062" type="line"/>
      <point x="1051" y="394" type="line"/>
    </contour>
    <contour>
      <point x="1227" y="0" type="line"/>
      <point x="1227" y="616" type="line"/>
      <point x="1378" y="781" type="line"/>
      <point x="1378" y="0" type="line"/>
    </contour>
    <contour>
      <point x="209" y="30" type="line"/>
      <point x="346" y="-33" type="line"/>
      <point x="1104" y="1549" type="line"/>
      <point x="967" y="1612" type="line"/>
    </contour>
    <component base="onesuperior" xOffset="25" yOffset="1"/>
  </outline>
</glyph>
<glyph name="onehalf" format="1">
  <advance width="1673"/>
  <unicode hex="00BD"/>
  <outline>
    <contour>
      <point x="219" y="30" type="line"/>
      <point x="356" y="-33" type="line"/>
      <point x="1114" y="1549" type="line"/>
      <point x="977" y="1612" type="line"/>
    </contour>
    <component base="onesuperior" xOffset="25"/>
    <component base="twosuperior" xOffset="850" yOffset="-527"/>
  </outline>
</glyph>
<glyph name="threequarters" format="1">
  <advance width="1981"/>
  <unicode hex="00BE"/>
  <outline>
    <contour>
      <point x="1828" y="394" type="line"/>
      <point x="1828" y="250" type="line"/>
      <point x="1186" y="250" type="line"/>
      <point x="1411" y="1062" type="line"/>
      <point x="1564" y="1062" type="line"/>
      <point x="1381" y="394" type="line"/>
    </contour>
    <contour>
      <point x="1558" y="0" type="line"/>
      <point x="1558" y="616" type="line"/>
      <point x="1708" y="781" type="line"/>
      <point x="1708" y="0" type="line"/>
    </contour>
    <contour>
      <point x="540" y="30" type="line"/>
      <point x="676" y="-33" type="line"/>
      <point x="1434" y="1549" type="line"/>
      <point x="1297" y="1612" type="line"/>
    </contour>
    <component base="threesuperior" xOffset="51"/>
  </outline>
</glyph>
<glyph name="AE" format="1">
  <advance width="1314"/>
  <unicode hex="00C6"/>
  <outline>
    <contour>
      <point x="619" y="1144" type="line"/>
      <point x="619" y="0" type="line"/>
      <point x="823" y="0" type="line"/>
      <point x="648" y="1593" type="line"/>
      <point x="620" y="1593" type="line"/>
      <point x="21" y="0" type="line"/>
      <point x="225" y="0" type="line"/>
    </contour>
    <contour>
      <point x="318" y="265" type="line"/>
      <point x="721" y="265" type="line"/>
      <point x="721" y="441" type="line"/>
      <point x="318" y="441" type="line"/>
    </contour>
    <contour>
      <point x="640" y="0" type="line"/>
      <point x="1187" y="0" type="line"/>
      <point x="1187" y="176" type="line"/>
      <point x="830" y="176" type="line"/>
      <point x="830" y="629" type="line"/>
      <point x="1136" y="629" type="line"/>
      <point x="1136" y="805" type="line"/>
      <point x="830" y="805" type="line"/>
      <point x="830" y="1417" type="line"/>
      <point x="1187" y="1417" type="line"/>
      <point x="1187" y="1593" type="line"/>
      <point x="640" y="1593" type="line"/>
    </contour>
    <contour>
      <point x="872" y="1700" type="move" name="top"/>
    </contour>
  </outline>
</glyph>
<glyph name="Eth" format="1">
  <advance width="1017"/>
  <unicode hex="00D0"/>
  <outline>
    <contour>
      <point x="522" y="716" type="line"/>
      <point x="522" y="884" type="line"/>
      <point x="66" y="884" type="line"/>
      <point x="66" y="716" type="line"/>
    </contour>
    <component base="D"/>
  </outline>
</glyph>
<glyph name="multiply" format="1">
  <advance width="907"/>
  <unicode hex="00D7"/>
  <outline>
    <contour>
      <point x="262" y="960" type="line"/>
      <point x="150" y="848" type="line"/>
      <point x="345" y="654" type="line"/>
      <point x="150" y="460" type="line"/>
      <point x="257" y="353" type="line"/>
      <point x="452" y="547" type="line"/>
      <point x="646" y="353" type="line"/>
      <point x="758" y="465" type="line"/>
      <point x="563" y="659" type="line"/>
      <point x="758" y="853" type="line"/>
      <point x="651" y="960" type="line"/>
      <point x="456" y="766" type="line"/>
    </contour>
  </outline>
</glyph>
<glyph name="Oslash" format="1">
  <advance width="1059"/>
  <unicode hex="00D8"/>
  <outline>
    <contour>
      <point x="761" y="1305" type="line"/>
      <point x="898" y="1661" type="line"/>
      <point x="746" y="1709" type="line"/>
      <point x="636" y="1430" type="line"/>
    </contour>
    <contour>
      <point x="286" y="270" type="line"/>
      <point x="148" y="-89" type="line"/>
      <point x="300" y="-137" type="line"/>
      <point x="412" y="148" type="line"/>
    </contour>
    <component base="O"/>
  </outline>
</glyph>
<glyph name="Thorn" format="1">
  <advance width="986"/>
  <unicode hex="00DE"/>
  <outline>
    <contour>
      <point x="648" y="805" type="curve" smooth="yes"/>
      <point x="648" y="566"/>
      <point x="521" y="444"/>
      <point x="348" y="429" type="curve"/>
      <point x="348" y="1181" type="line"/>
      <point x="521" y="1166"/>
      <point x="648" y="1044"/>
    </contour>
    <contour>
      <point x="348" y="250" type="line"/>
      <point x="686" y="295"/>
      <point x="845" y="504"/>
      <point x="845" y="805" type="curve" smooth="yes"/>
      <point x="845" y="1158"/>
      <point x="624" y="1387"/>
      <point x="158" y="1367" type="curve"/>
      <point x="158" y="0" type="line"/>
      <point x="348" y="0" type="line"/>
    </contour>
    <contour>
      <point x="348" y="0" type="line"/>
      <point x="348" y="1593" type="line"/>
      <point x="158" y="1593" type="line"/>
      <point x="158" y="0" type="line"/>
    </contour>
  </outline>
</glyph>
<glyph name="germandbls" format="1">
  <advance width="1063"/>
  <unicode hex="00DF"/>
  <outline>
    <contour>
      <point x="288" y="894" type="line"/>
      <point x="288" y="1062" type="line"/>
      <point x="64" y="1062" type="line"/>
      <point x="64" y="894" type="line"/>
    </contour>
    <contour>
      <point x="556" y="1446" type="curve" smooth="yes"/>
      <point x="635" y="1440"/>
      <point x="698" y="1386"/>
      <point x="698" y="1307" type="curve" smooth="yes"/>
      <point x="698" y="1163"/>
      <point x="488" y="1014"/>
      <point x="488" y="818" type="curve" smooth="yes"/>
      <point x="488" y="575"/>
      <point x="813" y="485"/>
      <point x="813" y="287" type="curve" smooth="yes"/>
      <point x="813" y="196"/>
      <point x="744" y="156"/>
      <point x="676" y="156" type="curve" smooth="yes"/>
      <point x="630" y="156"/>
      <point x="578" y="176"/>
      <point x="517" y="209" type="curve"/>
      <point x="440" y="43" type="line"/>
      <point x="502" y="8"/>
      <point x="577" y="-18"/>
      <point x="667" y="-18" type="curve" smooth="yes"/>
      <point x="867" y="-18"/>
      <point x="1007" y="107"/>
      <point x="1007" y="296" type="curve" smooth="yes"/>
      <point x="1007" y="584"/>
      <point x="684" y="669"/>
      <point x="684" y="849" type="curve" smooth="yes"/>
      <point x="684" y="988"/>
      <point x="877" y="1101"/>
      <point x="877" y="1313" type="curve" smooth="yes"/>
      <point x="877" y="1482"/>
      <point x="738" y="1612"/>
      <point x="551" y="1612" type="curve" smooth="yes"/>
      <point x="328" y="1612"/>
      <point x="153" y="1448"/>
      <point x="153" y="1139" type="curve" smooth="yes"/>
      <point x="153" y="0" type="line"/>
      <point x="338" y="0" type="line"/>
      <point x="338" y="1155" type="line" smooth="yes"/>
      <point x="338" y="1359"/>
      <point x="437" y="1455"/>
    </contour>
  </outline>
</glyph>
<glyph name="ae" format="1">
  <advance width="1358"/>
  <unicode hex="00E6"/>
  <outline>
    <contour>
      <point x="752" y="510" type="line"/>
      <point x="752" y="719" type="line" smooth="yes"/>
      <point x="752" y="945"/>
      <point x="622" y="1081"/>
      <point x="425" y="1081" type="curve" smooth="yes"/>
      <point x="350" y="1081"/>
      <point x="248" y="1061"/>
      <point x="163" y="1019" type="curve"/>
      <point x="232" y="859" type="line"/>
      <point x="290" y="891"/>
      <point x="349" y="912"/>
      <point x="403" y="912" type="curve" smooth="yes"/>
      <point x="507" y="912"/>
      <point x="572" y="836"/>
      <point x="572" y="712" type="curve" smooth="yes"/>
      <point x="572" y="555" type="line"/>
      <point x="572" y="150" type="line"/>
    </contour>
    <contour>
      <point x="604" y="277" type="line"/>
      <point x="579" y="191"/>
      <point x="523" y="156"/>
      <point x="441" y="156" type="curve" smooth="yes"/>
      <point x="365" y="156"/>
      <point x="296" y="218"/>
      <point x="296" y="329" type="curve" smooth="yes"/>
      <point x="296" y="455"/>
      <point x="399" y="534"/>
      <point x="573" y="531" type="curve"/>
      <point x="722" y="531" type="line"/>
      <point x="722" y="690" type="line"/>
      <point x="572" y="691" type="line"/>
      <point x="270" y="676"/>
      <point x="111" y="547"/>
      <point x="111" y="332" type="curve" smooth="yes"/>
      <point x="111" y="136"/>
      <point x="244" y="-19"/>
      <point x="429" y="-19" type="curve" smooth="yes"/>
      <point x="571" y="-19"/>
      <point x="681" y="61"/>
      <point x="752" y="157" type="curve"/>
    </contour>
    <contour>
      <point x="752" y="533" type="curve" smooth="yes"/>
      <point x="752" y="781"/>
      <point x="838" y="906"/>
      <point x="939" y="906" type="curve" smooth="yes"/>
      <point x="1028" y="906"/>
      <point x="1087" y="850"/>
      <point x="1075" y="623" type="curve"/>
      <point x="720" y="623" type="line"/>
      <point x="720" y="456" type="line"/>
      <point x="1242" y="455" type="line"/>
      <point x="1311" y="833"/>
      <point x="1186" y="1081"/>
      <point x="952" y="1081" type="curve" smooth="yes"/>
      <point x="750" y="1081"/>
      <point x="576" y="905"/>
      <point x="576" y="527" type="curve" smooth="yes"/>
      <point x="576" y="187"/>
      <point x="739" y="-19"/>
      <point x="979" y="-19" type="curve" smooth="yes"/>
      <point x="1057" y="-19"/>
      <point x="1165" y="13"/>
      <point x="1227" y="53" type="curve"/>
      <point x="1158" y="205" type="line"/>
      <point x="1128" y="181"/>
      <point x="1052" y="150"/>
      <point x="1001" y="150" type="curve" smooth="yes"/>
      <point x="880" y="150"/>
      <point x="752" y="244"/>
    </contour>
    <contour>
      <point x="686" y="1700" type="move" name="top"/>
    </contour>
  </outline>
</glyph>
<glyph name="eth" format="1">
  <advance width="969"/>
  <unicode hex="00F0"/>
  <outline>
    <contour>
      <point x="773" y="1543" type="line"/>
      <point x="859" y="1424" type="line"/>
      <point x="377" y="1106" type="line"/>
      <point x="293" y="1225" type="line"/>
    </contour>
    <contour>
      <point x="99" y="491" type="curve" smooth="yes"/>
      <point x="99" y="824"/>
      <point x="278" y="992"/>
      <point x="463" y="992" type="curve" smooth="yes"/>
      <point x="543" y="992"/>
      <point x="579" y="976"/>
      <point x="642" y="930" type="curve"/>
      <point x="624" y="1103"/>
      <point x="499" y="1333"/>
      <point x="316" y="1475" type="curve"/>
      <point x="401" y="1612" type="line"/>
      <point x="715" y="1385"/>
      <point x="869" y="989"/>
      <point x="869" y="590" type="curve" smooth="yes"/>
      <point x="869" y="183"/>
      <point x="718" y="-19"/>
      <point x="476" y="-19" type="curve" smooth="yes"/>
      <point x="264" y="-19"/>
      <point x="99" y="151"/>
    </contour>
    <contour>
      <point x="284" y="491" type="curve" smooth="yes"/>
      <point x="284" y="238"/>
      <point x="384" y="153"/>
      <point x="476" y="153" type="curve" smooth="yes"/>
      <point x="568" y="153"/>
      <point x="668" y="238"/>
      <point x="668" y="491" type="curve" smooth="yes"/>
      <point x="668" y="732"/>
      <point x="576" y="819"/>
      <point x="476" y="819" type="curve" smooth="yes"/>
      <point x="384" y="819"/>
      <point x="284" y="736"/>
    </contour>
  </outline>
</glyph>
<glyph name="oslash" format="1">
  <advance width="950"/>
  <unicode hex="00F8"/>
  <outline>
    <contour>
      <point x="259" y="175" type="line"/>
      <point x="156" y="-121" type="line"/>
      <point x="303" y="-176" type="line"/>
      <point x="393" y="84" type="line"/>
    </contour>
    <contour>
      <point x="668" y="874" type="line"/>
      <point x="774" y="1181" type="line"/>
      <point x="627" y="1236" type="line"/>
      <point x="532" y="963" type="line"/>
    </contour>
    <component base="o"/>
  </outline>
</glyph>
<glyph name="thorn" format="1">
  <advance width="989"/>
  <unicode hex="00FE"/>
  <outline>
    <contour>
      <point x="167" y="-354" type="line"/>
      <point x="348" y="-354" type="line"/>
      <point x="348" y="1593" type="line"/>
      <point x="167" y="1593" type="line"/>
    </contour>
    <component base="p" xOffset="14"/>
  </outline>
</glyph>
<glyph name="Aogonek" format="1">
  <advance width="1011"/>
  <unicode hex="0104"/>
  <outline>
    <contour>
      <point x="504" y="1042" type="line"/>
      <point x="546" y="852" type="line"/>
      <point x="773" y="0" type="line"/>
      <point x="977" y="0" type="line"/>
      <point x="505" y="1642" type="line"/>
      <point x="33" y="0" type="line"/>
      <point x="237" y="0" type="line"/>
      <point x="464" y="852" type="line"/>
    </contour>
    <contour>
      <point x="237" y="265" type="line"/>
      <point x="782" y="265" type="line"/>
      <point x="782" y="441" type="line"/>
      <point x="237" y="441" type="line"/>
    </contour>
    <contour>
      <point x="951" y="-365" type="line"/>
      <point x="826" y="-376"/>
      <point x="765" y="-316"/>
      <point x="755" y="-255" type="curve" smooth="yes"/>
      <point x="734" y="-132"/>
      <point x="895" y="-25"/>
      <point x="977" y="0" type="curve"/>
      <point x="899" y="67" type="line"/>
      <point x="818" y="45" type="line"/>
      <point x="638" y="-34"/>
      <point x="531" y="-170"/>
      <point x="557" y="-308" type="curve" smooth="yes"/>
      <point x="585" y="-464"/>
      <point x="741" y="-534"/>
      <point x="950" y="-506" type="curve"/>
    </contour>
  </outline>
</glyph>
<glyph name="aogonek" format="1">
  <advance width="907"/>
  <unicode hex="0105"/>
  <outline>
    <contour>
      <point x="752" y="-19" type="line"/>
      <point x="752" y="719" type="line" smooth="yes"/>
      <point x="752" y="945"/>
      <point x="622" y="1081"/>
      <point x="425" y="1081" type="curve" smooth="yes"/>
      <point x="350" y="1081"/>
      <point x="248" y="1061"/>
      <point x="163" y="1019" type="curve"/>
      <point x="232" y="859" type="line"/>
      <point x="290" y="891"/>
      <point x="349" y="912"/>
      <point x="403" y="912" type="curve" smooth="yes"/>
      <point x="507" y="912"/>
      <point x="572" y="836"/>
      <point x="572" y="712" type="curve" smooth="yes"/>
      <point x="572" y="68" type="line"/>
    </contour>
    <contour>
      <point x="598" y="247" type="line"/>
      <point x="593" y="201"/>
      <point x="523" y="156"/>
      <point x="451" y="156" type="curve" smooth="yes"/>
      <point x="359" y="156"/>
      <point x="296" y="230"/>
      <point x="296" y="329" type="curve" smooth="yes"/>
      <point x="296" y="457"/>
      <point x="400" y="534"/>
      <point x="573" y="531" type="curve"/>
      <point x="722" y="531" type="line"/>
      <point x="722" y="690" type="line"/>
      <point x="572" y="691" type="line"/>
      <point x="270" y="676"/>
      <point x="111" y="547"/>
      <point x="111" y="332" type="curve" smooth="yes"/>
      <point x="111" y="136"/>
      <point x="244" y="-19"/>
      <point x="429" y="-19" type="curve" smooth="yes"/>
      <point x="598" y="-19"/>
      <point x="725" y="109"/>
      <point x="725" y="267" type="curve"/>
    </contour>
    <contour>
      <point x="753" y="-365" type="line"/>
      <point x="628" y="-376"/>
      <point x="567" y="-316"/>
      <point x="557" y="-255" type="curve" smooth="yes"/>
      <point x="536" y="-132"/>
      <point x="672" y="-44"/>
      <point x="754" y="-19" type="curve"/>
      <point x="701" y="67" type="line"/>
      <point x="620" y="45" type="line"/>
      <point x="441" y="-34"/>
      <point x="333" y="-170"/>
      <point x="359" y="-308" type="curve" smooth="yes"/>
      <point x="387" y="-464"/>
      <point x="544" y="-534"/>
      <point x="752" y="-506" type="curve"/>
    </contour>
  </outline>
</glyph>
<glyph name="dcaron" format="1">
  <advance width="1195"/>
  <unicode hex="010F"/>
  <outline>
    <contour>
      <point x="1201" y="1425" type="curve" smooth="yes"/>
      <point x="1201" y="1537"/>
      <point x="1132" y="1594"/>
      <point x="1054" y="1594" type="curve" smooth="yes"/>
      <point x="970" y="1594"/>
      <point x="924" y="1531"/>
      <point x="924" y="1460" type="curve" smooth="yes"/>
      <point x="924" y="1393"/>
      <point x="964" y="1334"/>
      <point x="1040" y="1328" type="curve"/>
      <point x="1025" y="1274"/>
      <point x="1002" y="1181"/>
      <point x="955" y="1128" type="curve"/>
      <point x="1043" y="1063" type="line"/>
      <point x="1166" y="1201"/>
      <point x="1201" y="1321"/>
    </contour>
    <component base="d" xOffset="-5"/>
  </outline>
</glyph>
<glyph name="Dcroat" format="1">
  <advance width="987"/>
  <unicode hex="0110"/>
  <outline>
    <contour>
      <point x="507" y="716" type="line"/>
      <point x="507" y="884" type="line"/>
      <point x="60" y="884" type="line"/>
      <point x="60" y="716" type="line"/>
    </contour>
    <component base="D" xOffset="-5"/>
  </outline>
</glyph>
<glyph name="Eogonek" format="1">
  <advance width="851"/>
  <unicode hex="0118"/>
  <outline>
    <contour>
      <point x="178" y="0" type="line"/>
      <point x="725" y="0" type="line"/>
      <point x="725" y="176" type="line"/>
      <point x="368" y="176" type="line"/>
      <point x="368" y="629" type="line"/>
      <point x="674" y="629" type="line"/>
      <point x="674" y="805" type="line"/>
      <point x="368" y="805" type="line"/>
      <point x="368" y="1417" type="line"/>
      <point x="725" y="1417" type="line"/>
      <point x="725" y="1593" type="line"/>
      <point x="178" y="1593" type="line"/>
    </contour>
    <contour>
      <point x="709" y="-365" type="line"/>
      <point x="584" y="-376"/>
      <point x="523" y="-316"/>
      <point x="513" y="-255" type="curve" smooth="yes"/>
      <point x="493" y="-132"/>
      <point x="644" y="-25"/>
      <point x="725" y="0" type="curve"/>
      <point x="647" y="67" type="line"/>
      <point x="566" y="45" type="line"/>
      <point x="386" y="-34"/>
      <point x="290" y="-170"/>
      <point x="315" y="-308" type="curve" smooth="yes"/>
      <point x="344" y="-464"/>
      <point x="500" y="-534"/>
      <point x="708" y="-506" type="curve"/>
    </contour>
  </outline>
</glyph>
<glyph name="eogonek" format="1">
  <advance width="889"/>
  <unicode hex="0119"/>
  <outline>
    <contour>
      <point x="282" y="540" type="curve" smooth="yes"/>
      <point x="282" y="781"/>
      <point x="367" y="906"/>
      <point x="478" y="906" type="curve" smooth="yes"/>
      <point x="555" y="906"/>
      <point x="619" y="847"/>
      <point x="606" y="623" type="curve"/>
      <point x="251" y="623" type="line"/>
      <point x="251" y="456" type="line"/>
      <point x="773" y="455" type="line"/>
      <point x="841" y="833"/>
      <point x="717" y="1081"/>
      <point x="482" y="1081" type="curve" smooth="yes"/>
      <point x="280" y="1081"/>
      <point x="97" y="899"/>
      <point x="97" y="538" type="curve" smooth="yes"/>
      <point x="97" y="187"/>
      <point x="270" y="-19"/>
      <point x="503" y="-19" type="curve" smooth="yes"/>
      <point x="597" y="-19"/>
      <point x="698" y="15"/>
      <point x="758" y="53" type="curve"/>
      <point x="688" y="205" type="line"/>
      <point x="656" y="180"/>
      <point x="587" y="150"/>
      <point x="524" y="150" type="curve" smooth="yes"/>
      <point x="411" y="150"/>
      <point x="282" y="244"/>
    </contour>
    <contour>
      <point x="757" y="-365" type="line"/>
      <point x="632" y="-376"/>
      <point x="571" y="-316"/>
      <point x="561" y="-255" type="curve" smooth="yes"/>
      <point x="540" y="-132"/>
      <point x="594" y="-55"/>
      <point x="758" y="53" type="curve"/>
      <point x="627" y="53" type="line"/>
      <point x="452" y="0"/>
      <point x="338" y="-170"/>
      <point x="363" y="-308" type="curve" smooth="yes"/>
      <point x="392" y="-464"/>
      <point x="548" y="-534"/>
      <point x="756" y="-506" type="curve"/>
    </contour>
  </outline>
</glyph>
<glyph name="Hbar" format="1">
  <advance width="1094"/>
  <unicode hex="0126"/>
  <outline>
    <contour>
      <point x="1045" y="851" type="line"/>
      <point x="1045" y="1019" type="line"/>
      <point x="44" y="1019" type="line"/>
      <point x="44" y="851" type="line"/>
    </contour>
    <component base="H" xOffset="20"/>
  </outline>
</glyph>
<glyph name="hbar" format="1">
  <advance width="1008"/>
  <unicode hex="0127"/>
  <outline>
    <contour>
      <point x="464" y="1230" type="line"/>
      <point x="464" y="1388" type="line"/>
      <point x="37" y="1388" type="line"/>
      <point x="37" y="1230" type="line"/>
    </contour>
    <component base="h" xOffset="-5"/>
  </outline>
</glyph>
<glyph name="Iogonek" format="1">
  <advance width="547"/>
  <unicode hex="012E"/>
  <outline>
    <contour>
      <point x="368" y="0" type="line"/>
      <point x="368" y="1593" type="line"/>
      <point x="178" y="1593" type="line"/>
      <point x="178" y="0" type="line"/>
    </contour>
    <contour>
      <point x="372" y="-365" type="line"/>
      <point x="248" y="-376"/>
      <point x="176" y="-316"/>
      <point x="166" y="-255" type="curve" smooth="yes"/>
      <point x="146" y="-132"/>
      <point x="287" y="-25"/>
      <point x="368" y="0" type="curve"/>
      <point x="310" y="67" type="line"/>
      <point x="229" y="54" type="line"/>
      <point x="50" y="-15"/>
      <point x="-57" y="-170"/>
      <point x="-32" y="-308" type="curve" smooth="yes"/>
      <point x="-3" y="-464"/>
      <point x="163" y="-534"/>
      <point x="371" y="-506" type="curve"/>
    </contour>
  </outline>
</glyph>
<glyph name="iogonek" format="1">
  <advance width="549"/>
  <unicode hex="012F"/>
  <outline>
    <contour>
      <point x="359" y="0" type="line"/>
      <point x="359" y="1062" type="line"/>
      <point x="177" y="1062" type="line"/>
      <point x="177" y="0" type="line"/>
    </contour>
    <contour>
      <point x="406" y="1368" type="curve" smooth="yes"/>
      <point x="406" y="1434"/>
      <point x="354" y="1492"/>
      <point x="274" y="1492" type="curve" smooth="yes"/>
      <point x="195" y="1492"/>
      <point x="143" y="1434"/>
      <point x="143" y="1368" type="curve" smooth="yes"/>
      <point x="143" y="1302"/>
      <point x="195" y="1244"/>
      <point x="274" y="1244" type="curve" smooth="yes"/>
      <point x="354" y="1244"/>
      <point x="406" y="1302"/>
    </contour>
    <contour>
      <point x="363" y="-365" type="line"/>
      <point x="239" y="-376"/>
      <point x="167" y="-316"/>
      <point x="157" y="-255" type="curve" smooth="yes"/>
      <point x="137" y="-132"/>
      <point x="277" y="-25"/>
      <point x="359" y="0" type="curve"/>
      <point x="301" y="67" type="line"/>
      <point x="220" y="54" type="line"/>
      <point x="41" y="-15"/>
      <point x="-66" y="-170"/>
      <point x="-41" y="-308" type="curve" smooth="yes"/>
      <point x="-12" y="-464"/>
      <point x="154" y="-534"/>
      <point x="362" y="-506" type="curve"/>
    </contour>
  </outline>
</glyph>
<glyph name="dotlessi" format="1">
  <advance width="526"/>
  <unicode hex="0131"/>
  <outline>
    <contour>
      <point x="354" y="0" type="line"/>
      <point x="354" y="1062" type="line"/>
      <point x="172" y="1062" type="line"/>
      <point x="172" y="0" type="line"/>
    </contour>
    <contour>
      <point x="263" y="1700" type="move" name="top"/>
    </contour>
  </outline>
</glyph>
<glyph name="IJ" format="1">
  <advance width="1011"/>
  <unicode hex="0132"/>
  <outline>
    <contour>
      <point x="356" y="480" type="line"/>
      <point x="356" y="1593" type="line"/>
      <point x="170" y="1593" type="line"/>
      <point x="170" y="480" type="line"/>
    </contour>
    <contour>
      <point x="655" y="1593" type="line"/>
      <point x="655" y="797" type="line" smooth="yes"/>
      <point x="655" y="503"/>
      <point x="530" y="284"/>
      <point x="171" y="156" type="curve"/>
      <point x="171" y="-18" type="line"/>
      <point x="579" y="80"/>
      <point x="841" y="322"/>
      <point x="841" y="798" type="curve" smooth="yes"/>
      <point x="841" y="1593" type="line"/>
    </contour>
  </outline>
</glyph>
<glyph name="kgreenlandic" format="1">
  <advance width="940"/>
  <unicode hex="0138"/>
  <outline>
    <contour>
      <point x="328" y="0" type="line"/>
      <point x="328" y="1062" type="line"/>
      <point x="150" y="1062" type="line"/>
      <point x="150" y="0" type="line"/>
    </contour>
    <contour>
      <point x="431" y="383" type="line"/>
      <point x="814" y="1063" type="line"/>
      <point x="624" y="1063" type="line"/>
      <point x="310" y="489" type="line"/>
    </contour>
    <contour>
      <point x="867" y="0" type="line"/>
      <point x="461" y="553" type="line"/>
      <point x="277" y="509" type="line"/>
      <point x="647" y="0" type="line"/>
    </contour>
  </outline>
</glyph>
<glyph name="lcaron" format="1">
  <advance width="740"/>
  <unicode hex="013E"/>
  <outline>
    <contour>
      <point x="745" y="1425" type="curve" smooth="yes"/>
      <point x="745" y="1537"/>
      <point x="676" y="1594"/>
      <point x="598" y="1594" type="curve" smooth="yes"/>
      <point x="514" y="1594"/>
      <point x="468" y="1531"/>
      <point x="468" y="1460" type="curve" smooth="yes"/>
      <point x="468" y="1393"/>
      <point x="508" y="1334"/>
      <point x="584" y="1328" type="curve"/>
      <point x="569" y="1274"/>
      <point x="546" y="1181"/>
      <point x="499" y="1128" type="curve"/>
      <point x="587" y="1063" type="line"/>
      <point x="710" y="1201"/>
      <point x="745" y="1321"/>
    </contour>
    <component base="l" xOffset="-24"/>
  </outline>
</glyph>
<glyph name="Lslash" format="1">
  <advance width="807"/>
  <unicode hex="0141"/>
  <outline>
    <contour>
      <point x="640" y="971" type="line"/>
      <point x="547" y="1111" type="line"/>
      <point x="-22" y="740" type="line"/>
      <point x="71" y="600" type="line"/>
    </contour>
    <component base="L" xOffset="20"/>
  </outline>
</glyph>
<glyph name="lslash" format="1">
  <advance width="479"/>
  <unicode hex="0142"/>
  <outline>
    <contour>
      <point x="555" y="941" type="line"/>
      <point x="462" y="1081" type="line"/>
      <point x="-48" y="740" type="line"/>
      <point x="45" y="600" type="line"/>
    </contour>
    <component base="l" xOffset="-19"/>
  </outline>
</glyph>
<glyph name="Eng" format="1">
  <advance width="1163"/>
  <unicode hex="014A"/>
  <outline>
    <contour>
      <point x="797" y="1593" type="line"/>
      <point x="797" y="1281" type="line"/>
      <point x="795" y="1280" type="line"/>
      <point x="795" y="635" type="line"/>
      <point x="689" y="819" type="line"/>
      <point x="178" y="1654" type="line"/>
      <point x="178" y="0" type="line"/>
      <point x="368" y="0" type="line"/>
      <point x="368" y="796" type="line"/>
      <point x="362" y="970" type="line"/>
      <point x="473" y="796" type="line"/>
      <point x="795" y="272" type="line"/>
      <point x="795" y="-10" type="line" smooth="yes"/>
      <point x="795" y="-159"/>
      <point x="743" y="-256"/>
      <point x="616" y="-343" type="curve"/>
      <point x="718" y="-510" type="line"/>
      <point x="913" y="-404"/>
      <point x="985" y="-236"/>
      <point x="985" y="-30" type="curve" smooth="yes"/>
      <point x="985" y="1593" type="line"/>
    </contour>
  </outline>
</glyph>
<glyph name="eng" format="1">
  <advance width="1027"/>
  <unicode hex="014B"/>
  <outline>
    <contour>
      <point x="153" y="0" type="line"/>
      <point x="334" y="0" type="line"/>
      <point x="334" y="800" type="line"/>
      <point x="390" y="866"/>
      <point x="462" y="897"/>
      <point x="526" y="897" type="curve" smooth="yes"/>
      <point x="636" y="897"/>
      <point x="693" y="822"/>
      <point x="693" y="686" type="curve" smooth="yes"/>
      <point x="691" y="123" type="line" smooth="yes"/>
      <point x="691" y="-19"/>
      <point x="655" y="-124"/>
      <point x="522" y="-210" type="curve"/>
      <point x="611" y="-354" type="line"/>
      <point x="806" y="-248"/>
      <point x="873" y="-83"/>
      <point x="873" y="123" type="curve" smooth="yes"/>
      <point x="875" y="688" type="line" smooth="yes"/>
      <point x="875" y="939"/>
      <point x="763" y="1078"/>
      <point x="547" y="1078" type="curve" smooth="yes"/>
      <point x="461" y="1078"/>
      <point x="367" y="1032"/>
      <point x="306" y="974" type="curve"/>
      <point x="153" y="1081" type="line"/>
    </contour>
  </outline>
</glyph>
<glyph name="OE" format="1">
  <advance width="1455"/>
  <unicode hex="0152"/>
  <outline>
    <contour>
      <point x="598" y="0" type="line"/>
      <point x="1335" y="0" type="line"/>
      <point x="1335" y="176" type="line"/>
      <point x="978" y="176" type="line"/>
      <point x="978" y="629" type="line"/>
      <point x="1284" y="629" type="line"/>
      <point x="1284" y="805" type="line"/>
      <point x="978" y="805" type="line"/>
      <point x="978" y="1417" type="line"/>
      <point x="1335" y="1417" type="line"/>
      <point x="1335" y="1593" type="line"/>
      <point x="617" y="1593" type="line"/>
      <point x="788" y="1426" type="line"/>
      <point x="788" y="153" type="line"/>
    </contour>
    <contour>
      <point x="539" y="-18" type="curve" smooth="yes"/>
      <point x="733" y="-18"/>
      <point x="945" y="130"/>
      <point x="945" y="791" type="curve" smooth="yes"/>
      <point x="945" y="1455"/>
      <point x="750" y="1612"/>
      <point x="545" y="1612" type="curve" smooth="yes"/>
      <point x="340" y="1612"/>
      <point x="97" y="1454"/>
      <point x="97" y="791" type="curve" smooth="yes"/>
      <point x="97" y="130"/>
      <point x="346" y="-18"/>
    </contour>
    <contour>
      <point x="545" y="1437" type="curve" smooth="yes"/>
      <point x="666" y="1437"/>
      <point x="789" y="1283"/>
      <point x="789" y="789" type="curve" smooth="yes"/>
      <point x="789" y="304"/>
      <point x="654" y="165"/>
      <point x="539" y="165" type="curve" smooth="yes"/>
      <point x="425" y="165"/>
      <point x="294" y="304"/>
      <point x="294" y="789" type="curve" smooth="yes"/>
      <point x="294" y="1283"/>
      <point x="423" y="1437"/>
    </contour>
  </outline>
</glyph>
<glyph name="oe" format="1">
  <advance width="1479"/>
  <unicode hex="0153"/>
  <outline>
    <contour>
      <point x="484" y="156" type="curve"/>
      <point x="387" y="156"/>
      <point x="282" y="253"/>
      <point x="282" y="531" type="curve" smooth="yes"/>
      <point x="282" y="809"/>
      <point x="387" y="906"/>
      <point x="484" y="906" type="curve" smooth="yes"/>
      <point x="581" y="906"/>
      <point x="686" y="809"/>
      <point x="686" y="531" type="curve" smooth="yes"/>
      <point x="686" y="253"/>
      <point x="581" y="156"/>
    </contour>
    <contour>
      <point x="484" y="-19" type="curve" smooth="yes"/>
      <point x="687" y="-19"/>
      <point x="871" y="163"/>
      <point x="871" y="531" type="curve" smooth="yes"/>
      <point x="871" y="899"/>
      <point x="687" y="1081"/>
      <point x="484" y="1081" type="curve" smooth="yes"/>
      <point x="281" y="1081"/>
      <point x="93" y="899"/>
      <point x="93" y="531" type="curve" smooth="yes"/>
      <point x="93" y="163"/>
      <point x="281" y="-19"/>
    </contour>
    <contour>
      <point x="870" y="533" type="curve"/>
      <point x="870" y="781"/>
      <point x="959" y="906"/>
      <point x="1060" y="906" type="curve" smooth="yes"/>
      <point x="1148" y="906"/>
      <point x="1208" y="850"/>
      <point x="1195" y="623" type="curve"/>
      <point x="840" y="623" type="line"/>
      <point x="840" y="456" type="line"/>
      <point x="1363" y="455" type="line"/>
      <point x="1431" y="833"/>
      <point x="1307" y="1079"/>
      <point x="1072" y="1079" type="curve" smooth="yes"/>
      <point x="870" y="1079"/>
      <point x="688" y="905"/>
      <point x="688" y="527" type="curve" smooth="yes"/>
      <point x="688" y="187"/>
      <point x="860" y="-19"/>
      <point x="1099" y="-19" type="curve" smooth="yes"/>
      <point x="1177" y="-19"/>
      <point x="1285" y="13"/>
      <point x="1347" y="53" type="curve"/>
      <point x="1278" y="205" type="line"/>
      <point x="1248" y="181"/>
      <point x="1172" y="150"/>
      <point x="1121" y="150" type="curve" smooth="yes"/>
      <point x="1001" y="150"/>
      <point x="870" y="244"/>
    </contour>
  </outline>
</glyph>
<glyph name="Tbar" format="1">
  <advance width="825"/>
  <unicode hex="0166"/>
  <outline>
    <contour>
      <point x="659" y="854" type="line"/>
      <point x="659" y="1022" type="line"/>
      <point x="172" y="1022" type="line"/>
      <point x="172" y="854" type="line"/>
    </contour>
    <component base="T" xOffset="51"/>
  </outline>
</glyph>
<glyph name="tbar" format="1">
  <advance width="633"/>
  <unicode hex="0167"/>
  <outline>
    <contour>
      <point x="525" y="513" type="line"/>
      <point x="525" y="681" type="line"/>
      <point x="98" y="681" type="line"/>
      <point x="98" y="513" type="line"/>
    </contour>
    <component base="t"/>
  </outline>
</glyph>
<glyph name="Uogonek" format="1">
  <advance width="1119"/>
  <unicode hex="0172"/>
  <outline>
    <contour>
      <point x="559" y="-19" type="curve" smooth="yes"/>
      <point x="799" y="-19"/>
      <point x="941" y="121"/>
      <point x="941" y="443" type="curve" smooth="yes"/>
      <point x="941" y="1593" type="line"/>
      <point x="752" y="1593" type="line"/>
      <point x="752" y="466" type="line" smooth="yes"/>
      <point x="752" y="245"/>
      <point x="681" y="165"/>
      <point x="559" y="165" type="curve" smooth="yes"/>
      <point x="436" y="165"/>
      <point x="366" y="245"/>
      <point x="366" y="466" type="curve" smooth="yes"/>
      <point x="366" y="1593" type="line"/>
      <point x="176" y="1593" type="line"/>
      <point x="176" y="443" type="line" smooth="yes"/>
      <point x="176" y="121"/>
      <point x="319" y="-19"/>
    </contour>
    <contour>
      <point x="787" y="-365" type="line"/>
      <point x="663" y="-376"/>
      <point x="602" y="-316"/>
      <point x="591" y="-255" type="curve" smooth="yes"/>
      <point x="571" y="-132"/>
      <point x="624" y="-55"/>
      <point x="788" y="53" type="curve"/>
      <point x="658" y="53" type="line"/>
      <point x="482" y="0"/>
      <point x="368" y="-170"/>
      <point x="394" y="-308" type="curve" smooth="yes"/>
      <point x="422" y="-464"/>
      <point x="578" y="-534"/>
      <point x="786" y="-506" type="curve"/>
    </contour>
  </outline>
</glyph>
<glyph name="uogonek" format="1">
  <advance width="1011"/>
  <unicode hex="0173"/>
  <outline>
    <contour>
      <point x="858" y="1062" type="line"/>
      <point x="676" y="1062" type="line"/>
      <point x="676" y="107" type="line"/>
      <point x="858" y="-19" type="line"/>
    </contour>
    <contour>
      <point x="710" y="315" type="line"/>
      <point x="676" y="230"/>
      <point x="615" y="161"/>
      <point x="501" y="161" type="curve" smooth="yes"/>
      <point x="391" y="161"/>
      <point x="334" y="230"/>
      <point x="334" y="370" type="curve" smooth="yes"/>
      <point x="334" y="1062" type="line"/>
      <point x="153" y="1062" type="line"/>
      <point x="153" y="327" type="line" smooth="yes"/>
      <point x="153" y="102"/>
      <point x="289" y="-19"/>
      <point x="458" y="-19" type="curve" smooth="yes"/>
      <point x="616" y="-19"/>
      <point x="734" y="131"/>
      <point x="788" y="190" type="curve"/>
    </contour>
    <contour>
      <point x="857" y="-365" type="line"/>
      <point x="732" y="-376"/>
      <point x="671" y="-316"/>
      <point x="661" y="-255" type="curve" smooth="yes"/>
      <point x="640" y="-132"/>
      <point x="776" y="-44"/>
      <point x="858" y="-19" type="curve"/>
      <point x="805" y="67" type="line"/>
      <point x="773" y="54" type="line"/>
      <point x="525" y="-44"/>
      <point x="437" y="-170"/>
      <point x="463" y="-308" type="curve" smooth="yes"/>
      <point x="492" y="-464"/>
      <point x="648" y="-534"/>
      <point x="856" y="-506" type="curve"/>
    </contour>
  </outline>
</glyph>
<glyph name="florin" format="1">
  <advance width="576"/>
  <unicode hex="0192"/>
  <outline>
    <contour>
      <point x="225" y="0" type="line"/>
      <point x="405" y="1120" type="line" smooth="yes"/>
      <point x="431" y="1288"/>
      <point x="512" y="1419"/>
      <point x="643" y="1437" type="curve"/>
      <point x="671" y="1612" type="line"/>
      <point x="446" y="1604"/>
      <point x="267" y="1396"/>
      <point x="223" y="1122" type="curve" smooth="yes"/>
      <point x="44" y="0" type="line"/>
    </contour>
    <contour>
      <point x="550" y="894" type="line"/>
      <point x="577" y="1062" type="line"/>
      <point x="132" y="1062" type="line"/>
      <point x="104" y="894" type="line"/>
    </contour>
  </outline>
</glyph>
<glyph name="dotlessj" format="1">
  <advance width="526"/>
  <unicode hex="0237"/>
  <outline>
    <contour>
      <point x="366" y="1062" type="line"/>
      <point x="184" y="1062" type="line"/>
      <point x="184" y="123" type="line" smooth="yes"/>
      <point x="184" y="-19"/>
      <point x="147" y="-124"/>
      <point x="15" y="-210" type="curve"/>
      <point x="104" y="-354" type="line"/>
      <point x="298" y="-248"/>
      <point x="366" y="-83"/>
      <point x="366" y="123" type="curve" smooth="yes"/>
    </contour>
    <contour>
      <point x="302" y="1700" type="move" name="top"/>
    </contour>
  </outline>
</glyph>
<glyph name="circumflex" format="1">
  <advance width="776"/>
  <unicode hex="02C6"/>
  <outline>
    <contour>
      <point x="387" y="1427" type="line"/>
      <point x="588" y="1266" type="line"/>
      <point x="680" y="1374" type="line"/>
      <point x="387" y="1612" type="line"/>
      <point x="94" y="1374" type="line"/>
      <point x="186" y="1266" type="line"/>
    </contour>
    <contour>
      <point x="387" y="1700" type="move" name="_top"/>
    </contour>
  </outline>
</glyph>
<glyph name="caron" format="1">
  <advance width="776"/>
  <unicode hex="02C7"/>
  <outline>
    <contour>
      <point x="186" y="1612" type="line"/>
      <point x="94" y="1504" type="line"/>
      <point x="387" y="1266" type="line"/>
      <point x="680" y="1504" type="line"/>
      <point x="588" y="1612" type="line"/>
      <point x="387" y="1451" type="line"/>
    </contour>
    <contour>
      <point x="387" y="1700" type="move" name="_top"/>
    </contour>
  </outline>
</glyph>
<glyph name="breve" format="1">
  <advance width="776"/>
  <unicode hex="02D8"/>
  <outline>
    <contour>
      <point x="387" y="1271" type="curve" smooth="yes"/>
      <point x="616" y="1271"/>
      <point x="696" y="1441"/>
      <point x="683" y="1592" type="curve"/>
      <point x="558" y="1592" type="line"/>
      <point x="526" y="1469"/>
      <point x="472" y="1426"/>
      <point x="387" y="1426" type="curve" smooth="yes"/>
      <point x="302" y="1426"/>
      <point x="248" y="1469"/>
      <point x="216" y="1592" type="curve"/>
      <point x="91" y="1592" type="line"/>
      <point x="78" y="1441"/>
      <point x="158" y="1271"/>
    </contour>
    <contour>
      <point x="387" y="1700" type="move" name="_top"/>
    </contour>
  </outline>
</glyph>
<glyph name="dotaccent" format="1">
  <advance width="510"/>
  <unicode hex="02D9"/>
  <outline>
    <contour>
      <point x="384" y="1368" type="curve" smooth="yes"/>
      <point x="384" y="1434"/>
      <point x="333" y="1492"/>
      <point x="255" y="1492" type="curve" smooth="yes"/>
      <point x="177" y="1492"/>
      <point x="126" y="1434"/>
      <point x="126" y="1368" type="curve" smooth="yes"/>
      <point x="126" y="1302"/>
      <point x="177" y="1244"/>
      <point x="255" y="1244" type="curve" smooth="yes"/>
      <point x="333" y="1244"/>
      <point x="384" y="1302"/>
    </contour>
    <contour>
      <point x="255" y="1700" type="move" name="_top"/>
    </contour>
  </outline>
</glyph>
<glyph name="ring" format="1">
  <advance width="686"/>
  <unicode hex="02DA"/>
  <outline>
    <contour>
      <point x="573" y="1485" type="curve" smooth="yes"/>
      <point x="573" y="1623"/>
      <point x="465" y="1717"/>
      <point x="345" y="1717" type="curve" smooth="yes"/>
      <point x="225" y="1717"/>
      <point x="117" y="1623"/>
      <point x="117" y="1485" type="curve" smooth="yes"/>
      <point x="117" y="1347"/>
      <point x="225" y="1253"/>
      <point x="345" y="1253" type="curve" smooth="yes"/>
      <point x="465" y="1253"/>
      <point x="573" y="1347"/>
    </contour>
    <contour>
      <point x="444" y="1485" type="curve" smooth="yes"/>
      <point x="444" y="1416"/>
      <point x="405" y="1380"/>
      <point x="345" y="1380" type="curve" smooth="yes"/>
      <point x="285" y="1380"/>
      <point x="246" y="1416"/>
      <point x="246" y="1485" type="curve" smooth="yes"/>
      <point x="246" y="1554"/>
      <point x="285" y="1590"/>
      <point x="345" y="1590" type="curve" smooth="yes"/>
      <point x="405" y="1590"/>
      <point x="444" y="1554"/>
    </contour>
    <contour>
      <point x="345" y="1700" type="move" name="_top"/>
    </contour>
  </outline>
</glyph>
<glyph name="tilde" format="1">
  <advance width="854"/>
  <unicode hex="02DC"/>
  <outline>
    <contour>
      <point x="756" y="1407" type="line"/>
      <point x="716" y="1337"/>
      <point x="630" y="1262"/>
      <point x="554" y="1262" type="curve" smooth="yes"/>
      <point x="451" y="1262"/>
      <point x="389" y="1338"/>
      <point x="315" y="1338" type="curve" smooth="yes"/>
      <point x="277" y="1338"/>
      <point x="223" y="1318"/>
      <point x="176" y="1262" type="curve"/>
      <point x="100" y="1359" type="line"/>
      <point x="140" y="1429"/>
      <point x="226" y="1504"/>
      <point x="302" y="1504" type="curve" smooth="yes"/>
      <point x="405" y="1504"/>
      <point x="467" y="1428"/>
      <point x="541" y="1428" type="curve" smooth="yes"/>
      <point x="579" y="1428"/>
      <point x="633" y="1448"/>
      <point x="680" y="1504" type="curve"/>
    </contour>
    <contour>
      <point x="428" y="1700" type="move" name="_top"/>
    </contour>
  </outline>
</glyph>
<glyph name="hungarumlaut" format="1">
  <advance width="1022"/>
  <unicode hex="02DD"/>
  <outline>
    <contour>
      <point x="619" y="1528" type="line"/>
      <point x="520" y="1631" type="line"/>
      <point x="241" y="1309" type="line"/>
      <point x="320" y="1226" type="line"/>
    </contour>
    <contour>
      <point x="1027" y="1528" type="line"/>
      <point x="928" y="1631" type="line"/>
      <point x="629" y="1309" type="line"/>
      <point x="708" y="1226" type="line"/>
    </contour>
    <contour>
      <point x="527" y="1700" type="move" name="_top"/>
    </contour>
  </outline>
</glyph>
<glyph name="Delta" format="1">
  <advance width="1212"/>
  <unicode hex="0394"/>
  <unicode hex="2206"/>
  <outline>
    <contour>
      <point x="1072" y="0" type="line"/>
      <point x="605" y="1530" type="line"/>
      <point x="139" y="0" type="line"/>
    </contour>
    <contour>
      <point x="605" y="927" type="line"/>
      <point x="840" y="162" type="line"/>
      <point x="379" y="162" type="line"/>
    </contour>
  </outline>
</glyph>
<glyph name="Omega" format="1">
  <advance width="1392"/>
  <unicode hex="03A9"/>
  <unicode hex="2126"/>
  <outline>
    <contour>
      <point x="171" y="0" type="line"/>
      <point x="619" y="0" type="line"/>
      <point x="581" y="67" type="line"/>
      <point x="551" y="169" type="line"/>
      <point x="171" y="170" type="line"/>
    </contour>
    <contour>
      <point x="1220" y="170" type="line"/>
      <point x="836" y="169" type="line"/>
      <point x="810" y="67" type="line"/>
      <point x="771" y="0" type="line"/>
      <point x="1220" y="0" type="line"/>
    </contour>
    <contour>
      <point x="771" y="0" type="line"/>
      <point x="841" y="2"/>
      <point x="887" y="40"/>
      <point x="956" y="151" type="curve" smooth="yes"/>
      <point x="1071" y="338"/>
      <point x="1191" y="615"/>
      <point x="1191" y="883" type="curve" smooth="yes"/>
      <point x="1191" y="1544"/>
      <point x="861" y="1611"/>
      <point x="698" y="1611" type="curve" smooth="yes"/>
      <point x="534" y="1611"/>
      <point x="204" y="1544"/>
      <point x="204" y="883" type="curve" smooth="yes"/>
      <point x="204" y="615"/>
      <point x="321" y="335"/>
      <point x="437" y="149" type="curve" smooth="yes"/>
      <point x="505" y="38"/>
      <point x="549" y="1"/>
      <point x="619" y="0" type="curve"/>
      <point x="619" y="100" type="line"/>
      <point x="540" y="265"/>
      <point x="421" y="486"/>
      <point x="421" y="883" type="curve" smooth="yes"/>
      <point x="421" y="1368"/>
      <point x="583" y="1447"/>
      <point x="698" y="1447" type="curve" smooth="yes"/>
      <point x="812" y="1447"/>
      <point x="974" y="1368"/>
      <point x="974" y="883" type="curve" smooth="yes"/>
      <point x="974" y="486"/>
      <point x="850" y="266"/>
      <point x="771" y="100" type="curve"/>
    </contour>
  </outline>
</glyph>
<glyph name="pi" format="1">
  <advance width="1114"/>
  <unicode hex="03C0"/>
  <outline>
    <contour>
      <point x="634" y="864" type="line"/>
      <point x="424" y="864" type="line"/>
      <point x="343" y="1" type="line"/>
      <point x="152" y="1" type="line"/>
      <point x="244" y="864" type="line"/>
      <point x="79" y="864" type="line"/>
      <point x="79" y="1032" type="line"/>
      <point x="1000" y="1032" type="line"/>
      <point x="1000" y="864" type="line"/>
      <point x="822" y="864" type="line"/>
      <point x="822" y="215"/>
      <point x="826" y="152"/>
      <point x="912" y="152" type="curve" smooth="yes"/>
      <point x="924" y="152"/>
      <point x="981" y="155"/>
      <point x="996" y="160" type="curve"/>
      <point x="996" y="0" type="line"/>
      <point x="974" y="-3"/>
      <point x="916" y="-6"/>
      <point x="898" y="-6" type="curve" smooth="yes"/>
      <point x="675" y="-6"/>
      <point x="634" y="125"/>
      <point x="634" y="316" type="curve" smooth="yes"/>
    </contour>
  </outline>
</glyph>
<glyph name="endash" format="1">
  <advance width="926"/>
  <unicode hex="2013"/>
  <outline>
    <contour>
      <point x="775" y="531" type="line"/>
      <point x="775" y="699" type="line"/>
      <point x="150" y="699" type="line"/>
      <point x="150" y="531" type="line"/>
    </contour>
  </outline>
</glyph>
<glyph name="emdash" format="1">
  <advance width="1286"/>
  <unicode hex="2014"/>
  <outline>
    <contour>
      <point x="1136" y="531" type="line"/>
      <point x="1136" y="699" type="line"/>
      <point x="150" y="699" type="line"/>
      <point x="150" y="531" type="line"/>
    </contour>
  </outline>
</glyph>
<glyph name="quoteleft" format="1">
  <advance width="571"/>
  <unicode hex="2018"/>
  <outline>
    <contour>
      <point x="156" y="1231" type="curve" smooth="yes"/>
      <point x="156" y="1119"/>
      <point x="225" y="1062"/>
      <point x="303" y="1062" type="curve" smooth="yes"/>
      <point x="387" y="1062"/>
      <point x="442" y="1125"/>
      <point x="442" y="1196" type="curve" smooth="yes"/>
      <point x="442" y="1263"/>
      <point x="393" y="1322"/>
      <point x="317" y="1328" type="curve"/>
      <point x="332" y="1382"/>
      <point x="385" y="1455"/>
      <point x="442" y="1508" type="curve"/>
      <point x="354" y="1593" type="line"/>
      <point x="221" y="1455"/>
      <point x="156" y="1335"/>
    </contour>
  </outline>
</glyph>
<glyph name="quoteright" format="1">
  <advance width="571"/>
  <unicode hex="2019"/>
  <outline>
    <contour>
      <point x="415" y="1425" type="curve" smooth="yes"/>
      <point x="415" y="1537"/>
      <point x="346" y="1594"/>
      <point x="268" y="1594" type="curve" smooth="yes"/>
      <point x="184" y="1594"/>
      <point x="129" y="1531"/>
      <point x="129" y="1460" type="curve" smooth="yes"/>
      <point x="129" y="1393"/>
      <point x="178" y="1334"/>
      <point x="254" y="1328" type="curve"/>
      <point x="239" y="1274"/>
      <point x="186" y="1201"/>
      <point x="129" y="1148" type="curve"/>
      <point x="217" y="1063" type="line"/>
      <point x="350" y="1201"/>
      <point x="415" y="1321"/>
    </contour>
  </outline>
</glyph>
<glyph name="quotereversed" format="1">
  <advance width="571"/>
  <unicode hex="201B"/>
  <outline>
    <contour>
      <point x="129" y="1425" type="curve" smooth="yes"/>
      <point x="129" y="1321"/>
      <point x="194" y="1201"/>
      <point x="327" y="1063" type="curve"/>
      <point x="415" y="1148" type="line"/>
      <point x="358" y="1201"/>
      <point x="305" y="1274"/>
      <point x="290" y="1328" type="curve"/>
      <point x="366" y="1334"/>
      <point x="415" y="1393"/>
      <point x="415" y="1460" type="curve" smooth="yes"/>
      <point x="415" y="1531"/>
      <point x="360" y="1594"/>
      <point x="276" y="1594" type="curve" smooth="yes"/>
      <point x="198" y="1594"/>
      <point x="129" y="1537"/>
    </contour>
  </outline>
</glyph>
<glyph name="dagger" format="1">
  <advance width="868"/>
  <unicode hex="2020"/>
  <outline>
    <contour>
      <point x="358" y="170" type="line"/>
      <point x="509" y="170" type="line"/>
      <point x="509" y="1699" type="line"/>
      <point x="358" y="1699" type="line"/>
    </contour>
    <contour>
      <point x="674" y="1192" type="line"/>
      <point x="674" y="1360" type="line"/>
      <point x="194" y="1360" type="line"/>
      <point x="194" y="1192" type="line"/>
    </contour>
  </outline>
</glyph>
<glyph name="daggerdbl" format="1">
  <advance width="868"/>
  <unicode hex="2021"/>
  <outline>
    <contour>
      <point x="358" y="170" type="line"/>
      <point x="509" y="170" type="line"/>
      <point x="509" y="1699" type="line"/>
      <point x="358" y="1699" type="line"/>
    </contour>
    <contour>
      <point x="674" y="1192" type="line"/>
      <point x="674" y="1360" type="line"/>
      <point x="194" y="1360" type="line"/>
      <point x="194" y="1192" type="line"/>
    </contour>
    <contour>
      <point x="674" y="508" type="line"/>
      <point x="674" y="676" type="line"/>
      <point x="194" y="676" type="line"/>
      <point x="194" y="508" type="line"/>
    </contour>
  </outline>
</glyph>
<glyph name="guilsinglleft" format="1">
  <advance width="702"/>
  <unicode hex="2039"/>
  <outline>
    <contour>
      <point x="276" y="531" type="line"/>
      <point x="530" y="839" type="line"/>
      <point x="420" y="931" type="line"/>
      <point x="88" y="531" type="line"/>
      <point x="420" y="131" type="line"/>
      <point x="530" y="223" type="line"/>
    </contour>
  </outline>
</glyph>
<glyph name="guilsinglright" format="1">
  <advance width="702"/>
  <unicode hex="203A"/>
  <outline>
    <contour>
      <point x="88" y="223" type="line"/>
      <point x="198" y="131" type="line"/>
      <point x="530" y="531" type="line"/>
      <point x="198" y="931" type="line"/>
      <point x="88" y="839" type="line"/>
      <point x="342" y="531" type="line"/>
    </contour>
  </outline>
</glyph>
<glyph name="fraction" format="1">
  <advance width="1386"/>
  <unicode hex="2044"/>
  <outline>
    <contour>
      <point x="246" y="30" type="line"/>
      <point x="382" y="-33" type="line"/>
      <point x="1140" y="1549" type="line"/>
      <point x="1004" y="1612" type="line"/>
    </contour>
  </outline>
</glyph>
<glyph name="Euro" format="1">
  <advance width="1082"/>
  <unicode hex="20AC"/>
  <outline>
    <contour>
      <point x="761" y="835" type="line"/>
      <point x="761" y="1011" type="line"/>
      <point x="84" y="1011" type="line"/>
      <point x="84" y="835" type="line"/>
    </contour>
    <contour>
      <point x="761" y="531" type="line"/>
      <point x="761" y="707" type="line"/>
      <point x="84" y="707" type="line"/>
      <point x="84" y="531" type="line"/>
    </contour>
    <component base="C" xOffset="121"/>
  </outline>
</glyph>
<glyph name="trademark" format="1">
  <advance width="1872"/>
  <unicode hex="2122"/>
  <outline>
    <contour>
      <point x="547" y="681" type="line"/>
      <point x="547" y="1525" type="line"/>
      <point x="381" y="1525" type="line"/>
      <point x="381" y="681" type="line"/>
    </contour>
    <contour>
      <point x="171" y="1447" type="line"/>
      <point x="757" y="1447" type="line"/>
      <point x="757" y="1593" type="line"/>
      <point x="171" y="1593" type="line"/>
    </contour>
    <contour>
      <point x="1681" y="1593" type="line"/>
      <point x="1531" y="1593" type="line"/>
      <point x="1311" y="1132" type="line"/>
      <point x="1071" y="1593" type="line"/>
      <point x="920" y="1593" type="line"/>
      <point x="920" y="680" type="line"/>
      <point x="1086" y="680" type="line"/>
      <point x="1086" y="985" type="line"/>
      <point x="1080" y="1274" type="line"/>
      <point x="1310" y="801" type="line"/>
      <point x="1310" y="799" type="line"/>
      <point x="1310" y="800" type="line"/>
      <point x="1520" y="1274" type="line"/>
      <point x="1515" y="983" type="line"/>
      <point x="1515" y="680" type="line"/>
      <point x="1681" y="680" type="line"/>
    </contour>
  </outline>
</glyph>
<glyph name="partialdiff" format="1">
  <advance width="959"/>
  <unicode hex="2202"/>
  <outline>
    <contour>
      <point x="102" y="491" type="curve" smooth="yes"/>
      <point x="102" y="824"/>
      <point x="282" y="992"/>
      <point x="466" y="992" type="curve" smooth="yes"/>
      <point x="546" y="992"/>
      <point x="582" y="976"/>
      <point x="646" y="930" type="curve"/>
      <point x="627" y="1103"/>
      <point x="443" y="1282"/>
      <point x="210" y="1263" type="curve"/>
      <point x="176" y="1420" type="line"/>
      <point x="776" y="1440"/>
      <point x="872" y="989"/>
      <point x="872" y="590" type="curve" smooth="yes"/>
      <point x="872" y="183"/>
      <point x="721" y="-19"/>
      <point x="479" y="-19" type="curve" smooth="yes"/>
      <point x="267" y="-19"/>
      <point x="102" y="151"/>
    </contour>
    <contour>
      <point x="288" y="491" type="curve" smooth="yes"/>
      <point x="288" y="238"/>
      <point x="388" y="153"/>
      <point x="479" y="153" type="curve" smooth="yes"/>
      <point x="571" y="153"/>
      <point x="671" y="238"/>
      <point x="671" y="491" type="curve" smooth="yes"/>
      <point x="671" y="732"/>
      <point x="579" y="819"/>
      <point x="479" y="819" type="curve" smooth="yes"/>
      <point x="388" y="819"/>
      <point x="288" y="736"/>
    </contour>
  </outline>
</glyph>
<glyph name="product" format="1">
  <advance width="1084"/>
  <unicode hex="220F"/>
  <outline>
    <contour>
      <point x="363" y="-170" type="line"/>
      <point x="363" y="1417" type="line"/>
      <point x="721" y="1417" type="line"/>
      <point x="721" y="-170" type="line"/>
      <point x="911" y="-170" type="line"/>
      <point x="911" y="1593" type="line"/>
      <point x="173" y="1593" type="line"/>
      <point x="173" y="-170" type="line"/>
    </contour>
    <contour>
      <point x="542" y="1700" type="move" name="top"/>
    </contour>
    <contour>
      <point x="542" y="-170" type="move" name="btm"/>
    </contour>
  </outline>
</glyph>
<glyph name="summation" format="1">
  <advance width="868"/>
  <unicode hex="2211"/>
  <outline>
    <contour>
      <point x="71" y="-341" type="line"/>
      <point x="710" y="-341" type="line"/>
      <point x="710" y="-165" type="line"/>
      <point x="333" y="-165" type="line"/>
      <point x="659" y="680" type="line"/>
      <point x="333" y="1417" type="line"/>
      <point x="710" y="1417" type="line"/>
      <point x="710" y="1593" type="line"/>
      <point x="79" y="1593" type="line"/>
      <point x="461" y="680" type="line"/>
    </contour>
  </outline>
</glyph>
<glyph name="minus" format="1">
  <advance width="727"/>
  <unicode hex="2212"/>
  <outline>
    <contour>
      <point x="577" y="531" type="line"/>
      <point x="577" y="699" type="line"/>
      <point x="150" y="699" type="line"/>
      <point x="150" y="531" type="line"/>
    </contour>
  </outline>
</glyph>
<glyph name="radical" format="1">
  <advance width="1089"/>
  <unicode hex="221A"/>
  <outline>
    <contour>
      <point x="80" y="682" type="line"/>
      <point x="260" y="682" type="line"/>
      <point x="595" y="-203" type="line"/>
      <point x="1105" y="1701" type="line"/>
      <point x="909" y="1701" type="line"/>
      <point x="557" y="244" type="line"/>
      <point x="611" y="244" type="line"/>
      <point x="397" y="850" type="line"/>
      <point x="80" y="850" type="line"/>
    </contour>
  </outline>
</glyph>
<glyph name="infinity" format="1">
  <advance width="1909"/>
  <unicode hex="221E"/>
  <outline>
    <contour>
      <point x="624" y="1002" type="curve" smooth="yes"/>
      <point x="368" y="1002"/>
      <point x="178" y="851"/>
      <point x="178" y="643" type="curve" smooth="yes"/>
      <point x="178" y="436"/>
      <point x="337" y="285"/>
      <point x="593" y="285" type="curve" smooth="yes"/>
      <point x="741" y="285"/>
      <point x="852" y="343"/>
      <point x="934" y="431" type="curve"/>
      <point x="1016" y="343"/>
      <point x="1136" y="285"/>
      <point x="1285" y="285" type="curve" smooth="yes"/>
      <point x="1541" y="285"/>
      <point x="1731" y="436"/>
      <point x="1731" y="644" type="curve" smooth="yes"/>
      <point x="1731" y="851"/>
      <point x="1573" y="1002"/>
      <point x="1317" y="1002" type="curve" smooth="yes"/>
      <point x="1168" y="1002"/>
      <point x="1057" y="944"/>
      <point x="975" y="856" type="curve"/>
      <point x="894" y="944"/>
      <point x="772" y="1002"/>
    </contour>
    <contour>
      <point x="1297" y="829" type="curve" smooth="yes"/>
      <point x="1481" y="829"/>
      <point x="1522" y="723"/>
      <point x="1522" y="644" type="curve" smooth="yes"/>
      <point x="1522" y="565"/>
      <point x="1491" y="468"/>
      <point x="1308" y="468" type="curve" smooth="yes"/>
      <point x="1124" y="468"/>
      <point x="1074" y="585"/>
      <point x="1054" y="664" type="curve"/>
      <point x="1065" y="740"/>
      <point x="1155" y="829"/>
    </contour>
    <contour>
      <point x="612" y="458" type="curve" smooth="yes"/>
      <point x="428" y="458"/>
      <point x="388" y="564"/>
      <point x="388" y="643" type="curve" smooth="yes"/>
      <point x="388" y="722"/>
      <point x="418" y="819"/>
      <point x="602" y="819" type="curve" smooth="yes"/>
      <point x="785" y="819"/>
      <point x="835" y="702"/>
      <point x="856" y="623" type="curve"/>
      <point x="855" y="547"/>
      <point x="755" y="458"/>
    </contour>
  </outline>
</glyph>
<glyph name="integral" format="1">
  <advance width="693"/>
  <unicode hex="222B"/>
  <outline>
    <contour>
      <point x="263" y="-185" type="line"/>
      <point x="263" y="-301"/>
      <point x="247" y="-366"/>
      <point x="141" y="-366" type="curve" smooth="yes"/>
      <point x="120" y="-366"/>
      <point x="83" y="-361"/>
      <point x="64" y="-354" type="curve"/>
      <point x="64" y="-512" type="line"/>
      <point x="86" y="-518"/>
      <point x="118" y="-520"/>
      <point x="140" y="-520" type="curve" smooth="yes"/>
      <point x="402" y="-520"/>
      <point x="425" y="-332"/>
      <point x="425" y="-158" type="curve" smooth="yes"/>
      <point x="425" y="1164" type="line" smooth="yes"/>
      <point x="425" y="1280"/>
      <point x="443" y="1345"/>
      <point x="548" y="1345" type="curve" smooth="yes"/>
      <point x="571" y="1345"/>
      <point x="606" y="1340"/>
      <point x="626" y="1333" type="curve"/>
      <point x="626" y="1491" type="line"/>
      <point x="602" y="1497"/>
      <point x="573" y="1499"/>
      <point x="549" y="1499" type="curve" smooth="yes"/>
      <point x="288" y="1499"/>
      <point x="263" y="1311"/>
      <point x="263" y="1137" type="curve" smooth="yes"/>
    </contour>
  </outline>
</glyph>
<glyph name="notequal" format="1">
  <advance width="1061"/>
  <unicode hex="2260"/>
  <outline>
    <contour>
      <point x="226" y="221" type="line"/>
      <point x="360" y="158" type="line"/>
      <point x="833" y="1140" type="line"/>
      <point x="699" y="1203" type="line"/>
    </contour>
    <component base="equal"/>
  </outline>
</glyph>
<glyph name="lessequal" format="1">
  <advance width="875"/>
  <unicode hex="2264"/>
  <outline>
    <contour>
      <point x="706" y="0" type="line"/>
      <point x="706" y="168" type="line"/>
      <point x="168" y="168" type="line"/>
      <point x="168" y="0" type="line"/>
    </contour>
    <contour>
      <point x="334" y="759" type="line"/>
      <point x="721" y="1113" type="line"/>
      <point x="613" y="1231" type="line"/>
      <point x="106" y="759" type="line"/>
      <point x="613" y="287" type="line"/>
      <point x="721" y="405" type="line"/>
    </contour>
  </outline>
</glyph>
<glyph name="lozenge" format="1">
  <advance width="1186"/>
  <unicode hex="25CA"/>
  <outline>
    <contour>
      <point x="1061" y="595" type="line"/>
      <point x="593" y="1400" type="line"/>
      <point x="125" y="596" type="line"/>
      <point x="593" y="-200" type="line"/>
    </contour>
    <contour>
      <point x="593" y="1082" type="line"/>
      <point x="854" y="595" type="line"/>
      <point x="593" y="100" type="line"/>
      <point x="322" y="595" type="line"/>
    </contour>
  </outline>
</glyph>
<glyph name="acute.cap" format="1">
  <advance width="696"/>
  <outline>
    <contour>
      <point x="646" y="1867" type="line"/>
      <point x="579" y="2020" type="line"/>
      <point x="136" y="1825" type="line"/>
      <point x="204" y="1671" type="line"/>
    </contour>
    <contour>
      <point x="351" y="1700" type="move" name="_top"/>
    </contour>
  </outline>
</glyph>
<glyph name="breve.cap" format="1">
  <advance width="776"/>
  <outline>
    <contour>
      <point x="387" y="1678" type="curve" smooth="yes"/>
      <point x="606" y="1678"/>
      <point x="696" y="1838"/>
      <point x="683" y="1989" type="curve"/>
      <point x="558" y="1989" type="line"/>
      <point x="526" y="1866"/>
      <point x="472" y="1833"/>
      <point x="387" y="1833" type="curve" smooth="yes"/>
      <point x="302" y="1833"/>
      <point x="248" y="1866"/>
      <point x="216" y="1989" type="curve"/>
      <point x="91" y="1989" type="line"/>
      <point x="78" y="1838"/>
      <point x="168" y="1678"/>
    </contour>
    <contour>
      <point x="387" y="1700" type="move" name="_top"/>
    </contour>
  </outline>
</glyph>
<glyph name="caron.cap" format="1">
  <advance width="776"/>
  <outline>
    <contour>
      <point x="704" y="1882" type="line"/>
      <point x="628" y="2020" type="line"/>
      <point x="388" y="1899" type="line"/>
      <point x="148" y="2020" type="line"/>
      <point x="72" y="1882" type="line"/>
      <point x="388" y="1719" type="line"/>
    </contour>
    <contour>
      <point x="388" y="1700" type="move" name="_top"/>
    </contour>
  </outline>
</glyph>
<glyph name="circumflex.cap" format="1">
  <advance width="776"/>
  <outline>
    <contour>
      <point x="388" y="2020" type="line"/>
      <point x="72" y="1857" type="line"/>
      <point x="148" y="1719" type="line"/>
      <point x="388" y="1840" type="line"/>
      <point x="628" y="1719" type="line"/>
      <point x="704" y="1857" type="line"/>
    </contour>
    <contour>
      <point x="388" y="1700" type="move" name="_top"/>
    </contour>
  </outline>
</glyph>
<glyph name="commaaccent" format="1">
  <advance width="449"/>
  <outline>
    <contour>
      <point x="352" y="-215" type="curve"/>
      <point x="352" y="-126"/>
      <point x="290" y="-81"/>
      <point x="219" y="-81" type="curve" smooth="yes"/>
      <point x="143" y="-81"/>
      <point x="94" y="-131"/>
      <point x="94" y="-188" type="curve" smooth="yes"/>
      <point x="94" y="-240"/>
      <point x="138" y="-287"/>
      <point x="206" y="-293" type="curve"/>
      <point x="194" y="-335"/>
      <point x="145" y="-393"/>
      <point x="94" y="-436" type="curve"/>
      <point x="173" y="-503" type="line"/>
      <point x="293" y="-393"/>
      <point x="352" y="-298"/>
    </contour>
    <contour>
      <point x="223" y="-170" type="move" name="_btm"/>
    </contour>
  </outline>
</glyph>
<glyph name="dieresis.cap" format="1">
  <advance width="823"/>
  <outline>
    <contour>
      <point x="352" y="1823" type="curve" smooth="yes"/>
      <point x="352" y="1889"/>
      <point x="301" y="1947"/>
      <point x="223" y="1947" type="curve" smooth="yes"/>
      <point x="145" y="1947"/>
      <point x="94" y="1889"/>
      <point x="94" y="1823" type="curve" smooth="yes"/>
      <point x="94" y="1757"/>
      <point x="145" y="1699"/>
      <point x="223" y="1699" type="curve" smooth="yes"/>
      <point x="301" y="1699"/>
      <point x="352" y="1757"/>
    </contour>
    <contour>
      <point x="728" y="1823" type="curve" smooth="yes"/>
      <point x="728" y="1889"/>
      <point x="677" y="1947"/>
      <point x="599" y="1947" type="curve" smooth="yes"/>
      <point x="521" y="1947"/>
      <point x="470" y="1889"/>
      <point x="470" y="1823" type="curve" smooth="yes"/>
      <point x="470" y="1757"/>
      <point x="521" y="1699"/>
      <point x="599" y="1699" type="curve" smooth="yes"/>
      <point x="677" y="1699"/>
      <point x="728" y="1757"/>
    </contour>
    <contour>
      <point x="411" y="1700" type="move" name="_top"/>
    </contour>
  </outline>
</glyph>
<glyph name="dotaccent.cap" format="1">
  <advance width="510"/>
  <outline>
    <contour>
      <point x="384" y="1823" type="curve" smooth="yes"/>
      <point x="384" y="1889"/>
      <point x="333" y="1947"/>
      <point x="255" y="1947" type="curve" smooth="yes"/>
      <point x="177" y="1947"/>
      <point x="126" y="1889"/>
      <point x="126" y="1823" type="curve" smooth="yes"/>
      <point x="126" y="1757"/>
      <point x="177" y="1699"/>
      <point x="255" y="1699" type="curve" smooth="yes"/>
      <point x="333" y="1699"/>
      <point x="384" y="1757"/>
    </contour>
    <contour>
      <point x="255" y="1700" type="move" name="_top"/>
    </contour>
  </outline>
</glyph>
<glyph name="grave.cap" format="1">
  <advance width="696"/>
  <outline>
    <contour>
      <point x="494" y="1671" type="line"/>
      <point x="562" y="1825" type="line"/>
      <point x="119" y="2020" type="line"/>
      <point x="52" y="1867" type="line"/>
    </contour>
    <contour>
      <point x="347" y="1700" type="move" name="_top"/>
    </contour>
  </outline>
</glyph>
<glyph name="hungarumlaut.cap" format="1">
  <advance width="1022"/>
  <outline>
    <contour>
      <point x="609" y="1917" type="line"/>
      <point x="510" y="2020" type="line"/>
      <point x="231" y="1738" type="line"/>
      <point x="310" y="1655" type="line"/>
    </contour>
    <contour>
      <point x="1017" y="1917" type="line"/>
      <point x="918" y="2020" type="line"/>
      <point x="619" y="1738" type="line"/>
      <point x="698" y="1655" type="line"/>
    </contour>
    <contour>
      <point x="527" y="1700" type="move" name="_top"/>
    </contour>
  </outline>
</glyph>
<glyph name="macron.cap" format="1">
  <advance width="851"/>
  <outline>
    <contour>
      <point x="649" y="1701" type="line"/>
      <point x="648" y="1859" type="line"/>
      <point x="166" y="1859" type="line"/>
      <point x="165" y="1701" type="line"/>
    </contour>
    <contour>
      <point x="407" y="1700" type="move" name="_top"/>
    </contour>
  </outline>
</glyph>
<glyph name="ring.cap" format="1">
  <advance width="686"/>
  <outline>
    <contour>
      <point x="573" y="1798" type="curve" smooth="yes"/>
      <point x="573" y="1936"/>
      <point x="465" y="2020"/>
      <point x="345" y="2020" type="curve" smooth="yes"/>
      <point x="225" y="2020"/>
      <point x="117" y="1936"/>
      <point x="117" y="1798" type="curve" smooth="yes"/>
      <point x="117" y="1660"/>
      <point x="225" y="1576"/>
      <point x="345" y="1576" type="curve" smooth="yes"/>
      <point x="465" y="1576"/>
      <point x="573" y="1660"/>
    </contour>
    <contour>
      <point x="444" y="1798" type="curve" smooth="yes"/>
      <point x="444" y="1729"/>
      <point x="405" y="1698"/>
      <point x="345" y="1698" type="curve" smooth="yes"/>
      <point x="285" y="1698"/>
      <point x="246" y="1729"/>
      <point x="246" y="1798" type="curve" smooth="yes"/>
      <point x="246" y="1867"/>
      <point x="285" y="1896"/>
      <point x="345" y="1896" type="curve" smooth="yes"/>
      <point x="405" y="1896"/>
      <point x="444" y="1867"/>
    </contour>
    <contour>
      <point x="345" y="1700" type="move" name="_top"/>
    </contour>
  </outline>
</glyph>
<glyph name="tilde.cap" format="1">
  <advance width="854"/>
  <outline>
    <contour>
      <point x="756" y="1862" type="line"/>
      <point x="716" y="1792"/>
      <point x="630" y="1717"/>
      <point x="554" y="1717" type="curve" smooth="yes"/>
      <point x="451" y="1717"/>
      <point x="389" y="1793"/>
      <point x="315" y="1793" type="curve" smooth="yes"/>
      <point x="277" y="1793"/>
      <point x="223" y="1773"/>
      <point x="176" y="1717" type="curve"/>
      <point x="100" y="1814" type="line"/>
      <point x="140" y="1884"/>
      <point x="226" y="1959"/>
      <point x="302" y="1959" type="curve" smooth="yes"/>
      <point x="405" y="1959"/>
      <point x="467" y="1883"/>
      <point x="541" y="1883" type="curve" smooth="yes"/>
      <point x="579" y="1883"/>
      <point x="633" y="1903"/>
      <point x="680" y="1959" type="curve"/>
    </contour>
    <contour>
      <point x="428" y="1700" type="move" name="_top"/>
    </contour>
  </outline>
</glyph>
